<svg width="1920" height="2159" viewBox="0 0 1920 2159" fill="none" xmlns="http://www.w3.org/2000/svg">
<g clip-path="url(#clip0_62_2)">
<rect width="1920" height="2159" fill="white"/>
<rect x="-3" width="1924" height="2160" fill="url(#paint0_linear_62_2)" fill-opacity="0.29"/>
<path d="M684.092 1521.14L700.857 1636L724.807 1542.68V1487.64L684.092 1454.14L700.857 1384.75L765.521 1315.36V1241.18L866 1135.89L969 1003L888 1040.5L866 901.393L823 851.143V748.25L765.521 652.536L633.798 628.607L561.949 607.071V497V341.464L420.647 260.107H288.924L183.546 288.821L109.302 229H3.92427L-32 274.464V535.286H3.92427L78.1683 552.036L109.302 652.536C134.05 677.262 187.378 731.021 202.706 748.25C218.034 765.479 266.572 755.429 288.924 748.25C327.244 773.774 407.235 830.086 420.647 851.143C434.059 872.2 459.765 893.417 470.941 901.393L724.807 963.5C756.74 988.226 817.252 1110.84 823 1118.5C828.748 1126.16 597.076 1286.64 605.059 1315.36L633.798 1454.14L684.092 1521.14Z" fill="#595959"/>
<path d="M855.583 1062.21L872.334 1203.47L905.836 1256.14C899.454 1280.08 886.692 1330.36 886.692 1339.93C886.692 1349.51 909.027 1380.64 920.194 1395V1313.6L941.731 1256.14L920.194 1203.47L867.548 1098.46L905.836 1041L1090.1 985.603L1056.6 923.355L1164.28 841.954V722.248L1149.92 667.182L1090.1 573.811V494.805L1164.28 422.98L1489.73 351.156H1609.38L1741 245.814L1664.42 130.896L1489.73 83.013L1410.76 102.166L1370.08 130.896L1252.82 164.414V130.896L1236.07 59.0717L1300.68 44.7068L1236.07 -36.6938L1130.78 -75L1027.88 -36.6938L980.019 15.9772L920.194 83.013L960.875 130.896L920.194 164.414L872.334 209.902L886.692 245.814L843.617 209.902L802.936 102.166L747.897 44.7068L709.608 -75L460.734 -60.6352L240.576 -7.96416L164 130.896V221.873C193.514 255.391 254.934 325.3 264.507 336.792C274.079 348.283 308.379 351.156 324.332 351.156L412.874 422.98L542.097 478.046L577.992 518.746V667.182C604.315 678.355 658.876 702.137 666.534 707.883C674.192 713.629 715.99 737.41 735.931 748.583V825.195C735.931 841.954 790.971 894.625 802.936 899.414C814.901 904.202 843.617 935.326 855.583 942.508C865.155 948.254 870.738 987.997 872.334 1007.15L855.583 1062.21Z" fill="#545454"/>
<path d="M1047.7 1219.4L1007.01 1238.55V1307.98C1000.63 1321.55 987.865 1350.6 987.865 1358.26C987.865 1367.84 963.933 1384.6 954.36 1394.17C946.701 1401.84 941.596 1445.25 940 1466V1413.33V1358.26L978.292 1317.56V1255.31V1219.4L1010.15 1196.38L931.513 1148.16L834.695 1104.93L853 1082.5L882.5 1055.5L954.36 972L978.293 936.125L1007.01 905L1088.38 867.451L987.865 845.903L1047.7 714.222C1034.14 666.338 1003.18 567.218 987.865 553.811C972.548 540.403 994.248 457.245 1007.01 417.341H1162.58L1191.3 331.15L1222.41 223.411L1456.95 204.258L1480.88 134.826L1590.97 63L1854.24 91.7304L1938 151.585V417.341H1854.24L1813.55 477.196L1763.29 553.811H1667.56H1571.83L1504.82 630.425L1456.95 730.981H1361.22L1284.63 771.683V836.326C1281.44 867.45 1273.62 932.573 1267.88 944.065C1260.7 958.43 1119.36 1012.13 1105 1026.5C1090.64 1040.87 1007.6 992 987.865 992C926.5 992 880.965 1083.38 861.021 1104.93L931.513 1148.16L1021.37 1188.27L1010.15 1196.38L1047.7 1219.4Z" fill="#6E6E6E"/>
<path d="M692.197 794.23V837.918L679.64 851.923H662.922C658.779 857.407 650.32 868.374 649.634 868.374C648.948 868.374 643.633 870.552 641.061 871.642L617.305 879.525H589.516L662.922 916.791L813.016 952.696C813.383 960.766 813.896 978.005 813.016 982.407C812.135 986.808 803.113 1001.85 798.711 1008.82L791.008 1037.43L841.062 1075.89L805.697 1030.13L826.5 1001L841.062 942.749L743 916.791L673.474 879.525L713 856.641V823.355V771.346V750.542V686.05H673.474L644.349 656.925L673.474 604.916L692.197 582.032L673.474 515.46L631.867 473.852L644.349 396.879L571.537 274.136L511.207 224.207L427.994 215.886V147.234V68.1794L365.584 7.84857L332.299 -40H-38V290.779H14.0082L86.8199 313.664C83.3525 326.839 76.0018 355.687 74.3375 365.673C72.6732 375.659 119.411 405.893 142.988 419.763L234.523 432.245L353.102 473.852C405.804 497.43 511.207 546.665 511.207 554.987C511.207 565.389 500.806 606.996 490.404 634.041C482.083 655.677 528.544 705.467 552.814 727.658L644.349 750.542L692.197 794.23Z" fill="#474747"/>
<path d="M876.596 742.325V824.286L889.661 886.809L911.957 895.164V932.299C911.957 936.013 908.241 959.842 906.383 971.292L911.957 1001L930.537 939.727L945.401 895.164L923.463 824.286L938.108 742.325L923.463 686.708L938.108 651.582L923.463 593.038V541.812V490.586L961.542 440.823L938.108 402.77L961.542 300.318L1008.41 189.084L1078.71 133.467V60.2872V4.67039L1108 -48.0192L1078.71 -89L405 -48.0192L431.362 28.088L525.096 60.2872V107.122V165.666H598.325L636.404 189.084L680.341 224.21C685.223 253.482 696.159 317.295 700.846 338.371C706.704 364.716 750.641 393.988 762.358 402.77C771.731 409.795 809.225 431.066 826.8 440.823L847.304 566.693L826.8 669.145L876.596 742.325Z" fill="#6C6C6C"/>
<path d="M980.634 924.117C980.634 932.622 1001.86 937.583 1012.48 939L1057.06 924.117C1061.3 905.691 1069.79 865.863 1069.79 853.957C1069.79 842.051 1083.95 831.987 1091.02 828.443L1069.79 773.165L1139.85 758.283L1180.18 673.239V586.07L1239.62 549.926L1290.57 586.07L1409.45 549.926L1420.06 439.37L1477.38 394.722L1640.84 320.309L1664.19 239.517L1817.03 216.13L1972 150.222V26.9087L1940.16 -39H1766.08L1551.68 -28.3696H1394.59L1118.62 -2.85653L1091.02 71.5565L1139.85 173.609L1152.58 260.778L1091.02 335.191L1037.95 394.722L1057.06 467.009L1069.79 522.287L1037.95 586.07C1008.94 603.787 951.338 643.899 953.037 662.609C955.16 685.996 980.634 743.4 980.634 758.283C980.634 770.189 1001.86 827.026 1012.48 853.957C1001.86 873.8 980.634 915.613 980.634 924.117Z" fill="#464646"/>
<path d="M1289.16 910.651H1210.68L1187.56 947.069L1161.76 983.023L1140.44 1001L1118 983.023L1155.53 910.651L1195.83 874.54L1236.13 842.678V742.841L1318.86 685.489L1388.86 674.868L1475.83 606.894L1503.4 513.431L1630.67 462.45L1654 377.484L1842.79 335L1934 377.484V719.476L1866.12 700.358L1755.82 659.999L1594.61 674.868V783.201L1514.01 832.057L1448.25 795.946C1409.36 803.026 1329.04 820.161 1318.86 832.057C1308.68 843.952 1294.82 889.41 1289.16 910.651Z" fill="#575757"/>
<path d="M734.958 1183.22L722.826 1188.35V1191.34V1294.76H1189.34V1218.69L1158.46 1202.45L1118.02 1177.23L1090.45 1163.99L1071.33 1151.16L1052.95 1148.17H1037.88L1035.67 1157.15H1028.32L1022.07 1163.99L1012.88 1161.85H1001.85C996.46 1160.57 985.309 1157.83 983.838 1157.15C982.368 1156.46 973.667 1154.58 969.501 1153.73L947.076 1145.18L935.312 1138.34L921.71 1129.8L901.491 1113.98L886.418 1108H873.184L854.435 1118.26L845.244 1120.82L829.437 1118.26L787.16 1148.17L767.676 1166.55L734.958 1183.22Z" fill="#31241F"/>
<path d="M767.548 1166.84L722.698 1189.02L556.844 1249.19L6 1337.64V1497.49L1927.2 1508V1402.18L1473.17 1286.61L1257.78 1255.09L1189.21 1218.04L1174.81 1210.21L1159.87 1202.19L1138 1189.8L1119.78 1177.4L1110.49 1193.44H1087.16L1066.93 1186.52L1060.74 1180.32L1044.7 1175.95C1039.31 1175.18 1032.69 1169.43 1031.22 1169.02C1029.75 1168.61 1027.18 1164.61 1023.02 1164.1L1014.27 1161H1004.06L969.372 1152.44L940.829 1166.84L912.583 1169.02L897.094 1161L876.684 1163.19L856.456 1161L842.971 1166.84L825.476 1161H802.333L767.548 1166.84Z" fill="#4F392F"/>
<path d="M1116.32 1222.23C1106.42 1213.43 1086.54 1195.34 1086.25 1193.44H1110.49L1119.96 1177.22L1155.68 1200.91L1189.39 1216.95C1189.27 1225.21 1382.82 1271.21 1383.11 1273.1C1383.4 1275 1224.19 1254.94 1221.76 1252.09C1215.56 1250.63 1162.86 1233.53 1158.78 1233.53C1154.7 1233.53 1139.46 1224.06 1132.35 1219.32L1116.32 1222.23Z" fill="#3C2920"/>
<path d="M934.088 1196.17L910.397 1172.48L913.131 1169.57L940.648 1166.11C943.381 1172.48 949.431 1187.43 951.764 1196.17C958.689 1200.91 969.076 1203.65 972.538 1205.1L979.646 1190.89L985.295 1185.24V1205.1V1226.79L1032.86 1250.48L1068.39 1269.25L1077.14 1294.58L1229.27 1339.14L1329.08 1489.99L1032.86 1360.91L1023.93 1294.58V1281.09C1008.44 1271.56 976.475 1252.08 972.538 1250.48C968.602 1248.88 945.264 1234.02 934.088 1226.79V1196.17Z" fill="#3B2B23"/>
<path d="M737.477 1323.28L767.495 1296.64H775.75L788.508 1291.44L775.75 1277.15L788.508 1257V1270L808.021 1291.44L788.508 1323.28L817.026 1329.78V1347.98C825.782 1349.93 844.493 1354.61 849.296 1357.73C854.099 1360.85 888.821 1370.29 905.582 1374.62C916.088 1382.85 937.702 1400.88 940.103 1407.11C942.505 1413.35 951.61 1437.44 955.863 1448.71L926.595 1413.61L883.818 1390.87H872.561L878.565 1407.11L863.555 1420.76V1407.11L802.767 1365.52L767.495 1353.83L688.696 1365.52L636.163 1390.87L600.891 1440.91L580.629 1448.71L585.882 1424.66H550.61L494.325 1455.85L449.296 1476C437.289 1475.57 412.373 1474.96 408.771 1476C405.169 1477.04 384.756 1485.53 375 1489.65L413.274 1455.85L494.325 1424.66L575.375 1374.62L688.696 1347.98L737.477 1323.28Z" fill="#3B2B23"/>
<path d="M845 1359L415.5 1365.5V1463L888 1472.5V1533H995L998 1446L845 1441V1359Z" fill="#B0816B"/>
<path d="M1366 1412V1428L1375 1754.5L1263.5 1653V1525H1271L1276 1503L1288.5 1482.5L1301 1490V1482.5L1310 1472.5V1420L1328 1401L1366 1412Z" fill="#B0816B"/>
<path d="M1475.5 1444L1444.5 1437V1768L1917.5 1783V1493H1766.5L1712 1448H1695C1695.33 1450.33 1695.1 1455 1691.5 1455H1653.5L1624 1459.5L1564.5 1444V1419L1575 1410L1536 1400.5L1505 1426.5V1431H1491.5L1475.5 1444Z" fill="#5E4235"/>
<path d="M906 1468.5H792V1717L850.5 1718.5L883.5 1690L906 1468.5Z" fill="#694839"/>
<path d="M1390.5 1769L1371.5 1752C1368.83 1641.17 1364.4 1425.4 1364 1409C1363.6 1392.6 1381.18 1384.17 1388.01 1384L1453.01 1414.5V1769H1390.5Z" fill="#694839"/>
<path d="M1058 1493C1055.6 1493.8 1035.33 1493.5 1027 1491L1020.5 1541.5H1314V1444H1302.5L1294.5 1439L1283 1433.5L1274.5 1431L1270 1433.5L1261.5 1444V1489L1143.5 1486.5H1140H1133.5C1129.83 1488.67 1122.1 1493 1120.5 1493C1118.9 1493 1113.83 1490.33 1111.5 1489L1088.5 1474C1078.33 1481.5 1060.4 1492.2 1058 1493Z" fill="#1A130F"/>
<path d="M1050.5 1531.5H1025.5L1019 1616.5L1020.5 1639.5H1174.5L1177 1570L1154 1567.5V1536C1150.83 1535.83 1143.8 1535.6 1141 1536C1138.2 1536.4 1139.83 1533.17 1141 1531.5H1061.5V1526.5H1050.5V1531.5Z" fill="#33241D"/>
<path d="M1024 1624.5L982 1659.5V1533H993.5L997 1446.5L1013.5 1456L1018.5 1482L1027.5 1490L1024 1624.5Z" fill="#463228"/>
<path d="M871.5 1378L844 1358.5V1441.5H873.5L871.5 1378Z" fill="#463228"/>
<path d="M1691.5 1602.5L1696 1446.5C1704.86 1440.83 1760 1441.5 1783 1446.5C1783.19 1518.06 1773.25 1606 1769.5 1595.5C1765.75 1585 1699.5 1624 1691.5 1602.5Z" fill="#473126"/>
<path d="M1143 1537.5V1469L1162 1463.5V1473.5L1181.5 1478L1178 1572.5L1150.5 1570V1537.5H1143Z" fill="#463228"/>
<path d="M27.5 1314L0 1327L-6 1891.5L791 1787.5C794.333 1667 801 1421 801 1401C805.8 1382.2 795.667 1377.17 790 1377L750.5 1370.5C749 1372.67 744.5 1379.2 738.5 1388C682.5 1377.6 656.167 1398.67 650 1410.5C643.833 1407.33 628.5 1398.4 616.5 1388C604.5 1377.6 573.5 1392.33 559.5 1401C555.167 1398.5 539.1 1392.4 509.5 1388C452.5 1388 434 1380.5 406 1377C401.6 1343 357.5 1339.5 336 1342H236L186.5 1327L27.5 1314Z" fill="#5E4235"/>
<path d="M27 1311L0 1326V1401.5C40 1397.5 66.6667 1440.83 75 1467.5L173.5 1484L179.5 1343.5L158 1321.5L27 1311Z" fill="#473126"/>
<path d="M60 1357.32C22.4 1349.32 11.1667 1385.33 8.5 1401.5C32.1 1401.5 57.1667 1431.15 68.5 1448.82H108V1395.82C107.667 1386.32 97.6 1365.32 60 1357.32Z" fill="#17110E"/>
<path d="M47.5 1562V1429.5L86.5 1463.5L96.5 1456L114 1463.5H135L147 1445C145.167 1428.83 142.6 1389 147 1359C159 1330.6 172.667 1347.17 178 1359L169 1635.5L153.5 1657.5L79 1649L47.5 1562Z" fill="#2C201B"/>
<path d="M607 1483.5L618 1673L644 1667L653 1629.5L655 1605.5L648 1597.5L655 1578.5C652.667 1575.33 648 1568.2 648 1565C648 1561.8 651.333 1555 653 1552L644 1537C645.333 1534.33 648 1521.2 648 1490C638.8 1456.8 665.833 1441.5 680.5 1438H735C739.667 1423.83 749 1392.7 749 1381.5C734.6 1373.1 704 1378 690.5 1381.5L680.5 1387.5L653 1392H635L618 1381.5L599 1381L588 1381.5L560.5 1387.5L537.5 1381H514.5L510 1387.5L495 1381L475 1386.5L461 1381L451 1387.5L431 1381C427.833 1376.67 416.7 1364.1 397.5 1348.5C378.3 1332.9 283.833 1331 239 1332C231 1329.33 211.7 1322.5 198.5 1316.5C186.1 1310.5 167.667 1319 160 1324L176.5 1348.5L171 1589.5L205 1622.5C224.167 1632.67 263.6 1653 268 1653C272.4 1653 280.5 1647.33 284 1644.5L324 1653L300.5 1613.5L249 1582L233.5 1537L249 1519.5L254.5 1462.5L295 1431.5L306.5 1404L324 1410H343.5C355.9 1412.8 353.667 1420.5 351 1424L407 1443.5L421.5 1457L451 1424L467.5 1431.5L479.5 1424L488.5 1438L505 1424L514.5 1443.5H526.5L537.5 1424L545.5 1438L552 1457L574 1438C576.167 1441.83 582.9 1451 592.5 1457C602.9 1457 606.5 1474.67 607 1483.5Z" fill="#362720"/>
<path d="M22.5 1665C17 1665.83 3.2 1667 -8 1665V1890L645.5 1811.5L640.5 1728L617.5 1705L603.5 1667L570.5 1661.5H555L536.5 1671.5L520.5 1667L488 1674.5L471 1667C470.167 1669.5 464.1 1674.5 446.5 1674.5C414.9 1654.1 374.667 1666 358.5 1674.5H322.5L311 1690.5L300.5 1683.5L292.5 1690.5L275 1674.5L268 1683.5H252L217 1674.5L188 1665L153.5 1674.5H71V1656L22.5 1650V1665Z" fill="#281C17"/>
<path d="M693 1670.17V1799L669.5 1803.17V1678.17H641L626.5 1670.17H599L622.5 1668.67C624.833 1665.33 630.4 1658.87 634 1659.67C638.5 1659.67 664.5 1653.67 665.5 1659.67C669.5 1659.67 684.5 1661.67 682.5 1667.17C686.1 1668.37 691 1669.67 693 1670.17Z" fill="#4B3124"/>
<path d="M671 1677.17V1803.17L599 1809V1670.67H626L640 1677.17H671Z" fill="#8A604D"/>
<path d="M522 1650.39V1819.5L498.5 1826V1660.95H470L455.5 1650.39H428L451.5 1648.4C453.833 1644 459.4 1635.46 463 1636.52C467.5 1636.52 493.5 1628.6 494.5 1636.52C498.5 1636.52 513.5 1639.16 511.5 1646.42C515.1 1648.01 520 1649.73 522 1650.39Z" fill="#4B3124"/>
<path d="M500 1659.63V1826L428 1831.5V1651.05H455L469 1659.63H500Z" fill="#8A604D"/>
<path d="M350 1667.84V1842.5L326.5 1848V1678.67H298L283.5 1667.84H256L279.5 1665.8C281.833 1661.29 287.4 1652.53 291 1653.61C295.5 1653.61 321.5 1645.48 322.5 1653.61C326.5 1653.61 341.5 1656.32 339.5 1663.77C343.1 1665.4 348 1667.16 350 1667.84Z" fill="#4B3124"/>
<path d="M328 1677.32V1848L256 1855V1668.51H283L297 1677.32H328Z" fill="#8A604D"/>
<path d="M747 1382L732 1461L723.5 1793.5L798 1785.5C801 1664.83 807 1419.6 807 1404C807 1389.2 801 1378.5 798 1375L756 1364.5L747 1382Z" fill="#8A604D"/>
<path d="M777.5 1788L784.5 1455H732C733.6 1455 743.333 1405 748 1380C749.5 1374.83 755 1365.4 765 1369C775 1370.2 795.833 1376.83 805 1380L804.924 1380.81C807.925 1383.62 807.726 1391.03 807 1395.5L801 1784.5L777.5 1788Z" fill="#4B3124"/>
<path d="M1860.71 1084V1115.5L1765.21 1118.5C1763.21 1129.33 1760.41 1160.1 1759.21 1162.5C1758.01 1164.9 1762.21 1111 1765.21 1088L1860.71 1084Z" fill="#302018"/>
<path d="M1924.5 1014V1045.5L1829 1048.5C1827 1059.33 1824.2 1090.1 1823 1092.5C1821.8 1094.9 1826 1041 1829 1018L1924.5 1014Z" fill="#634231"/>
<path d="M1757.21 1158.5L1768.71 1162.5L1772.71 1145L1860.71 1125V1111.5L1764.71 1114L1757.21 1158.5Z" fill="#221711"/>
<path d="M1821 1088.5L1832.5 1092.5L1836.5 1075L1924.5 1055V1041.5L1828.5 1044L1821 1088.5Z" fill="#412B20"/>
<path d="M1855 1080L1825 2159H1920V1080H1855Z" fill="#8A604D"/>
<path d="M1830.51 2081C1809.33 2080.05 1797.37 2073.46 1794.04 2070.29C1792.54 1769.33 1789.64 1165.42 1790.04 1157.49C1797.63 1147.33 1836.51 1144.26 1855 1144C1847 1451.44 1830.91 2069.26 1830.51 2081Z" fill="#704E3E"/>
<path d="M1767.5 1158C1767.1 1162.8 1782.88 1174.17 1789.71 1178C1796.11 1159.2 1837.38 1156.83 1857.21 1158L1858.21 1124.5L1772.71 1143.5C1771.88 1147.17 1767.9 1153.2 1767.5 1158Z" fill="#302018"/>
<path d="M1831.29 1088C1830.89 1092.8 1846.67 1104.17 1853.5 1108C1859.9 1089.2 1901.17 1086.83 1921 1088L1922 1054.5L1836.5 1073.5C1835.67 1077.17 1831.69 1083.2 1831.29 1088Z" fill="#634231"/>
<path d="M1686 1893.04L1689.64 1640.68C1694.91 1634.26 1703.97 1635.81 1707.85 1637.4C1707.96 1718.47 1708.12 1883.62 1707.85 1895.6C1698.69 1904.65 1689.47 1897.67 1686 1893.04Z" fill="#5C4235"/>
<path d="M1702.49 1590.99L1707.15 1594C1710.87 1583.16 1737.94 1584.46 1751 1586.47V1532.76C1738.27 1524.72 1711.03 1531.42 1699 1535.77V1581.45L1702.49 1590.99Z" fill="#2A1C15"/>
<path d="M1687.48 1642.64L1689.45 1645C1691.02 1636.49 1702.47 1637.52 1708 1639.09V1596.95C1702.61 1590.65 1691.09 1595.9 1686 1599.31V1635.15L1687.48 1642.64Z" fill="#221711"/>
<path d="M1734.5 1578.74L1740.5 1581.74C1745.3 1570.94 1780.17 1572.24 1797 1574.24V1520.74C1780.6 1512.74 1745.5 1519.41 1730 1523.74V1569.24L1734.5 1578.74Z" fill="#302018"/>
<path d="M1698 1913.06L1706.77 1589.01C1719.47 1580.76 1741.3 1582.76 1750.63 1584.79C1750.91 1688.9 1751.3 1900.96 1750.63 1916.35C1728.58 1927.98 1706.35 1919 1698 1913.06Z" fill="#634639"/>
<path d="M1729 1923.46L1740.25 1577.42C1756.55 1568.61 1784.56 1570.75 1796.53 1572.92C1796.88 1684.09 1797.38 1910.54 1796.53 1926.96C1768.23 1939.38 1739.72 1929.8 1729 1923.46Z" fill="#68493B"/>
<path d="M1664.5 1804V1636C1673.36 1630.33 1685 1618 1690.75 1609.23C1690.94 1680.79 1694.5 1871 1690.75 1860.5C1687 1850 1672.5 1825.5 1664.5 1804Z" fill="#5C4235"/>
<rect x="375.5" y="1489.5" width="16" height="24" fill="#221C16" stroke="#7E5A49" stroke-width="3"/>
<rect x="329.5" y="1489.5" width="16" height="24" fill="#221C16" stroke="#7E5A49" stroke-width="3"/>
<rect x="283.5" y="1485.5" width="16" height="24" fill="#221C16" stroke="#7E5A49" stroke-width="3"/>
<rect x="247.5" y="1485.5" width="16" height="24" fill="#221C16" stroke="#7E5A49" stroke-width="3"/>
<rect x="264.5" y="1389.5" width="16" height="24" fill="#221C16" stroke="#7E5A49" stroke-width="3"/>
<rect x="421.5" y="1489.5" width="16" height="24" fill="#221C16" stroke="#7E5A49" stroke-width="3"/>
<rect x="467.5" y="1489.5" width="16" height="24" fill="#221C16" stroke="#7E5A49" stroke-width="3"/>
<rect x="515.5" y="1492.5" width="16" height="24" fill="#221C16" stroke="#7E5A49" stroke-width="3"/>
<rect x="551.5" y="1492.5" width="16" height="24" fill="#221C16" stroke="#7E5A49" stroke-width="3"/>
<rect x="595.5" y="1492.5" width="16" height="24" fill="#221C16" stroke="#7E5A49" stroke-width="3"/>
<rect x="637.5" y="1492.5" width="16" height="24" fill="#221C16" stroke="#7E5A49" stroke-width="3"/>
<rect x="681.5" y="1492.5" width="16" height="24" fill="#221C16" stroke="#7E5A49" stroke-width="3"/>
<rect x="717.627" y="1493.69" width="12" height="24" transform="rotate(-5.0874 717.627 1493.69)" fill="#221C16" stroke="#7E5A49" stroke-width="3"/>
<path d="M998.5 1811.5L5 2063H-3V2160H1728L1652.5 1850.5H1629.5V1821.5L1520.5 1828L1502.5 1814.5L1474 1811.5L1421 1800.5H1366.5C1356.83 1798 1336.3 1793 1331.5 1793C1326.7 1793 1291.17 1790.67 1274 1789.5C1251.17 1787.33 1205 1783 1203 1783C1201 1783 1182.5 1766.33 1173.5 1758L1175 1639H1089.5L1010 1724H799.5V1758H901.5L922 1764L926 1777L914.5 1786L998.5 1789.5V1811.5Z" fill="#575B5F"/>
<path d="M1010 1724H984V1709H1004.5L1088 1627L1089.5 1639L1010 1724Z" fill="#37393C"/>
<path d="M1004 1710.5H985.5V1701.72H995L1076 1627.5H1087.5L1004 1710.5Z" fill="#43464A"/>
<path d="M1020 1627H1080L995 1702H985L967 1724H799.5V1712H837H854V1699.5H871.5V1691.5H878.5L985 1655L1020 1627Z" fill="#262626"/>
<path d="M966.5 1756L971.5 1396.5C1066 1264.5 1179.5 1381.5 1182 1402.5C1100.4 1312.1 1013.33 1365.5 982.5 1405L986 1730.5L966.5 1756Z" fill="#4B3124"/>
<path d="M887 1302L876 1751L966.5 1756.5C968.833 1671.5 971.4 1476.1 973 1396.5C1033 1301.5 1134.5 1326 1182.5 1402L1169.5 1762H1263.5V1302C1266.3 1292.8 1255 1282.17 1249 1278H887V1302Z" fill="#8A604D"/>
<rect x="916" y="1380" width="19" height="85" fill="#221C16"/>
<rect x="1214" y="1393" width="19" height="85" fill="#221C16"/>
<path d="M0.5 1991L-2.5 2066L999 1812.5V1789.5L926 1786.5V1777.5L923.5 1764.5L903 1758L890 1756.5L898 1764.5L883 1767.5L799 1763L797 1786.5L948.5 1792L0.5 1991Z" fill="#37393C"/>
<path d="M-1 2017L-4.5 1994L949 1787.5L1000.5 1790L-1 2017Z" fill="#43464A"/>
<path d="M-3 1994V1892.5V1885L797.5 1785L947.5 1792L-3 1994Z" fill="#262626"/>
<path d="M890 1756.5H800.5L799 1765.5L886.5 1769.5L901.5 1763L890 1756.5Z" fill="#43464A"/>
<path d="M1262.5 1700V1669V1650.5L1375 1754.5L1391 1766.5L1417 1770L1421.5 1792H1380.5L1372 1780L1345.5 1770L1315 1774.5C1306.67 1773.17 1289.1 1770.4 1285.5 1770C1281.9 1769.6 1284 1741.17 1285.5 1727L1262.5 1700Z" fill="#262626"/>
<path d="M1838.5 2160.5H1752L1743 2156.5L1655 1843.5H1631.5V1818L1517.5 1824.5L1497.5 1807.5L1417 1794L1405.5 1760L1669 1766.5V1794L1843 1901.5L1838.5 2160.5Z" fill="#262626"/>
<path d="M1263 1726V1699L1285.5 1726H1263Z" fill="#43464A"/>
<path d="M1263 1757.5V1725.5H1286.5V1768L1345.5 1769.5L1373.5 1780L1381 1788.5H1420.5V1803H1368L1334.5 1794L1204.5 1787L1168 1761V1757.5H1263Z" fill="#37393C"/>
<path d="M1751 2159.5H1727L1650.5 1854H1627V1823L1518 1830.5L1500 1817L1420 1802L1414 1788L1502.5 1802L1524.5 1820L1638 1813.5V1830.5H1655.5L1751 2159.5Z" fill="#37393C"/>
<path d="M1343.5 1776.5H1285.5V1765H1346.5L1379 1776.5L1383 1783.5L1417.5 1782L1504.5 1795L1527 1813.5L1645 1808.5V1824.5H1661L1761.5 2160H1742.5L1651.5 1838H1631.5V1817.5L1521 1824.5L1500 1808.5L1417.5 1793H1372.5L1365.5 1785.5L1343.5 1776.5Z" fill="#43464A"/>
<path d="M1207.5 1776L1189.5 1761.5H1287V1776H1207.5Z" fill="#43464A"/>
<rect x="-3" width="1924" height="2160" fill="url(#paint1_linear_62_2)" fill-opacity="0.6"/>
</g>
<defs>
<linearGradient id="paint0_linear_62_2" x1="959" y1="0" x2="959" y2="2160" gradientUnits="userSpaceOnUse">
<stop stop-color="#D37E08"/>
<stop offset="1" stop-color="#980A0A"/>
</linearGradient>
<linearGradient id="paint1_linear_62_2" x1="959" y1="2160" x2="959" y2="0" gradientUnits="userSpaceOnUse">
<stop stop-color="#281C17"/>
<stop offset="0.899131" stop-color="#980A0A"/>
</linearGradient>
<clipPath id="clip0_62_2">
<rect width="1920" height="2159" fill="white"/>
</clipPath>
</defs>
</svg>
