<svg width="1280" height="1031" viewBox="0 0 1280 1031" fill="none" xmlns="http://www.w3.org/2000/svg">
<path fill-rule="evenodd" clip-rule="evenodd" d="M711.699 715.384H1122.76V871.251H699.211V734.989L680.181 708.227H631.416L631.406 708.241H631.358L611.765 734.935L611.791 752.148V871.251H215.202V715.384H595.368L619.699 691.053H689.649L711.699 715.384Z" fill="#C99A8A"/>
<path d="M467.443 739.24L453.419 732.684L445.668 736.691L437.18 730.499L430.905 727.949L418.726 743.611L407.285 739.24H391.415L382.188 747.253L358.937 739.24L347.865 743.611L331.257 734.869L322.03 720.3L327.566 712.651L333.84 700.267L317.601 684.241V658.38L327.566 643.447L350.817 636.162L341.959 624.506L353.401 611.03H378.497L396.213 620.5L409.868 611.03L441.239 620.5L467.443 624.506L482.944 636.162L505.827 624.506L539.043 639.076L532.769 658.38L543.841 674.042V691.525L528.709 694.075L515.422 698.082L513.208 714.472L499.183 720.3L496.6 734.869H479.992L467.443 739.24Z" fill="#8D9C7B"/>
<path d="M428.283 761.486L454.135 732.935L463.752 728.313L472.979 715.565L484.91 708.644V698.81L497.22 687.883L481.099 695.881V706.459L469.288 712.89L461.169 726.128H449.728L454.135 708.644V691.161L449.728 687.883V703.545L446.133 720.664L442.715 728.313L431.274 741.061L419.464 722.485V708.644H415.404V722.485L422.127 737.795L415.404 741.061L405.07 722.485V695.881L410.606 683.148L408.586 676.443L405.07 673.678L398.058 658.38L401.2 673.678L408.586 678.413L401.2 694.075V722.485L408.586 741.061L405.07 743.611L395.474 723.942L389.505 706.459V687.883V651.824L375.964 637.255L384.581 651.824V670.764V687.883L373.909 683.148L375.964 687.883L384.581 691.161L382.557 706.459L369.193 695.881L353.19 676.443L365.5 700.741L384.581 712.89L392.583 737.795L401.2 771.205V834.987L392.583 864.145L384.581 873.257L369.193 875.686L358.729 881.761H375.964L389.505 878.116L401.2 875.686L408.586 881.761L413.51 892.695V901.199H417.819L422.127 892.695L428.283 886.621V875.686L435.053 873.257C441.414 874.876 454.135 878.845 454.135 881.761C454.135 884.677 468.496 882.976 475.677 881.761L497.22 878.116H507.684L484.91 873.257H465.829L446.133 867.182L435.053 851.996L428.283 761.486Z" fill="#AF8A75"/>
<path d="M326.935 701.896L309.318 698.442H301.638L283.119 687.216L277.247 670.809L286.733 653.539L298.929 644.904L292.604 622.452L295.767 601.728L309.318 594.82V586.185L326.935 556.825L355.392 550.349H363.523V542.145L398.304 530.92L421.341 538.691L440.313 542.145L447.54 524.875L485.935 530.92L503.552 556.825L511.683 579.277H543.302L572.211 612.091L583.052 628.066L572.211 653.539L557.305 662.174V684.626L549.174 687.216L543.302 704.055H530.654L528.847 719.167L518.458 726.075L508.972 714.849H496.776L494.518 701.896L481.87 694.988L477.805 704.055L469.222 701.896L456.123 698.442L447.54 714.849L433.537 708.804L420.069 712.556L408.081 704.055L415.921 670.809H405.08L386.56 662.174L377.074 670.809L368.943 687.216L359.006 684.626L346.358 704.055L326.935 701.896Z" fill="#99AB83"/>
<path d="M0 388.711L270.273 587.511V899.215L0 981.849V388.711Z" fill="#E3DFD4"/>
<path d="M352.618 630.509L356.663 566.944L-1.61182 256.631V410.921L352.618 630.509Z" fill="#C3957A"/>
<path d="M353.897 610.682L352.775 630.719L-0.456055 413.232V365.847L353.897 610.682Z" fill="#FFF2CF"/>
<path d="M389.602 574.456L357.242 568.677L-0.456055 259.52V163.017L389.602 574.456Z" fill="#7D6D64"/>
<path d="M223.122 630.913H353.483L-1.09082 414.058V553.149L223.122 630.913Z" fill="#C8BD9F"/>
<path d="M-0.456055 163.595L387.869 573.3L391.392 572.727L388.806 569.622H387.046V568.07L383.942 564.241H382.079V561.551L378.107 557.307H375.45V553.854L370.403 548.275H367.216V544.822L360.575 537.65H357.388V534.728L350.747 527.556H347.825V523.572L340.387 516.134H336.403V512.15L328.965 504.978H326.309V501.525L318.871 493.821H316.481V490.634L305.59 479.212H302.137V474.696L291.511 464.336H287.793V459.821L279.558 451.586H275.308V446.273L264.417 435.117H259.333V429.891L248.873 419.07H244.545V415.103L231.561 401.398H227.954V396.348L215.691 382.643H209.921V376.872L190.444 354.871H183.952V349.461L163.394 327.099H156.541V320.607L134.18 297.164H129.13V290.311L103.162 261.457H95.2273V252.801L67.732 224.27H61.3755V216.18L35.9495 190.177H30.1709V182.086L-0.456055 150.882V163.595Z" fill="#B48164"/>
<path d="M290.409 808.306L299.057 804.898H345.062L353.298 808.306V937.604H290.409V808.306Z" fill="#C3957A"/>
<path d="M296.68 942.684L290.622 938.003L294.173 934.135H347.653L353.502 938.003L347.653 942.684L330.523 946.551H319.451L296.68 942.684Z" fill="#C3957A"/>
<path d="M340.607 623.396L345.04 628.366L345.038 628.369H345.04V804.975H299.036V628.369H299.039L299.036 628.366L303.315 623.396L315.849 619.289H323.948L340.607 623.396Z" fill="#FFF4E5"/>
<path d="M71.8135 806.266L83.9363 800.727H148.426L159.971 806.266V1016.39H71.8135V806.266Z" fill="#C3957A"/>
<path d="M80.6044 1024.65L72.1123 1017.04L77.0904 1010.76H152.058L160.257 1017.04L152.058 1024.65L128.045 1030.93H112.524L80.6044 1024.65Z" fill="#C3957A"/>
<path d="M142.182 505.761L148.395 513.839L148.392 513.844H148.395V800.852H83.9072V513.844H83.9111L83.9072 513.839L89.9062 505.761L107.474 499.087H118.829L142.182 505.761Z" fill="#FFF4E5"/>
<path d="M984.681 885.687L1280.62 953.875V563.232L977.924 683.675L984.681 885.687Z" fill="#F9F4E6"/>
<path d="M878.469 694.954L1279.76 506.354V476.799L878.469 679.742V694.954Z" fill="#EBD8A2"/>
<path d="M977.974 695.454L878.569 694.926L1280.5 505.443V578.615L977.974 695.454Z" fill="#C0B083"/>
<rect width="46.9494" height="197.16" transform="matrix(0.999807 -0.0196384 0.0172079 0.999852 1033.73 651.307)" fill="#E7E1D8"/>
<rect width="38.0468" height="144.727" transform="matrix(0.999842 -0.0177883 0.0189977 0.99982 932.736 689.578)" fill="#E7E1D8"/>
<rect width="58.7856" height="279.362" transform="matrix(0.999753 -0.0222242 0.0152054 0.999884 1193.97 583.486)" fill="#E7E1D8"/>
<path d="M1033.66 651.386L1037.01 654.342L1075.91 652.778L1080.67 650.462L1075.81 646.507L1070.25 642.934L1058.12 641.572L1048.23 643.366L1036.08 647.961L1033.66 651.386Z" fill="#E7E1D8"/>
<path d="M932.678 689.636L935.399 691.806L966.926 690.658L970.778 688.958L966.838 686.055L962.338 683.432L952.502 682.432L944.489 683.749L934.64 687.122L932.678 689.636Z" fill="#E7E1D8"/>
<path d="M1193.88 583.598L1198.09 587.788L1246.79 585.571L1252.74 582.29L1246.66 576.686L1239.7 571.622L1224.51 569.693L1212.13 572.235L1196.91 578.745L1193.88 583.598Z" fill="#E7E1D8"/>
<path d="M1028.14 848.023L1035.61 845.972H1082.21L1089.49 848.023V960.138H1028.14V848.023Z" fill="#BA9972"/>
<path d="M928.21 833.943L934.259 832.281H972.03L977.924 833.943V924.802H928.21V833.943Z" fill="#BA9972"/>
<path d="M1186.98 862.297L1196.32 859.728H1254.68L1263.78 862.297V1002.67H1186.98V862.297Z" fill="#BA9972"/>
<path d="M1028.31 960.039L1032.48 955.212C1049.94 955.529 1085.05 956.261 1085.83 956.648C1086.6 957.036 1088.57 959.07 1089.46 960.039L1081.83 963.672L1067.42 967.063L1058.1 968.031L1048.65 967.063L1033.52 963.672L1028.31 960.039Z" fill="#BA9972"/>
<path d="M928.345 924.722L931.729 920.81C945.878 921.067 974.332 921.66 974.96 921.974C975.588 922.288 977.185 923.937 977.904 924.722L971.722 927.666L960.043 930.414L952.487 931.199L944.832 930.414L932.565 927.666L928.345 924.722Z" fill="#BA9972"/>
<path d="M1187.19 1002.54L1192.42 996.501C1214.27 996.898 1258.24 997.814 1259.21 998.3C1260.18 998.785 1262.64 1001.33 1263.75 1002.54L1254.2 1007.09L1236.16 1011.34L1224.49 1012.55L1212.66 1011.34L1193.71 1007.09L1187.19 1002.54Z" fill="#BA9972"/>
<path d="M1280.23 50.6617L863.013 496.038L860.13 494.276L1280.23 21.3301V50.6617Z" fill="#7D6D64"/>
<path d="M1065.26 566.326L973.221 615.755L964.699 437.639L1058.02 366.478L1065.26 566.326Z" fill="#DCD9D0"/>
<path d="M1280.24 21.4358L860.686 494.005V492.818L882.142 467.879H882.83V467.191L885.155 464.538L885.876 464.276V463.425L888.299 460.674L889.184 460.477V459.298L892.462 455.447L893.515 455.014V453.713L896.327 450.067H898.113V448.479L900.891 445.404L902.776 444.908V443.717L906.546 439.153H908.034V437.268L912.856 432.097L914.563 431.177V429.864L920.08 423.296H921.657V421.325L927.437 414.626L928.75 413.969V412.393L936.632 403.329H938.339V400.308L947.38 390.096H949.94V387.169L961.28 373.634H964.207V369.611L981.766 347.845L985.607 346.565V342.175L1007.6 316.98H1012.29V311.998L1035.15 286.21H1040.72V279.763L1068.54 248.062L1074.77 244.948V238.201L1110.06 197.716H1117.33V187.855L1162.49 133.876H1172.35V123.495L1219 72.2693H1228.18V58.1829L1280.24 0V21.4358Z" fill="#C3957A"/>
<path d="M871.909 494.699L871.135 487.304L1280.06 50.7424L1280.92 477.919L1053.94 591.629L1046.48 313.441L871.909 494.699Z" fill="#FFF9EA"/>
<path d="M879.27 661.083V680.735L1054 591.668L1053.38 564.719L879.27 661.083Z" fill="#FFF9EA"/>
<path d="M965.293 443.612L871.855 493.159L1046.95 313.104L1048.77 378.066L965.293 443.612Z" fill="#C3BEB3"/>
<path d="M980.353 605.063L968.841 440.667L964.41 440.904L977.764 606.636L980.353 605.063Z" fill="#908077"/>
<path d="M973.077 609.578L977.773 606.635L964.416 440.901L960.202 445.648L973.077 609.578Z" fill="#B19C91"/>
<path d="M1153.65 378.094L1112.96 409.896V324.78L1153.65 285.028V378.094Z" fill="#ACABA6"/>
<path d="M1118.53 405.404L1112.49 409.896L1108.28 322.91L1153.66 282.435V288.49L1113.19 324.956L1118.53 405.404Z" fill="#D7D1C4"/>
<path d="M879.487 660.956L871.884 493.13L876.72 488.063L885.406 657.721L879.487 660.956Z" fill="#D4BEB2"/>
<path d="M933.263 430.003L943.433 625.54L950.274 621.823L940.324 422.746L933.263 430.003Z" fill="#D4BEB2"/>
<path d="M887.323 656.674L885.405 657.781L876.721 488.09L879.1 489.457L887.323 656.674Z" fill="#B19C91"/>
<path d="M952.725 620.518L950.28 621.842L940.295 422.746L943.116 423.668L952.725 620.518Z" fill="#B19C91"/>
<path d="M874.585 598.068V605.269L1050.88 477.813L1050.77 465.051L874.585 598.068Z" fill="#D4BEB2"/>
<path d="M876.767 605.372L874.577 605.207L1050.89 477.807L1050.99 481.161L876.767 605.372Z" fill="#B19C91"/>
</svg>
