<svg width="1280" height="962" viewBox="0 0 1280 962" fill="none" xmlns="http://www.w3.org/2000/svg">
<path d="M1100.66 637.466V587.579L1137.99 613.679V621.278L1100.66 637.466Z" fill="#A3A3A3"/>
<path d="M1096.1 637.425H1100.82V587.684H1096.1V637.425Z" fill="#A09899"/>
<path d="M1100.71 587.7L1137.88 613.522L1101.37 586.137L1096.1 584.822V587.827L1100.71 587.7Z" fill="#B5A8A5"/>
<path d="M1072.91 564.783V646.717L1096.36 638.457V580.311L1072.91 564.783Z" fill="#B8B4B1"/>
<path d="M1096.65 580.472L1097.64 579.481L1073.85 562.377L1046.33 548.124V550.479L1072.85 564.856L1096.65 580.472Z" fill="#B1958B"/>
<path d="M1072.98 564.732V647.028H1046.21V550.107L1072.98 564.732Z" fill="#A09899"/>
<path d="M865.53 704.767L879.702 706.41V479.289L848.483 489.055V600.755H866.349L865.53 704.767Z" fill="#A6A0A0"/>
<path d="M1046.47 653.89L879.724 706.357V478.523L940.096 513.74V461.993L1046.47 540.333V653.89Z" fill="#B4ABAB"/>
<path d="M908.244 612.702V579.936L920.18 581.808V612.702H908.244Z" fill="#857F7F"/>
<path d="M912.488 585.962L912.691 612.702H920.18V581.806L912.488 585.962Z" fill="#A6A0A0"/>
<path d="M908.325 586.021H912.457L920.229 581.826L908.325 579.862V586.021Z" fill="#9C928F"/>
<path d="M866.344 670.408L848.653 674.265H846.361V600.797L866.344 600.797V670.408Z" fill="#8D8383"/>
<path d="M928.781 559.4V555.337L848.483 531.324V540.19L928.781 559.4Z" fill="#C0B9B9"/>
<path d="M852.736 534.297H848.483V514.637L882.031 526.573L932.116 557.233L925.974 555.595L921.721 552.786H916.996H912.507L909.672 549.51H906.601L900.931 547.169H896.679L892.426 544.829H887.937L885.575 542.956H882.031L878.251 540.85H872.581L869.51 537.807H864.076L860.532 536.169H855.807L852.736 534.297Z" fill="#9E7B5E"/>
<path d="M940.238 510.794V462.198L877.454 433.464L876.087 475.82L940.238 510.794Z" fill="#A6A0A0"/>
<path d="M952.882 532.864V488.484L1040.15 547.768V576.581L952.882 532.864Z" fill="#857F7F"/>
<path d="M1035.18 550.417L1040.15 547.768V576.581L1035.18 574.097V550.417Z" fill="#A6A0A0"/>
<path d="M1035.35 550.086L1040.48 547.767L952.882 488.649V496.267L1035.35 550.086Z" fill="#9C928F"/>
<path d="M940.975 507.859V514.936L879.423 479.349L876.101 480.588V472.295H878.055L879.423 475.617L883.136 474.054L885.48 476.985H889.975L891.538 481.088H896.228L898.182 483.824H902.48L904.239 487.341H907.366L909.71 490.468H914.595L916.159 493.985H919.676L921.435 497.307H924.756L926.71 500.433H930.228L932.377 503.364H934.917L938.044 505.905L940.975 507.859Z" fill="#9E7B5E"/>
<path d="M1053.32 546.681L1046.59 547.989V540.326L940.237 463.319L877.514 433.465L877.514 426.124L943.041 456.591V460.329L947.527 459.02L950.891 463.319L952.2 465.749H957.433L959.302 469.861L963.414 470.983L964.909 476.029H969.395L971.638 480.702H975.376L977.619 485.748H980.61L983.974 490.421H988.46L990.89 497.337H995.002L998.553 500.701L1002.48 501.823C1003.41 503.442 1005.39 506.944 1005.84 507.991C1006.29 509.037 1008.27 508.427 1009.21 507.991L1010.7 512.663H1015L1017.62 517.149C1019.11 517.523 1022.22 518.42 1022.66 519.018C1023.11 519.616 1024.22 521.884 1024.72 522.943L1031.45 524.812L1032.94 528.737L1038.18 530.046L1039.67 532.849L1045.09 534.905V537.335L1051.82 541.821L1053.32 546.681Z" fill="#9E7B5E"/>
<path d="M677.232 766.164V449.724L848.637 511.506V719.417L677.232 766.164Z" fill="#C0B9B9"/>
<path d="M677.542 549.149V555.043L720.81 581.051L881.029 592.087L847.105 570.424H841.791H827.691L818.29 567.972L812.977 566.95H809.502L805.62 565.52H804.598H798.058L794.584 564.498L790.088 563.067H786.614L783.549 561.228L778.644 563.067H775.374L772.104 561.228L767.813 559.593H764.747L763.726 557.345H758.617L755.347 559.593L752.077 557.345H748.194H744.107L738.793 555.043H735.524H732.05L727.758 553.258H725.101L719.379 551.419L715.701 553.258L714.679 551.419H708.139H703.643L699.965 549.149H694.856L692.608 551.419L689.338 549.149H677.542Z" fill="#9E7B5E"/>
<path d="M726.51 584.547L677.215 586.021V555.047L719.884 580.582L880.641 592.042V593.828L726.51 584.547Z" fill="#A39C9C"/>
<path d="M875.36 499.753L878.91 390.299L727.756 259.132L727.954 434.544L875.36 499.753Z" fill="#C0B9B9"/>
<path d="M740.249 246.64L727.756 259.132L879.081 390.539L886.729 384.736L740.249 246.64Z" fill="#9C928F"/>
<path d="M886.858 384.758L740.667 247.533L607.154 218.489V209.198L733.144 236.211H744.692L747.785 246.109H754.59V253.326H763.869V259.512L769.436 260.543V265.492H776.035V272.709H782.221L785.108 281.369L791.5 280.338V288.586L795.83 287.349L797.686 293.741H803.253L805.728 301.371H811.914L813.77 307.351H818.925V314.568L823.668 312.712L825.317 320.754L830.06 319.517L831.297 324.672H835.834V330.446L841.195 331.477V336.013H846.762L848.618 341.993H852.33L854.804 347.767H859.134L861.609 355.19L865.114 353.747L866.352 359.314H871.3L873.569 365.913H877.487L878.724 370.655H882.229V375.402H886.858L888.807 384.758H886.858Z" fill="#B28575"/>
<path d="M805.939 413.34V359.938L822.246 371.586V423.554L805.939 413.34Z" fill="#857F7F"/>
<path d="M813.107 374.453V417.999L822.246 423.554V372.124L813.107 374.453Z" fill="#A6A0A0"/>
<path d="M805.939 370.511L813.107 374.453L822.426 371.586L805.939 360.476V370.511Z" fill="#9C928F"/>
<path d="M875.362 499.738L848.989 511.657L677.197 449.935L728.059 434.607L875.362 499.738Z" fill="#9C928F"/>
<path d="M498.804 730.074L677.765 766.729L677.226 449.951L727.971 434.659V258.839L740.309 246.738L608.049 218.348L510.303 294.532L498.804 730.074Z" fill="#A6A0A0"/>
<path d="M607.54 209.156V219.268L483.613 315.681L483.613 304.393L607.54 209.156Z" fill="#B28575"/>
<path d="M677.669 678.101V766.604L498.765 730.064L500.189 663.153L677.669 678.101Z" fill="#997D7D"/>
<path d="M183.394 899.213L-2.39502 961.542V34.9956L514.218 285.511L499.834 805.719L389.559 834.486V598.355L183.394 591.163V899.213Z" fill="#C0B9B9"/>
<path d="M227.865 390.823L231.548 198.922L341.205 244.749V419.465L227.865 390.823Z" fill="#7D6F6F"/>
<path d="M231.582 198.907L341.367 246.386L364.219 238.657L231.582 171.232V198.907Z" fill="#978C8C"/>
<path d="M360.846 423.556C362.483 363.272 364.119 244.192 364.119 238.611L341.206 246.386V419.055L360.846 423.556Z" fill="#A89F9F"/>
<path d="M181.682 260.186V265.54L580.516 407.144V405.054L181.682 260.186Z" fill="#8A7268"/>
<path d="M162.958 258.619L49.0469 303.674H60.8515L162.958 265.003V258.619Z" fill="#8A7268"/>
<path d="M374.878 831.108L389.895 835.132L389.382 598.134H374.878V831.108Z" fill="#A89F9F"/>
<path d="M183.705 884.958C183.846 787.765 184.042 592.964 183.705 591.295L384.446 598.386V833.65L379.385 836.987L372.216 840.324L363.781 836.987L359.142 840.324L354.081 846.581H346.912H334.682C331.983 846.581 327.653 850.197 325.826 852.004L321.609 857.844H314.861H303.053C301.029 857.844 298.555 860.347 297.57 861.598L288.293 869.941C284.778 869.941 277.075 869.44 274.376 867.438C271.677 865.436 268.19 868.272 266.785 869.941L260.881 877.032H249.072H236.842C235.155 877.032 234.734 879.535 234.734 880.786L222.082 884.958L211.539 882.872L206.478 889.129H194.67L183.705 884.958Z" fill="#866767"/>
<path d="M209.857 885.231L203.587 600.572V591.958H208.841L216.709 883.089H211.356L209.857 885.231Z" fill="#775C5C"/>
<path d="M236.077 877.35L234.541 880.57L228.12 592.783L233.257 592.783L244.348 877.35H236.077Z" fill="#775C5C"/>
<path d="M265.363 871.931L262.115 602.473L262.115 593.717L269.216 593.717L276.922 868.195L269.884 866.901L265.363 871.931Z" fill="#775C5C"/>
<path d="M296.406 862.956L293.463 610.622L292.95 595.216L298.405 595.216L308.682 857.478H302.392L296.406 862.956Z" fill="#775C5C"/>
<path d="M328.852 849.563L325.49 616.944L325.49 596.32L331.094 596.32L337.934 846.773H332.58L328.852 849.563Z" fill="#775C5C"/>
<path d="M358.145 841.867L354.334 604.465L354.334 597.217L361.358 597.216L366.813 838.205L364.123 837.01L358.145 841.867Z" fill="#775C5C"/>
<path d="M513.57 277.344V270.704L-1.02344 6.27648V0H22.1518L55.9491 22.2096L74.2962 27.038L97.4715 44.9021L117.267 48.2819L139.96 66.1462L161.686 71.9401L180.516 89.3215L205.623 97.0466L223.004 113.462L249.559 122.153L270.803 138.086L291.565 141.949L314.257 156.916L331.639 161.261L346.123 178.16H352.4L372.678 191.679L383.783 194.093L398.268 206.164L412.752 209.543L426.271 219.683L438.342 222.579L456.62 237.249L465.302 238.781L477.305 248.741L486.754 251.295L496.459 259.723H504.631L516.634 265.597L517.911 272.747L513.57 277.344Z" fill="#CB9582"/>
<path d="M513.221 270.852V284.526L-1.53809 37.5416V4.27832L513.221 270.852Z" fill="#948686"/>
<path d="M527.752 196.04L519.885 202.596L247.168 36.0815L150.973 75.6441L139.177 66.3649L247.168 19.6924L261.591 31.4923L276.013 44.6038H287.813L302.236 56.404H316.003L327.148 71.4821H340.914L350.748 85.2489H365.826L373.693 98.3604L390.082 102.294L399.916 118.683H416.305L429.416 136.383H443.183L453.672 150.806H470.062L483.173 166.539H498.251L506.773 182.273L519.885 187.518L527.752 196.04Z" fill="#CB9582"/>
<path d="M235.25 56.9158V40.6506L116.655 89.6944V103.553L235.25 56.9158Z" fill="#B19589"/>
<path d="M406.618 247.03L401.291 245.47L502.669 212.492V216.76L406.618 247.03Z" fill="#8A7268"/>
<path d="M401.622 237.523L503.098 204.681L243.122 59.7666L128.095 105.169L401.622 237.523Z" fill="#69544D"/>
<path d="M401.468 245.639L502.642 212.492L502.891 204.649L401.468 237.561L401.468 245.639Z" fill="#B19589"/>
<path d="M50.4653 436.453L51.0927 409.798L172.336 375.077L172.336 403.24L50.4653 436.453Z" fill="#B19589"/>
<path d="M588.128 498.252L588.864 481.161L172.368 375.326V403.333L588.128 498.252Z" fill="#9A8680"/>
<path d="M500.068 520.813L587.868 498.155L172.237 403.276L50.4512 436.554L500.068 520.813Z" fill="#8A7268"/>
<path d="M162.955 377.905C163.129 333.753 162.8 243.703 162.8 239.391L172.444 234.093V375.194L162.955 377.905Z" fill="#B19589"/>
<path d="M513.75 463.551L517.88 197.18L247.856 34.5654L245.659 394.714L258.657 397.122V57.9676L508.879 200.78L502.278 461.202L513.75 463.551Z" fill="#9A8680"/>
<path d="M181.889 378.56L172.434 375.368V234.063L588.753 396.098V481.14L580.313 479.063V404.926L181.612 260.286L181.889 378.56Z" fill="#9A8680"/>
<path d="M502.886 204.624L508.961 200.839L258.553 57.8171L258.77 70.27L502.886 204.624Z" fill="#8A7268"/>
<path d="M502.328 459.153L508.864 200.839L502.828 204.649L496.266 457.616L502.328 459.153Z" fill="#B19589"/>
<path d="M235.368 391.401V40.913L247.939 34.7156L245.789 393.885L235.368 391.401Z" fill="#B19589"/>
<path d="M162.923 239.428L49.0107 291.651V303.726L162.923 258.922V239.428Z" fill="#B19589"/>
<path d="M128.097 105.345L117.159 103.639L235.33 56.8552V63.1372L128.097 105.345Z" fill="#8A7268"/>
<path d="M576.849 478.049V405.881L580.338 407.072V479.009L576.849 478.049Z" fill="#B19589"/>
<path d="M1280.06 837.929L1262.26 838.293V455.442L1216.93 458.232L1223.04 279.671L1280.06 242.432V837.929Z" fill="#AEA29E"/>
<path d="M1262.19 838.459L1148.26 633.634V616.24L1262.19 455.347V838.459Z" fill="#CAC2C0"/>
<path d="M1169.43 487.656L1178.5 482.072L1201.09 541.626L1172.05 582.728H1160.48L1158.76 521.568L1166.87 513.713L1169.43 487.656Z" fill="#BAAFAA"/>
<path d="M1216.97 457.956L1223.06 279.67L1177.83 416.211V542.316L1216.97 457.956Z" fill="#C4B9B5"/>
<path d="M1160.36 582.758L1158.63 521.315L1146.57 566.68V605.44L1160.36 582.758Z" fill="#C4B9B5"/>
<path d="M1216.87 458.158L1262.23 455.435L1200.65 542.299H1177.82L1216.87 458.158Z" fill="#B4A7A4"/>
<path d="M1171.96 582.629H1160.37L1146.56 605.441L1155.41 606.227L1171.96 582.629Z" fill="#B4A7A4"/>
<path d="M1178.2 478.989V482.435L1169.83 487.48L1166.88 513.2L1159 521.568L1146.33 566.731L1144.73 565.377L1155.56 520.091L1164.79 511.477L1167.99 485.634L1178.2 478.989Z" fill="#CB9582"/>
</svg>
