<svg width="1280" height="2568" viewBox="0 0 1280 2568" fill="none" xmlns="http://www.w3.org/2000/svg">
<path d="M2.04932 278.632L2.04932 -0.000282288L1280.68 -0.000282288V626.234L1213.39 595.887L1156.86 543.471L1086.87 595.887L1000.73 595.887L928.05 543.471L769.23 686.926L615.794 626.234L596.951 543.471L421.98 446.915L257.776 480.02L179.712 446.915L88.1891 342.083L2.04932 278.632Z" fill="#464646"/>
<path d="M1155.47 1324.91L1287.75 1300.26V921.299H1173.51L978.1 979.838L896.93 1044.54L695.51 979.838L569.246 1019.89L509.121 1103.08L455.008 1044.54L328.744 979.838L259.6 945.947V831.951L178.43 791.899L100.268 758.008L64.1921 647.094H-1.9458L-1.9458 1044.54H64.1921L100.268 1127.72C136.343 1126.7 212.101 1125.26 226.531 1127.72C244.569 1130.81 316.719 1198.59 328.744 1207.83C338.364 1215.22 368.828 1258.15 382.858 1278.69L548.202 1349.55H695.51L734.591 1300.26L827.786 1278.69H923.987L1074.3 1377.28L1155.47 1324.91Z" fill="#595959"/>
<path d="M184.443 899.099L136.343 806.67L55.1732 720.403H7.07275L7.07275 501.655L112.292 550.95L244.569 603.327L461.02 671.108L602.315 745.051L734.591 769.699L842.817 745.051L1032.21 769.699L1083.32 865.209L1218.6 942.233L1251.67 997.69L1290.75 1065.47V1179.47L1230.63 1139.41L1179.52 1090.12L1032.21 1065.47L978.1 1114.77L881.899 1139.41L785.698 1114.77L689.497 1065.47L602.315 1090.12L536.177 1139.41L461.02 1090.12L370.832 1065.47L310.707 1034.66L274.631 942.233L184.443 899.099Z" fill="#686868"/>
<path d="M1275.32 1834.33L1275.32 1286.29L1195.29 1249.01C1169.83 1261.44 1111.62 1286.29 1082.52 1286.29C1053.42 1286.29 1036.44 1308.66 1031.59 1319.84L995.216 1345.94L958.838 1319.84L907.91 1286.29L798.776 1249.01L733.296 1286.29L609.612 1319.84V1286.29L442.274 1249.01L347.693 1286.29L300.401 1140.89H216.733H143.977L89.4106 1021.59H2.104L2.104 1386.95L67.5839 1483.88L187.63 1550.99L300.401 1573.36C339.204 1578.33 421.903 1589.76 442.274 1595.73C462.646 1601.69 511.392 1660.35 533.219 1688.93L649.627 1711.3H798.776L937.011 1729.94L995.216 1797.05L1082.52 1797.05H1195.29L1275.32 1834.33Z" fill="#707070"/>
<path d="M6.20703 2068.37L6.20703 1676.66L86.1462 1725.31C106.964 1736.4 150.097 1760.64 156.093 1768.83C162.088 1777.02 173.579 1811.5 178.576 1827.71L251.02 1843.07L298.484 1891.72L410.898 1922.44L428.385 1909.64L558.286 1922.44L625.734 1965.96C630.731 1983.03 643.221 2020.24 653.213 2032.52C663.206 2044.81 705.673 2061.54 725.658 2068.37L830.578 2045.33L925.505 2045.33L1037.92 2068.37L1160.33 2032.52H1222.78L1290.23 2111.89L1275.24 2536.88L1240.27 2511.27C1217.78 2519.81 1170.32 2536.88 1160.33 2536.88C1150.33 2536.88 1117.86 2557.36 1102.87 2567.6C1092.05 2557.36 1067.9 2536.88 1057.9 2536.88H972.969H900.525L873.046 2511.27L845.566 2480.55H813.091L763.129 2444.71L725.658 2380.71L653.213 2342.3L610.746 2380.71H510.822H443.374L428.385 2326.94L375.925 2291.1L343.45 2250.14L208.553 2270.62L178.576 2227.1L118.621 2183.57L6.20703 2068.37Z" fill="#636060"/>
<path d="M101.666 1663.67L3.06006 1557.64L3.06006 1275.7L65.4434 1294.98L172.099 1352.82L172.099 1470.89L230.458 1497.4L306.928 1458.84H389.435L419.62 1540.77L500.115 1557.64L566.523 1641.98L598.721 1687.77H695.315L771.785 1663.67L791.908 1709.45L868.378 1687.77L1001.19 1728.73L1047.48 1779.34H1117.91H1178.28L1242.68 1805.84H1286.95L1286.95 2027.54L1242.68 1976.93L1178.28 2003.44H1117.91L1063.58 1976.93L1001.19 1923.92L930.762 1940.79L860.329 1923.92L771.785 1868.5L715.438 1805.84L630.919 1832.35H598.721L469.929 1805.84C449.806 1781.75 407.546 1732.59 399.497 1728.73C391.447 1724.88 316.989 1699.82 280.767 1687.77L194.235 1709.45L101.666 1663.67Z" fill="#686767"/>
<path d="M1228.38 2131.79H1291.08L1278.63 1955.98L1250.91 1890.8C1221.55 1887.46 1161.22 1880.78 1154.7 1880.78H1050.34L959.02 1828.97L839.982 1817.27L768.561 1828.97L732.359 1782.18L673.656 1760.45L536.682 1782.18L484.501 1792.2L455.048 1760.45L412.752 1722.13L341.004 1693.61L240.813 1678.56L190.984 1693.61L151.848 1643.47L-3.06348 1539.86L5.67783 1663.52L5.67783 1722.13C33.5458 1734.63 90.3267 1762.3 94.5068 1773.01C98.687 1783.72 127.6 1831.02 141.534 1853.33L162.435 1872.07L240.813 1909.56C299.162 1912.24 423.696 1919.73 455.048 1928.3C486.399 1936.87 548.231 2024.69 575.228 2067.53L768.561 2099.66L917.48 2067.53H1071.62L1228.38 2131.79Z" fill="#7A7676"/>
</svg>
