<svg width="987" height="780" viewBox="0 0 987 780" fill="none" xmlns="http://www.w3.org/2000/svg">
<path d="M307.02 600.768V480.493L406.087 486.6V600.768H307.02Z" fill="#FBE1C1"/>
<path d="M288.557 498.125L307.031 480.5L307.92 659.157L288.557 657.198V498.125Z" fill="#F1D7B7"/>
<path d="M568.736 687.61V574.215L795.766 579.972V687.61H568.736Z" fill="#FBE1C1"/>
<path d="M498.644 590.838L568.723 574.378L570.8 742.659L498.644 740.812V590.838Z" fill="#F1D7B7"/>
<path d="M487.02 573.935L479.8 580.387L361.121 573.935L337.205 578.236L333.595 566.623L358.414 561.892L487.02 566.623V573.935Z" fill="#D1A588"/>
<path d="M284.604 590.149L357.038 569.677L362.734 778.74L281.265 776.86L284.604 590.149Z" fill="#FFEFD1"/>
<path d="M478.914 779.967V571.519L356.996 569.524V779.967H478.914Z" fill="#F0DFC0"/>
<path d="M0 655.962H146.261L143.492 531.763L0 530.388V655.962Z" fill="#EEE7D5"/>
<path d="M263.398 448.128L293.407 432.342L288.311 428.025L269.768 427.215L252.498 421.143L232.256 424.786L218.525 416.286L190.639 417.77L172.096 412.508L141.237 439.763L263.398 448.128Z" fill="#87776D"/>
<path d="M292.465 434.377L296.597 432.899V428.221L288.135 424.775L275.147 426.252L263.929 422.066L253.5 419.112L241.692 420.589H231.852L224.177 414.927L212.96 412.218L202.137 413.695H190.329L183.048 410.003L180.096 406.063L163.762 413.695L104.626 460.8L111.845 465.861L172.624 417.555L183.048 420.589L191.51 423.298L200.562 422.066L209.418 420.589L218.864 422.066C222.865 424.118 231.065 428.221 231.852 428.221C232.64 428.221 241.758 426.908 246.219 426.252H253.5L260.584 428.221L273.966 431.422L280.854 432.899L292.465 434.377Z" fill="#B88E72"/>
<path d="M174.405 426.092L112.435 467.238L111.436 465.179L174.427 415.444L174.405 426.092Z" fill="#CBB6AA"/>
<path d="M212.386 429.047L181.671 453.724V442.07L212.409 418.399L212.386 429.047Z" fill="#CBB6AA"/>
<path d="M250.367 432.247L219.651 456.924V445.271L250.389 421.599L250.367 432.247Z" fill="#CBB6AA"/>
<path d="M285.296 438.379L254.58 463.056V451.403L285.318 427.731L285.296 438.379Z" fill="#CBB6AA"/>
<path d="M174.476 426.025L182.882 427.858L153.496 449.414L141.288 447.79L174.476 426.025Z" fill="#9F8E84"/>
<path d="M212.457 428.979L220.864 430.812L191.477 452.368H182.789L212.457 428.979Z" fill="#9F8E84"/>
<path d="M250.438 432.18L258.791 433.893L229.458 455.569H220.77L250.438 432.18Z" fill="#9F8E84"/>
<path d="M285.366 438.312L293.712 440.018L264.386 461.701H255.698L285.366 438.312Z" fill="#9F8E84"/>
<path d="M293.707 440.018L285.309 438.402V427.734L293.707 428.704V440.018Z" fill="#B19C90"/>
<path d="M182.817 427.731L174.419 426.115V415.447L182.817 416.417V427.731Z" fill="#B19C90"/>
<path d="M220.798 430.686L212.4 429.069V418.401L220.798 419.371V430.686Z" fill="#B19C90"/>
<path d="M258.778 433.886L250.381 432.27V421.602L258.778 422.572V433.886Z" fill="#B19C90"/>
<path d="M168.326 429.486L290.718 448.077V668.92L168.326 662.16V429.486Z" fill="#FFF9EA"/>
<path d="M114.377 465.892L168.336 429.508L169.677 618.092H104.145L114.377 465.892Z" fill="#F9EBDD"/>
<path d="M317.776 492.041L344.621 494.068V515.434L317.776 513.584V492.041Z" fill="#C2B19C"/>
<path d="M368.585 525.81L395.43 527.838V549.203L368.585 547.353V525.81Z" fill="#C2B19C"/>
<rect x="378.814" y="593.175" width="27.2727" height="39.4688" fill="#A89F8D"/>
<rect x="443.999" y="593.175" width="27.2727" height="39.4688" fill="#A89F8D"/>
<rect x="600.268" y="620.746" width="27.2727" height="38.4114" fill="#A89F8D"/>
<rect x="653.871" y="620.746" width="51.7751" height="22.8262" fill="#A89F8D"/>
<rect x="726.351" y="620.746" width="51.7751" height="22.8262" fill="#A89F8D"/>
<path d="M183.763 483.48V451.158L205.278 454.365V486.154L183.763 483.48Z" fill="#C7B8A5"/>
<path d="M258.779 512.012V481.482L280.294 482.897V514.687L258.779 512.012Z" fill="#C7B8A5"/>
<path d="M465.581 779.913H433.51V716.718H465.581V779.913Z" fill="#A89F8D"/>
<path d="M687.554 563.894L736.418 546.28L753.339 461.052L731.884 408.211L678.463 412.757L667.099 401.961L646.076 408.211H628.462L617.099 401.961V376.961L628.462 351.961L630.735 328.665L611.417 317.87L571.644 325.256L565.962 348.552L556.303 351.961L544.371 333.779L521.644 317.87L510.28 325.256V356.506V381.506L525.621 412.757L510.28 418.439L494.939 430.371L498.349 447.984L510.28 461.052H521.644V487.757C521.644 490.484 526.568 498.363 529.03 501.962L544.371 491.734L556.303 501.962L544.371 518.439L534.712 550.826L540.962 563.894H560.849L565.962 550.826H587.553L595.508 574.689L605.735 586.621L630.735 578.667C643.425 578.856 669.827 579.121 673.917 578.667C678.008 578.212 684.713 568.629 687.554 563.894Z" fill="#8D9C7B"/>
<path d="M720.387 411.755L769.013 352.368L868.582 256.028L975.097 139.892L986.674 105.579L975.097 75.2248V22.4356H943.538L917.399 30.8066L887.106 64.667L880.991 43.8761L837.115 30.8066L817.64 10.5578L808.378 0H792.169L738.912 22.4356L706.494 0H689.127L655.552 22.4356L612.714 10.5578L595.348 22.4356L575.666 38.2723V83.143L549.037 116.136H521.251L499.253 133.293L489.991 178.163L499.253 199.279V232.273L479.571 256.028L489.991 287.701L479.571 316.735L499.253 352.368L528.197 365.565L542.09 397.238H565.246C567.561 402.077 572.887 414.395 575.666 424.953C578.445 435.511 589.945 441.669 595.348 443.429L628.923 435.511H675.234L720.387 411.755Z" fill="#99AB83"/>
<path d="M505.416 623.659V607.792L517.591 605.266V621.907L505.416 623.659Z" fill="#C2B19C"/>
<path d="M524.374 620.746V603.712L537.444 601.001V618.865L524.374 620.746Z" fill="#C2B19C"/>
<path d="M546.556 616.804V598.962L560.246 596.122V614.834L546.556 616.804Z" fill="#C2B19C"/>
</svg>
