<svg width="1280" height="2303" viewBox="0 0 1280 2303" fill="none" xmlns="http://www.w3.org/2000/svg">
<path d="M444.184 2297.17H465.491L488.827 2280.94L479.696 2247.45L496.944 2223.1L488.827 2182.52L496.944 2141.93L479.696 2125.7L457.374 2119.61V2088.16L465.491 2069.89L488.827 2037.43V2023.22H457.374V1988.72L434.038 1975.53L405.628 1993.8L387.365 2037.43L397.511 2053.66L387.365 2101.35V2141.93L397.511 2167.3L412.731 2190.63L422.877 2229.19L412.731 2263.69L422.877 2280.94L444.184 2297.17Z" fill="#C9C6C6"/>
<path d="M505.061 2266.73L492.886 2281.95L487.812 2302.24L466.506 2292.1L456.359 2266.73L451.286 2258.61L442.155 2245.42V2211.94L429.979 2184.55L437.081 2166.28L419.833 2142.95L411.716 2115.55L402.584 2097.29L387.365 2061.78L402.584 2029.31H437.081H466.506V2061.78L487.812 2081.05H513.178L525.353 2115.55L544.631 2137.87L532.456 2166.28L513.178 2200.78V2222.09L492.886 2245.42L505.061 2266.73Z" fill="#BFBFBF"/>
<path d="M499.988 2205.85L478.681 2222.09L473.553 2251.14L460.418 2277.89L444.184 2241.37L460.418 2205.85L452.301 2176.43L466.505 2116.57L478.681 2095.26V2077V2046.56L509.12 2013.08L499.988 1965.39L489.842 1927.85L522.31 1873.06L535.5 1855.81V1839.58C535.5 1835.52 526.706 1823.68 522.31 1818.27L516.222 1788.84L522.31 1775.65L541.587 1788.84L587.245 1811.17L594.348 1855.81V1942.05C594.348 1946.11 602.465 1955.92 606.523 1960.31L600.435 1998.87V2026.27C597.053 2037.09 589.68 2059.54 587.245 2062.79C584.202 2066.85 563.909 2079.03 557.821 2084.1C552.951 2088.16 555.792 2107.43 557.821 2116.57L541.587 2136.86C534.485 2145.31 519.469 2162.83 516.222 2165.27C512.975 2167.7 504.046 2173.72 499.988 2176.43V2205.85Z" fill="#C9C9C9"/>
<path d="M443.828 2255.97L441.058 2270.45V2289.93L437.365 2299.42L431.825 2279.94V2270.45V2255.97L424.901 2241.98L422.592 2227.5L431.825 2220.01L422.592 2197.54L412.436 2176.06C413.974 2169.74 417.329 2157.09 418.437 2157.09C419.545 2157.09 409.358 2144.43 404.126 2138.11L402.279 2113.64L414.282 2099.15L424.901 2091.16L437.365 2108.14L443.828 2121.13L441.058 2138.11L448.907 2152.09L456.293 2157.09V2176.06L448.907 2183.55L443.828 2197.54L456.293 2213.02L443.828 2227.5L452.138 2246.48L443.828 2255.97Z" fill="#BDBDBD"/>
<path d="M425.921 2123.67L446.213 2204.84L441.14 2245.42H462.447L480.71 2204.84L495.93 2180.49L501.003 2123.67L525.354 2060.76L514.193 2010.03L468.535 1956.26L480.71 1919.73L495.93 1871.03L468.535 1838.56L456.359 1802.03L480.71 1749.27V1705.65C485.783 1689.07 495.93 1654.51 495.93 1648.83C495.93 1643.14 485.783 1616.7 480.71 1604.18L446.213 1546.35L462.447 1497.65L456.359 1474.31L410.701 1463.15H387.365L363.014 1525.04L345.766 1566.64L363.014 1604.18L371.131 1639.69L363.014 1766.52L371.131 1808.12L363.014 1843.63V1908.57L371.131 1929.88L387.365 1969.45V2010.03C387.365 2024.24 404.614 2033.37 410.701 2038.44C415.572 2042.5 422.877 2067.86 425.921 2080.04V2123.67Z" fill="#B4B4B4"/>
<path d="M482.12 2113.52L465.886 2126.71L458.61 2108.12L445.593 2071.92V2045.54L428.345 2008L409.067 1982.64L401.965 1939.01L419.213 1898.42L401.965 1873.06L384.716 1807.11L401.965 1746.23L419.213 1697.53L409.067 1662.02L391.818 1628.53L401.965 1584.91L384.716 1502.72L401.965 1453L375.584 1378.94L384.716 1324.15L433.418 1292.69L496.324 1301.83L545.026 1324.15L553.143 1378.94V1414.45L533.865 1464.17L562.275 1495.62L571.406 1536.2L562.275 1577.8C556.525 1586.26 545.026 1605.4 545.026 1614.33C545.026 1625.49 559.231 1664.05 562.275 1671.15C564.71 1676.83 580.2 1691.1 587.64 1697.53L553.143 1765.51L523.719 1837.55L545.026 1873.06V1930.89L518.646 1970.46L523.719 2001.91L518.646 2053.66C506.471 2062.79 482.12 2082.88 482.12 2090.19V2113.52Z" fill="#C3C3C3"/>
<path d="M528.397 1911.61L569.997 1956.26L575.07 1967.42V1996.84L603.479 1967.42L621.743 1911.61V1846.68L608.552 1793.92L586.231 1761.45L557.821 1711.73L569.997 1674.19L603.479 1646.8L613.626 1598.1L586.231 1553.45L613.626 1519.97L638.991 1404.3L647.108 1370.82L575.07 1332.26V1294.72L551.734 1260.23L523.324 1230.8L586.231 1160.79V1104.99L533.471 1049.19L505.061 1014.69L515.207 957.87L491.871 873.656L399.541 857.422L322.429 906.124L316.341 948.738L352.868 1014.69L375.19 1055.27C374.513 1113.78 373.566 1232.83 375.19 1240.95C376.813 1249.07 398.864 1271.39 409.687 1281.53L457.374 1370.82L444.184 1410.39L457.374 1456.05V1502.72L505.061 1543.31V1621.43L483.754 1674.19L505.061 1711.73L510.134 1793.92L492.886 1846.68L510.134 1902.48L528.397 1911.61Z" fill="#B1B1B1"/>
<path d="M571.878 1636.34L533.871 1703.59L493.628 1775.33L501.71 1659.73L481.244 1601.26V1574.95L533.871 1493.08L457.855 1399.53L501.71 1329.36L457.855 1256.27V1212.41V1115.93L431.542 1069.15V978.519C431.542 950.452 415.949 923.944 408.153 914.199L364.298 849.878L378.916 750.473L457.855 692V633.527V560.435L571.878 519.504L668.359 537.046L732.68 674.458L758.993 750.473L682.977 849.878L668.359 955.13V1013.6L697.596 1095.47L668.359 1180.25V1256.27L697.596 1364.44L668.359 1437.53V1534.02L621.58 1601.26L571.878 1636.34Z" fill="#959595"/>
<path d="M366.73 1425.08L415.005 1496.23L432.791 1590.24L455.659 1519.09V1455.57V1386.97L481.067 1333.61L511.557 1229.44L496.312 1176.08L511.557 1064.29L526.802 977.899L481.067 922.001L526.802 789.879L547.128 688.246L526.802 561.205L481.067 515.47L415.005 533.256L455.659 416.378L415.005 332.531H348.944L328.618 266.47H247.311L160.924 332.531L120.271 416.378V495.143L160.924 584.072C177.863 612.868 212.248 674.017 214.281 688.246C216.314 702.474 245.618 731.44 260.016 744.144L282.883 817.827V922.001L328.618 1003.31V1125.27V1198.95L366.73 1303.12V1425.08Z" fill="#808080"/>
<path d="M690.71 1007.73L647.248 1123.63L627.931 1146.16C617.2 1157.97 595.737 1183.83 595.737 1192.84C595.737 1204.11 610.225 1226.65 610.225 1234.7C610.225 1242.74 595.737 1273.33 586.079 1286.21C578.352 1296.51 567.836 1305.52 563.543 1308.74L552.275 1373.13V1286.21L573.201 1250.79L563.543 1173.53L552.275 1123.63L595.737 1081.77L610.225 1046.36L586.079 957.826L595.737 875.73L627.931 772.709L660.126 672.906L711.636 613.347L767.976 474.912L867.779 449.156L938.606 415.353L948.264 338.086L1049.68 283.356L1176.84 304.282L1300.79 350.964V524.813L1286.3 613.347L1273.43 643.932H1213.87L1067.38 621.396L970.8 643.932L924.118 713.149L830.755 783.977L805 875.73L727.734 912.754L690.71 1007.73Z" fill="#686868"/>
<path d="M475.009 1020.6L486.277 1097.87L502.374 1035.09V998.068L475.009 975.532L486.277 928.851L529.739 882.169V832.268L502.374 804.903L486.277 761.441L529.739 714.759L486.277 619.786L568.372 569.885V500.667L529.739 436.279L441.205 420.182L392.914 405.694V331.647V227.016L297.941 172.286H209.407L138.579 191.603L88.678 151.36H17.8507L-6.29492 181.944V357.403H17.8507L67.752 368.671L88.678 436.279C105.312 452.913 141.155 489.077 151.457 500.667C161.759 512.257 194.383 505.496 209.407 500.667C235.162 517.838 288.926 555.719 297.941 569.885C306.955 584.05 324.233 598.323 331.745 603.689V761.441C353.207 778.074 397.099 812.629 400.962 817.781C404.826 822.932 416.523 862.853 421.888 882.169L441.205 975.532L475.009 1020.6Z" fill="#595959"/>
<path d="M590.908 711.539L602.176 806.513L624.712 841.926C620.42 858.023 611.834 891.827 611.834 898.266C611.834 904.705 626.858 925.631 634.37 935.29V880.559L648.858 841.926L634.37 806.513L648.858 750.173L674.613 711.539L748.66 660.029L726.124 618.176L798.561 563.446V482.96L788.903 445.937L748.66 383.158V330.038L798.561 281.746L1017.48 233.455H1097.97L1186.5 162.628L1134.99 85.3615L1017.48 53.1673L964.361 66.045L936.996 85.3615L858.12 107.897V85.3615L846.852 37.0701L890.315 27.4119L846.852 -27.3183L776.025 -53.0737L706.807 -27.3183L674.613 8.09532L634.37 53.1673L661.736 85.3615L634.37 107.897L602.176 138.482L611.834 162.628L582.86 138.482L555.495 66.045L518.471 27.4119L492.716 -53.0737L325.306 -43.4155L177.212 -8.0018L125.702 85.3615V146.531C145.555 169.067 186.871 216.07 193.309 223.797C199.748 231.523 222.821 233.455 233.552 233.455L293.112 281.746L380.036 318.77L404.182 346.135V445.937C421.888 453.449 458.59 469.439 463.741 473.302C468.892 477.165 497.008 493.155 510.423 500.667V552.178C510.423 563.446 547.446 598.86 555.495 602.079C563.543 605.299 582.86 626.225 590.908 631.054C597.347 634.917 601.103 661.638 602.176 674.516L590.908 711.539Z" fill="#545454"/>
<path d="M719.685 817.781L692.32 830.658V877.34C688.027 886.462 679.442 905.993 679.442 911.144C679.442 917.583 663.345 928.851 656.906 935.29C651.755 940.441 648.321 969.63 647.248 983.581V948.167V911.144L673.003 883.779V841.926V817.781L701.978 796.854V763.05L679.442 737.295L692.32 703.491V679.345L727.734 653.59L747.05 632.664V581.153L679.442 566.665L719.685 478.131C710.563 445.937 689.745 379.295 679.442 370.281C669.14 361.266 683.735 305.355 692.32 278.527H796.951L816.268 220.577L837.194 148.14L994.946 135.263L1011.04 88.5809L1085.09 40.2896L1262.16 59.6061L1318.5 99.8489L1304.01 278.527H1262.16L1234.79 318.77L1200.99 370.281H1136.6H1072.21L1027.14 421.791L994.946 489.399H930.557L879.047 516.764V560.227C876.9 581.153 871.642 624.937 867.779 632.664C862.949 642.322 846.852 693.833 837.194 703.491C827.536 713.149 785.683 713.149 772.805 716.369C762.503 718.944 733.099 748.563 719.685 763.05V817.781Z" fill="#6E6E6E"/>
<path d="M480.923 531.735V561.112L472.479 570.53H461.238C458.451 574.217 452.763 581.592 452.302 581.592C451.841 581.592 448.266 583.057 446.537 583.789L430.562 589.091H411.875L416.573 614.15L421.495 636.348C421.741 641.774 422.086 653.367 421.495 656.326C420.903 659.286 414.835 669.399 411.875 674.085L406.696 693.324L440.354 719.191L416.573 688.414L430.562 668.829L440.354 629.659V610.074L468.333 589.091L494.913 573.702V551.32V516.346V502.357V458.991H468.333L448.748 439.406L468.333 404.432L480.923 389.044L468.333 344.279L440.354 316.3L448.748 264.54L399.786 182.003L359.217 148.429L303.26 142.833V96.6689V43.5097L261.292 2.94089L238.909 -29.2344H-10.0991V193.195H24.8739L73.8363 208.583C71.5047 217.443 66.5616 236.841 65.4425 243.556C64.3233 250.271 95.7525 270.602 111.607 279.928L173.16 288.322L252.898 316.3C288.338 332.155 359.217 365.263 359.217 370.858C359.217 377.853 352.222 405.831 345.228 424.017C339.632 438.566 370.875 472.047 387.195 486.969L448.748 502.357L480.923 531.735Z" fill="#474747"/>
<path d="M604.552 496.678V551.778L613.329 593.809L628.308 599.426V624.391C628.308 626.887 625.811 642.907 624.563 650.604L628.308 670.576L640.79 629.384L650.776 599.426L636.038 551.778L645.877 496.678L636.038 459.288L645.877 435.674L636.038 396.317V361.88V327.442L661.62 293.989L645.877 268.407L661.62 199.532L693.105 124.753L740.334 87.364V38.1677V0.778442L760.012 -34.6429L740.334 -62.1929L287.728 -34.6429L305.438 16.5213L368.41 38.1677V69.6533V109.01H417.606L443.188 124.753L472.706 148.367C475.985 168.046 483.332 210.945 486.481 225.114C490.417 242.824 519.934 262.503 527.805 268.407C534.102 273.129 559.291 287.429 571.098 293.989L584.873 378.606L571.098 447.481L604.552 496.678Z" fill="#6C6C6C"/>
<path d="M675.057 618.487C675.058 624.198 689.335 627.53 696.474 628.482L726.459 618.487C729.314 606.113 735.026 579.365 735.026 571.37C735.026 563.374 744.544 556.616 749.304 554.236L735.026 517.113L782.143 507.118L809.272 450.006V391.466L849.25 367.193L883.518 391.466L963.475 367.193L970.614 292.947L1009.16 262.963L1119.11 212.99L1134.81 158.733L1237.61 143.027L1341.84 98.7648V15.9519L1320.43 -28.3101H1203.35L1059.14 -21.1711H953.48L767.865 -4.03738L749.304 45.9359L782.143 114.471L790.71 173.011L749.304 222.984L713.608 262.963L726.459 311.508L735.026 348.631L713.608 391.466C694.095 403.364 655.354 430.302 656.496 442.867C657.924 458.573 675.057 497.123 675.057 507.118C675.057 515.114 689.335 553.284 696.474 571.37C689.335 584.696 675.057 612.776 675.057 618.487Z" fill="#464646"/>
<path d="M882.09 609.92H829.261L813.7 634.399L796.33 658.567L781.981 670.65L766.876 658.567L792.138 609.92L819.266 585.648L846.395 564.23V497.123L902.079 458.573L949.197 451.434L1007.74 405.744L1026.3 342.92L1111.97 308.653L1127.67 251.54L1254.75 222.984L1316.14 251.54V481.418L1270.45 468.567L1196.21 441.439L1087.69 451.434V524.252L1033.44 557.091L989.176 532.819C962.999 537.578 908.933 549.096 902.079 557.091C895.226 565.087 885.897 595.642 882.09 609.92Z" fill="#575757"/>
</svg>
