<svg width="427" height="1324" viewBox="0 0 427 1324" fill="none" xmlns="http://www.w3.org/2000/svg">
<path d="M246.46 1158.61L294.735 1229.76L312.521 1323.77L335.388 1252.62V1189.1V1120.5L360.796 1067.14L391.286 962.97L376.041 909.613L391.286 797.817L406.531 711.429L360.796 655.531L406.531 523.409L426.858 421.776L406.531 294.735L360.796 249L294.735 266.786L335.388 149.908L294.735 66.0613H228.674L208.347 0H127.041L40.6533 66.0613L0 149.908V228.674L40.6533 317.602C57.5921 346.398 91.9778 407.547 94.0105 421.776C96.0431 436.005 125.347 464.97 139.745 477.674L162.613 551.358V655.531L208.347 736.838V858.797V932.481L246.46 1036.65V1158.61Z" fill="#808080"/>
</svg>
