<svg width="1061" height="936" viewBox="0 0 1061 936" fill="none" xmlns="http://www.w3.org/2000/svg">
<path d="M465.207 711.539L476.475 806.513L499.01 841.926C494.718 858.023 486.133 891.827 486.133 898.266C486.133 904.705 501.157 925.631 508.669 935.29V880.559L523.156 841.926L508.669 806.513L523.156 750.173L548.912 711.539L622.958 660.029L600.422 618.176L672.859 563.446V482.96L663.201 445.937L622.958 383.158V330.038L672.859 281.746L891.78 233.455H972.266L1060.8 162.628L1009.29 85.3615L891.78 53.1673L838.66 66.045L811.295 85.3615L732.419 107.897V85.3615L721.151 37.0701L764.613 27.4119L721.151 -27.3183L650.323 -53.0737L581.106 -27.3183L548.912 8.09532L508.669 53.1673L536.034 85.3615L508.669 107.897L476.475 138.482L486.133 162.628L457.158 138.482L429.793 66.045L392.77 27.4119L367.014 -53.0737L199.604 -43.4155L51.5105 -8.0018L0 85.3615V146.531C19.8531 169.067 61.1689 216.07 67.6077 223.797C74.0466 231.523 97.1192 233.455 107.851 233.455L167.41 281.746L254.334 318.77L278.48 346.135V445.937C296.187 453.449 332.888 469.439 338.039 473.302C343.191 477.165 371.307 493.155 384.721 500.667V552.178C384.721 563.446 421.744 598.86 429.793 602.079C437.841 605.299 457.158 626.225 465.207 631.054C471.645 634.917 475.401 661.638 476.475 674.516L465.207 711.539Z" fill="#545454"/>
</svg>
