<svg width="514" height="448" viewBox="0 0 514 448" fill="none" xmlns="http://www.w3.org/2000/svg">
<path d="M115.213 386.936H62.3844L46.8239 411.415L29.4538 435.582L15.1046 447.666L0 435.582L25.2616 386.936L52.3899 362.663L79.5182 341.246V274.139L135.203 235.588L182.32 228.449L240.861 182.759L259.422 119.936L345.091 85.6685L360.797 28.5562L487.871 0L549.267 28.5562V258.433L503.577 245.583L429.331 218.455L320.818 228.449V301.268L266.561 334.107L222.299 309.835C196.123 314.594 142.056 326.112 135.203 334.107C128.349 342.103 119.021 372.658 115.213 386.936Z" fill="#575757"/>
</svg>
