<svg width="473" height="671" viewBox="0 0 473 671" fill="none" xmlns="http://www.w3.org/2000/svg">
<path d="M316.824 496.678V551.778L325.601 593.809L340.58 599.426V624.391C340.58 626.887 338.084 642.907 336.836 650.604L340.58 670.576L353.063 629.384L363.049 599.426L348.31 551.778L358.149 496.678L348.31 459.288L358.149 435.674L348.31 396.317V361.88V327.442L373.892 293.989L358.149 268.407L373.892 199.532L405.378 124.753L452.606 87.364V38.1677V0.778442L472.285 -34.6429L452.606 -62.1929L0 -34.6429L17.7106 16.5213L80.6821 38.1677V69.6533V109.01H129.878L155.46 124.753L184.978 148.367C188.258 168.046 195.605 210.945 198.753 225.114C202.689 242.824 232.206 262.503 240.078 268.407C246.375 273.129 271.564 287.429 283.371 293.989L297.146 378.606L283.371 447.481L316.824 496.678Z" fill="#6C6C6C"/>
</svg>
