<svg width="633" height="944" viewBox="0 0 633 944" fill="none" xmlns="http://www.w3.org/2000/svg">
<path d="M72.4368 777.491L45.0721 790.369V837.05C40.7794 846.172 32.1941 865.703 32.1941 870.854C32.1941 877.293 16.0972 888.561 9.65835 895C4.50727 900.151 1.07317 929.341 0 943.291V907.878V870.854L25.7553 843.489V801.637V777.491L54.7301 756.565V722.761L32.1941 697.005L45.0721 663.201V639.056L80.4855 613.3L99.802 592.374V540.863L32.1941 526.376L72.4368 437.842C63.3152 405.647 42.4965 339.005 32.1941 329.991C21.8918 320.977 36.4868 265.066 45.0721 238.237H149.703L169.02 180.288L189.946 107.851L347.698 94.973L363.795 48.2914L437.842 0L614.91 19.3165L671.25 59.5594L656.762 238.237H614.91L587.545 278.48L553.741 329.991H489.352H424.964L379.892 381.502L347.698 449.11H283.309L231.798 476.475V519.937C229.652 540.863 224.394 584.647 220.53 592.374C215.701 602.032 199.604 653.543 189.946 663.201C180.288 672.86 138.435 672.86 125.557 676.079C115.255 678.655 85.8511 708.273 72.4368 722.761V777.491Z" fill="#6E6E6E"/>
</svg>
