<svg width="624" height="629" viewBox="0 0 624 629" fill="none" xmlns="http://www.w3.org/2000/svg">
<path d="M18.5863 618.487C18.5863 624.198 32.8643 627.53 40.0033 628.482L69.9875 618.487C72.8431 606.113 78.5543 579.365 78.5543 571.37C78.5543 563.374 88.0731 556.616 92.8324 554.236L78.5543 517.113L125.672 507.118L152.8 450.006V391.466L192.779 367.193L227.046 391.466L307.004 367.193L314.143 292.947L352.694 262.963L462.635 212.99L478.341 158.733L581.143 143.027L685.373 98.7648V15.9519L663.956 -28.3101H546.876L402.667 -21.1711H297.009L111.394 -4.03738L92.8324 45.9359L125.672 114.471L134.239 173.011L92.8324 222.984L57.137 262.963L69.9875 311.508L78.5543 348.631L57.137 391.466C37.6236 403.364 -1.11754 430.302 0.0247116 442.867C1.45252 458.573 18.5863 497.123 18.5863 507.118C18.5863 515.114 32.8643 553.284 40.0033 571.37C32.8643 584.696 18.5862 612.776 18.5863 618.487Z" fill="#464646"/>
</svg>
