<svg width="728" height="1090" viewBox="0 0 728 1090" fill="none" xmlns="http://www.w3.org/2000/svg">
<path d="M138.435 724.37L94.973 840.27L75.6565 862.806C64.9251 874.61 43.4622 900.473 43.4622 909.487C43.4622 920.755 57.9496 943.291 57.9496 951.34C57.9496 959.388 43.4622 989.973 33.804 1002.85C26.0774 1013.15 15.5607 1022.17 11.2682 1025.39L0 1089.78V1002.85L20.9265 967.437L11.2682 890.171L0 840.27L43.4622 798.417L57.9496 763.004L33.804 674.469L43.4622 592.374L75.6565 489.353L107.851 389.55L159.362 329.991L215.701 191.556L315.504 165.8L386.331 131.996L395.989 54.7302L497.401 0L624.568 20.9263L748.516 67.6079V241.457L734.029 329.991L721.151 360.576H661.592L515.108 338.04L418.525 360.576L371.844 429.793L278.48 500.621L252.725 592.374L175.459 629.398L138.435 724.37Z" fill="#686868"/>
</svg>
