<svg width="395" height="1256" viewBox="0 0 395 1256" fill="none" xmlns="http://www.w3.org/2000/svg">
<path d="M207.58 1116.84L169.573 1184.08L129.33 1255.82L137.412 1140.23L116.947 1081.76V1055.44L169.573 973.58L93.5574 880.023L137.412 809.855L93.5574 736.763V692.908V596.427L67.2443 549.649V459.015C67.2443 430.948 51.6514 404.44 43.855 394.695L0 330.374L14.6186 230.969L93.5574 172.496V114.023V40.9313L207.58 0L304.061 17.542L368.382 154.954L394.695 230.969L318.68 330.374L304.061 435.626V494.099L333.298 575.962L304.061 660.748V736.763L333.298 844.939L304.061 918.03V1014.51L257.283 1081.76L207.58 1116.84Z" fill="#959595"/>
</svg>
