<svg width="55" height="209" viewBox="0 0 55 209" fill="none" xmlns="http://www.w3.org/2000/svg">
<path d="M41.5491 164.805L38.779 179.288V198.765L35.0859 208.253L29.5458 188.776V179.288V164.805L22.6213 150.821L20.3127 136.339L29.5458 128.847L20.3127 106.374L10.1562 84.8996C11.6951 78.5738 15.0498 65.9221 16.1578 65.9221C17.2657 65.9221 7.07854 53.2704 1.84645 46.9446L0 22.4733L12.0031 7.99043L22.6213 0L35.0859 16.98L41.5491 29.9647L38.779 46.9446L46.6272 60.928L54.0137 65.9221V84.8996L46.6272 92.3906L41.5491 106.374L54.0137 121.856L41.5491 136.339L49.8588 155.316L41.5491 164.805Z" fill="#BDBDBD"/>
</svg>
