<svg width="331" height="1140" viewBox="0 0 331 1140" fill="none" xmlns="http://www.w3.org/2000/svg">
<path d="M212.056 1054.19L253.656 1098.83L258.729 1110V1139.42L287.138 1110L305.401 1054.19V989.256L292.211 936.495L269.89 904.027L241.48 854.311L253.656 816.77L287.138 789.375L297.284 740.673L269.89 696.03L297.284 662.548L322.65 546.881L330.767 513.398L258.729 474.843V437.302L235.392 402.805L206.983 373.381L269.89 303.372V247.568L217.129 191.763L188.72 157.266L198.866 100.448L175.53 16.234L83.1992 0L6.08806 48.7018L0 91.3159L36.5265 157.266L58.8483 197.851C58.1719 256.361 57.225 375.41 58.8483 383.527C60.4717 391.644 82.5227 413.965 93.3452 424.112L141.033 513.398L127.843 552.969L141.033 598.627V645.299L188.72 685.884V764.01L167.413 816.77L188.72 854.311L193.793 936.495L176.544 989.256L193.793 1045.06L212.056 1054.19Z" fill="#B1B1B1"/>
</svg>
