<svg width="495" height="720" viewBox="0 0 495 720" fill="none" xmlns="http://www.w3.org/2000/svg">
<path d="M480.923 531.735V561.112L472.479 570.53H461.238C458.451 574.217 452.763 581.592 452.302 581.592C451.841 581.592 448.266 583.057 446.537 583.789L430.562 589.091H411.875L416.573 614.15L421.495 636.348C421.741 641.774 422.086 653.367 421.495 656.326C420.903 659.286 414.835 669.399 411.875 674.085L406.696 693.324L440.354 719.191L416.573 688.414L430.562 668.829L440.354 629.659V610.074L468.333 589.091L494.913 573.702V551.32V516.346V502.357V458.991H468.333L448.748 439.406L468.333 404.432L480.923 389.044L468.333 344.279L440.354 316.3L448.748 264.54L399.786 182.003L359.217 148.429L303.26 142.833V96.6689V43.5097L261.292 2.94089L238.909 -29.2344H-10.0991V193.195H24.8739L73.8363 208.583C71.5047 217.443 66.5616 236.841 65.4425 243.556C64.3233 250.271 95.7525 270.602 111.607 279.928L173.16 288.322L252.898 316.3C288.338 332.155 359.217 365.263 359.217 370.858C359.217 377.853 352.222 405.831 345.228 424.017C339.632 438.566 370.875 472.047 387.195 486.969L448.748 502.357L480.923 531.735Z" fill="#474747"/>
</svg>
