<svg width="213" height="835" viewBox="0 0 213 835" fill="none" xmlns="http://www.w3.org/2000/svg">
<path d="M106.535 820.828L90.3013 834.018L83.0259 815.426L70.0088 779.229V752.849L52.7602 715.308L33.4824 689.942L26.3801 646.314L43.6287 605.729L26.3801 580.363L9.1314 514.413L26.3801 453.536L43.6287 404.834L33.4824 369.322L16.2339 335.84L26.3801 292.211L9.1314 210.027L26.3801 160.31L0 86.2427L9.1314 31.4532L57.8334 0L120.74 9.13156L169.442 31.4532L177.559 86.2427V121.754L158.281 171.471L186.69 202.924L195.822 243.509L186.69 285.108C180.941 293.563 169.442 312.706 169.442 321.635C169.442 332.795 183.646 371.351 186.69 378.453C189.125 384.135 204.615 398.408 212.056 404.834L177.559 472.813L148.135 544.851L169.442 580.363V638.196L143.062 677.767L148.135 709.22L143.062 760.965C130.886 770.097 106.535 790.186 106.535 797.492V820.828Z" fill="#C3C3C3"/>
</svg>
