<svg width="163" height="503" viewBox="0 0 163 503" fill="none" xmlns="http://www.w3.org/2000/svg">
<path d="M55.8039 430.199L34.497 446.433L29.3692 475.49L16.2339 502.237L0 465.711L16.2339 430.199L8.1169 400.775L22.3214 340.912L34.497 319.606V301.342V270.904L64.9355 237.421L55.8039 189.734L45.6577 152.193L78.1256 97.4036L91.3156 80.1549V63.9212C91.3156 59.8627 82.5223 48.0254 78.1256 42.6141L72.0378 13.19L78.1256 0L97.4034 13.19L143.061 35.5116L150.164 80.1549V166.398C150.164 170.456 158.281 180.264 162.339 184.661L156.251 223.216V250.611C152.869 261.434 145.496 283.891 143.061 287.137C140.017 291.196 119.725 303.371 113.637 308.445C108.767 312.503 111.608 331.781 113.637 340.912L97.4034 361.205C90.301 369.66 75.2846 387.179 72.0378 389.614C68.7911 392.049 59.8624 398.069 55.8039 400.775V430.199Z" fill="#C9C9C9"/>
</svg>
