<svg width="569" height="947" viewBox="0 0 569 947" fill="none" xmlns="http://www.w3.org/2000/svg">
<path d="M475.009 869.245L486.277 946.511L502.374 883.732V846.709L475.009 824.173L486.277 777.491L529.739 730.809V680.908L502.374 653.543L486.277 610.081L529.739 563.399L486.277 468.426L568.372 418.525V349.308L529.739 284.919L441.205 268.822L392.914 254.335V180.288V75.6565L297.941 20.9263H209.407L138.579 40.2428L88.678 0H17.8507L-6.29492 30.5845V206.043H17.8507L67.752 217.311L88.678 284.919C105.312 301.553 141.155 337.718 151.457 349.308C161.759 360.897 194.383 354.137 209.407 349.308C235.162 366.478 288.926 404.36 297.941 418.525C306.955 432.691 324.233 446.963 331.745 452.329V610.081C353.207 626.715 397.099 661.27 400.962 666.421C404.826 671.572 416.523 711.493 421.888 730.809L441.205 824.173L475.009 869.245Z" fill="#595959"/>
</svg>
