<svg width="180" height="783" viewBox="0 0 180 783" fill="none" xmlns="http://www.w3.org/2000/svg">
<path d="M80.1553 660.518L100.447 741.688L95.3744 782.273H116.681L134.945 741.688L150.164 717.337L155.237 660.518L179.588 597.612L168.427 546.881L122.769 493.106L134.945 456.579L150.164 407.878L122.769 375.41L110.594 338.883L134.945 286.123V242.494C140.018 225.922 150.164 191.357 150.164 185.676C150.164 179.994 140.018 153.546 134.945 141.032L100.447 83.1989L116.681 34.4971L110.594 11.1608L64.9358 0H41.5997L17.2485 61.8919L0 103.491L17.2485 141.032L25.3657 176.544L17.2485 303.372L25.3657 344.971L17.2485 380.483V445.419L25.3657 466.726L41.5997 506.296V546.881C41.5997 561.085 58.848 570.217 64.9358 575.29C69.806 579.348 77.1114 604.714 80.1553 616.889V660.518Z" fill="#B4B4B4"/>
</svg>
