<svg width="1280" height="3105" viewBox="0 0 1280 3105" fill="none" xmlns="http://www.w3.org/2000/svg">
<rect width="1280" height="3105" fill="#595A61"/>
<path d="M2.04932 278.632L2.04932 -0.000282288L1280.68 -0.000282288V626.234L1213.39 595.887L1156.86 543.471L1086.87 595.887L1000.73 595.887L928.05 543.471L769.23 686.926L615.794 626.234L596.951 543.471L421.98 446.915L257.776 480.02L179.712 446.915L88.1891 342.083L2.04932 278.632Z" fill="#464646"/>
<path d="M1155.47 1324.91L1287.75 1300.26V921.299H1173.51L978.1 979.838L896.93 1044.54L695.51 979.838L569.246 1019.89L509.121 1103.08L455.008 1044.54L328.744 979.838L259.6 945.947V831.951L178.43 791.899L100.268 758.008L64.1921 647.094H-1.9458L-1.9458 1044.54H64.1921L100.268 1127.72C136.343 1126.7 212.101 1125.26 226.531 1127.72C244.569 1130.81 316.719 1198.59 328.744 1207.83C338.364 1215.22 368.828 1258.15 382.858 1278.69L548.202 1349.55H695.51L734.591 1300.26L827.786 1278.69H923.987L1074.3 1377.28L1155.47 1324.91Z" fill="#595959"/>
<path d="M184.443 899.099L136.343 806.67L55.1732 720.403H7.07275L7.07275 501.655L112.292 550.95L244.569 603.327L461.02 671.108L602.315 745.051L734.591 769.699L842.817 745.051L1032.21 769.699L1083.32 865.209L1218.6 942.233L1251.67 997.69L1290.75 1065.47V1179.47L1230.63 1139.41L1179.52 1090.12L1032.21 1065.47L978.1 1114.77L881.899 1139.41L785.698 1114.77L689.497 1065.47L602.315 1090.12L536.177 1139.41L461.02 1090.12L370.832 1065.47L310.707 1034.66L274.631 942.233L184.443 899.099Z" fill="#686868"/>
<path d="M1275.32 1834.33L1275.32 1286.29L1195.29 1249.01C1169.83 1261.44 1111.62 1286.29 1082.52 1286.29C1053.42 1286.29 1036.44 1308.66 1031.59 1319.84L995.216 1345.94L958.838 1319.84L907.91 1286.29L798.776 1249.01L733.296 1286.29L609.612 1319.84V1286.29L442.274 1249.01L347.693 1286.29L300.401 1140.89H216.733H143.977L89.4106 1021.59H2.104L2.104 1386.95L67.5839 1483.88L187.63 1550.99L300.401 1573.36C339.204 1578.33 421.903 1589.76 442.274 1595.73C462.646 1601.69 511.392 1660.35 533.219 1688.93L649.627 1711.3H798.776L937.011 1729.94L995.216 1797.05L1082.52 1797.05H1195.29L1275.32 1834.33Z" fill="#707070"/>
<path d="M6.20703 2068.37L6.20703 1676.66L86.1462 1725.31C106.964 1736.4 150.097 1760.64 156.093 1768.83C162.088 1777.02 173.579 1811.5 178.576 1827.71L251.02 1843.07L298.484 1891.72L410.898 1922.44L428.385 1909.64L558.286 1922.44L625.734 1965.96C630.731 1983.03 643.221 2020.24 653.213 2032.52C663.206 2044.81 705.673 2061.54 725.658 2068.37L830.578 2045.33L925.505 2045.33L1037.92 2068.37L1160.33 2032.52H1222.78L1290.23 2111.89L1275.24 2536.88L1240.27 2511.27C1217.78 2519.81 1170.32 2536.88 1160.33 2536.88C1150.33 2536.88 1117.86 2557.36 1102.87 2567.6C1092.05 2557.36 1067.9 2536.88 1057.9 2536.88H972.969H900.525L873.046 2511.27L845.566 2480.55H813.091L763.129 2444.71L725.658 2380.71L653.213 2342.3L610.746 2380.71H510.822H443.374L428.385 2326.94L375.925 2291.1L343.45 2250.14L208.553 2270.62L178.576 2227.1L118.621 2183.57L6.20703 2068.37Z" fill="#636060"/>
<path d="M101.666 1663.67L3.06006 1557.64L3.06006 1275.7L65.4434 1294.98L172.099 1352.82L172.099 1470.89L230.458 1497.4L306.928 1458.84H389.435L419.62 1540.77L500.115 1557.64L566.523 1641.98L598.721 1687.77H695.315L771.785 1663.67L791.908 1709.45L868.378 1687.77L1001.19 1728.73L1047.48 1779.34H1117.91H1178.28L1242.68 1805.84H1286.95L1286.95 2027.54L1242.68 1976.93L1178.28 2003.44H1117.91L1063.58 1976.93L1001.19 1923.92L930.762 1940.79L860.329 1923.92L771.785 1868.5L715.438 1805.84L630.919 1832.35H598.721L469.929 1805.84C449.806 1781.75 407.546 1732.59 399.497 1728.73C391.447 1724.88 316.989 1699.82 280.767 1687.77L194.235 1709.45L101.666 1663.67Z" fill="#686767"/>
<path d="M1228.38 2131.79H1291.08L1278.63 1955.98L1250.91 1890.8C1221.55 1887.46 1161.22 1880.78 1154.7 1880.78H1050.34L959.02 1828.97L839.982 1817.27L768.561 1828.97L732.359 1782.18L673.656 1760.45L536.682 1782.18L484.501 1792.2L455.048 1760.45L412.752 1722.13L341.004 1693.61L240.813 1678.56L190.984 1693.61L151.848 1643.47L-3.06348 1539.86L5.67783 1663.52L5.67783 1722.13C33.5458 1734.63 90.3267 1762.3 94.5068 1773.01C98.687 1783.72 127.6 1831.02 141.534 1853.33L162.435 1872.07L240.813 1909.56C299.162 1912.24 423.696 1919.73 455.048 1928.3C486.399 1936.87 548.231 2024.69 575.228 2067.53L768.561 2099.66L917.48 2067.53H1071.62L1228.38 2131.79Z" fill="#7A7676"/>
<rect y="2604.55" width="1280" height="500.45" fill="#887D74"/>
<path d="M1100.66 2628.48V2578.6L1137.99 2604.7V2612.29L1100.66 2628.48Z" fill="#A3A3A3"/>
<path d="M1096.1 2628.44H1100.82V2578.7H1096.1V2628.44Z" fill="#A09899"/>
<path d="M1100.71 2578.72L1137.88 2604.54L1101.37 2577.15L1096.1 2575.84V2578.84L1100.71 2578.72Z" fill="#B5A8A5"/>
<path d="M1072.91 2555.8V2637.73L1096.36 2629.47V2571.33L1072.91 2555.8Z" fill="#B8B4B1"/>
<path d="M1096.65 2571.49L1097.64 2570.5L1073.85 2553.39L1046.33 2539.14V2541.5L1072.85 2555.87L1096.65 2571.49Z" fill="#B1958B"/>
<path d="M1072.98 2555.75V2638.04H1046.21V2541.12L1072.98 2555.75Z" fill="#A09899"/>
<path d="M865.53 2695.78L879.702 2697.43V2470.31L848.483 2480.07V2591.77H866.349L865.53 2695.78Z" fill="#A6A0A0"/>
<path d="M1046.47 2644.91L879.724 2697.37V2469.54L940.096 2504.76V2453.01L1046.47 2531.35V2644.91Z" fill="#B4ABAB"/>
<path d="M908.244 2603.72V2570.95L920.18 2572.82V2603.72H908.244Z" fill="#857F7F"/>
<path d="M912.488 2576.98L912.691 2603.72H920.18V2572.82L912.488 2576.98Z" fill="#A6A0A0"/>
<path d="M908.325 2577.04H912.457L920.229 2572.84L908.325 2570.88V2577.04Z" fill="#9C928F"/>
<path d="M866.344 2661.42L848.653 2665.28H846.361V2591.81L866.344 2591.81V2661.42Z" fill="#8D8383"/>
<path d="M928.781 2550.42V2546.35L848.483 2522.34V2531.21L928.781 2550.42Z" fill="#C0B9B9"/>
<path d="M852.736 2525.31H848.483V2505.65L882.031 2517.59L932.116 2548.25L925.974 2546.61L921.721 2543.8H916.996H912.507L909.672 2540.53H906.601L900.931 2538.19H896.679L892.426 2535.84H887.937L885.575 2533.97H882.031L878.251 2531.87H872.581L869.51 2528.82H864.076L860.532 2527.19H855.807L852.736 2525.31Z" fill="#9E7B5E"/>
<path d="M940.238 2501.81V2453.21L877.454 2424.48L876.087 2466.84L940.238 2501.81Z" fill="#A6A0A0"/>
<path d="M952.882 2523.88V2479.5L1040.15 2538.78V2567.6L952.882 2523.88Z" fill="#857F7F"/>
<path d="M1035.18 2541.43L1040.15 2538.78V2567.6L1035.18 2565.11V2541.43Z" fill="#A6A0A0"/>
<path d="M1035.35 2541.1L1040.48 2538.78L952.882 2479.67V2487.28L1035.35 2541.1Z" fill="#9C928F"/>
<path d="M940.975 2498.87V2505.95L879.423 2470.37L876.101 2471.6V2463.31H878.055L879.423 2466.63L883.136 2465.07L885.48 2468H889.975L891.538 2472.1H896.228L898.182 2474.84H902.48L904.239 2478.36H907.366L909.71 2481.48H914.595L916.159 2485H919.676L921.435 2488.32H924.756L926.71 2491.45H930.228L932.377 2494.38H934.917L938.044 2496.92L940.975 2498.87Z" fill="#9E7B5E"/>
<path d="M1053.32 2537.7L1046.59 2539.01V2531.34L940.237 2454.34L877.514 2424.48L877.514 2417.14L943.041 2447.61V2451.34L947.527 2450.04L950.891 2454.34L952.2 2456.77H957.433L959.302 2460.88L963.414 2462L964.909 2467.05H969.395L971.638 2471.72H975.376L977.619 2476.76H980.61L983.974 2481.44H988.46L990.89 2488.35H995.002L998.553 2491.72L1002.48 2492.84C1003.41 2494.46 1005.39 2497.96 1005.84 2499.01C1006.29 2500.05 1008.27 2499.44 1009.21 2499.01L1010.7 2503.68H1015L1017.62 2508.17C1019.11 2508.54 1022.22 2509.44 1022.66 2510.03C1023.11 2510.63 1024.22 2512.9 1024.72 2513.96L1031.45 2515.83L1032.94 2519.75L1038.18 2521.06L1039.67 2523.87L1045.09 2525.92V2528.35L1051.82 2532.84L1053.32 2537.7Z" fill="#9E7B5E"/>
<path d="M677.232 2757.18V2440.74L848.637 2502.52V2710.43L677.232 2757.18Z" fill="#C0B9B9"/>
<path d="M677.542 2540.17V2546.06L720.81 2572.07L881.029 2583.1L847.105 2561.44H841.791H827.691L818.29 2558.99L812.977 2557.97H809.502L805.62 2556.54H804.598H798.058L794.584 2555.51L790.088 2554.08H786.614L783.549 2552.24L778.644 2554.08H775.374L772.104 2552.24L767.813 2550.61H764.747L763.726 2548.36H758.617L755.347 2550.61L752.077 2548.36H748.194H744.107L738.793 2546.06H735.524H732.05L727.758 2544.27H725.101L719.379 2542.43L715.701 2544.27L714.679 2542.43H708.139H703.643L699.965 2540.17H694.856L692.608 2542.43L689.338 2540.17H677.542Z" fill="#9E7B5E"/>
<path d="M726.51 2575.56L677.215 2577.04V2546.06L719.884 2571.6L880.641 2583.06V2584.84L726.51 2575.56Z" fill="#A39C9C"/>
<path d="M875.36 2490.77L878.91 2381.32L727.756 2250.15L727.954 2425.56L875.36 2490.77Z" fill="#C0B9B9"/>
<path d="M740.249 2237.66L727.756 2250.15L879.081 2381.56L886.729 2375.75L740.249 2237.66Z" fill="#9C928F"/>
<path d="M886.858 2375.77L740.667 2238.55L607.154 2209.5V2200.21L733.144 2227.23H744.692L747.785 2237.12H754.59V2244.34H763.869V2250.53L769.436 2251.56V2256.51H776.035V2263.72H782.221L785.108 2272.39L791.5 2271.35V2279.6L795.83 2278.37L797.686 2284.76H803.253L805.728 2292.39H811.914L813.77 2298.37H818.925V2305.58L823.668 2303.73L825.317 2311.77L830.06 2310.53L831.297 2315.69H835.834V2321.46L841.195 2322.49V2327.03H846.762L848.618 2333.01H852.33L854.804 2338.78H859.134L861.609 2346.21L865.114 2344.76L866.352 2350.33H871.3L873.569 2356.93H877.487L878.724 2361.67H882.229V2366.42H886.858L888.807 2375.77H886.858Z" fill="#B28575"/>
<path d="M805.939 2404.36V2350.95L822.246 2362.6V2414.57L805.939 2404.36Z" fill="#857F7F"/>
<path d="M813.107 2365.47V2409.02L822.246 2414.57V2363.14L813.107 2365.47Z" fill="#A6A0A0"/>
<path d="M805.939 2361.53L813.107 2365.47L822.426 2362.6L805.939 2351.49V2361.53Z" fill="#9C928F"/>
<path d="M875.362 2490.75L848.989 2502.67L677.197 2440.95L728.059 2425.62L875.362 2490.75Z" fill="#9C928F"/>
<path d="M498.804 2721.09L677.765 2757.75L677.226 2440.97L727.971 2425.67V2249.86L740.309 2237.75L608.049 2209.36L510.303 2285.55L498.804 2721.09Z" fill="#A6A0A0"/>
<path d="M607.54 2200.17V2210.28L483.613 2306.7L483.613 2295.41L607.54 2200.17Z" fill="#B28575"/>
<path d="M677.669 2669.12V2757.62L498.765 2721.08L500.189 2654.17L677.669 2669.12Z" fill="#997D7D"/>
<path d="M183.394 2890.23L-2.39502 2952.56V2026.01L514.218 2276.53L499.834 2796.74L389.559 2825.5V2589.37L183.394 2582.18V2890.23Z" fill="#C0B9B9"/>
<path d="M227.865 2381.84L231.548 2189.94L341.205 2235.77V2410.48L227.865 2381.84Z" fill="#7D6F6F"/>
<path d="M231.582 2189.92L341.367 2237.4L364.219 2229.67L231.582 2162.25V2189.92Z" fill="#978C8C"/>
<path d="M360.846 2414.57C362.483 2354.29 364.119 2235.21 364.119 2229.63L341.206 2237.4V2410.07L360.846 2414.57Z" fill="#A89F9F"/>
<path d="M181.682 2251.2V2256.56L580.516 2398.16V2396.07L181.682 2251.2Z" fill="#8A7268"/>
<path d="M162.958 2249.64L49.0469 2294.69H60.8515L162.958 2256.02V2249.64Z" fill="#8A7268"/>
<path d="M374.878 2822.12L389.895 2826.15L389.382 2589.15H374.878V2822.12Z" fill="#A89F9F"/>
<path d="M183.705 2875.97C183.846 2778.78 184.042 2583.98 183.705 2582.31L384.446 2589.4V2824.67L379.385 2828L372.216 2831.34L363.781 2828L359.142 2831.34L354.081 2837.6H346.912H334.682C331.983 2837.6 327.653 2841.21 325.826 2843.02L321.609 2848.86H314.861H303.053C301.029 2848.86 298.555 2851.36 297.57 2852.61L288.293 2860.96C284.778 2860.96 277.075 2860.46 274.376 2858.45C271.677 2856.45 268.19 2859.29 266.785 2860.96L260.881 2868.05H249.072H236.842C235.155 2868.05 234.734 2870.55 234.734 2871.8L222.082 2875.97L211.539 2873.89L206.478 2880.15H194.67L183.705 2875.97Z" fill="#866767"/>
<path d="M209.857 2876.25L203.587 2591.59V2582.97H208.841L216.709 2874.11H211.356L209.857 2876.25Z" fill="#775C5C"/>
<path d="M236.077 2868.37L234.541 2871.59L228.12 2583.8L233.257 2583.8L244.348 2868.37H236.077Z" fill="#775C5C"/>
<path d="M265.363 2862.95L262.115 2593.49L262.115 2584.73L269.216 2584.73L276.922 2859.21L269.884 2857.92L265.363 2862.95Z" fill="#775C5C"/>
<path d="M296.406 2853.97L293.463 2601.64L292.95 2586.23L298.405 2586.23L308.682 2848.49H302.392L296.406 2853.97Z" fill="#775C5C"/>
<path d="M328.852 2840.58L325.49 2607.96L325.49 2587.34L331.094 2587.34L337.934 2837.79H332.58L328.852 2840.58Z" fill="#775C5C"/>
<path d="M358.145 2832.88L354.334 2595.48L354.334 2588.23L361.358 2588.23L366.813 2829.22L364.123 2828.03L358.145 2832.88Z" fill="#775C5C"/>
<path d="M513.57 2268.36V2261.72L-1.02344 1997.29V1991.02H22.1518L55.9491 2013.23L74.2962 2018.05L97.4715 2035.92L117.267 2039.3L139.96 2057.16L161.686 2062.96L180.516 2080.34L205.623 2088.06L223.004 2104.48L249.559 2113.17L270.803 2129.1L291.565 2132.96L314.257 2147.93L331.639 2152.28L346.123 2169.18H352.4L372.678 2182.7L383.783 2185.11L398.268 2197.18L412.752 2200.56L426.271 2210.7L438.342 2213.6L456.62 2228.27L465.302 2229.8L477.305 2239.76L486.754 2242.31L496.459 2250.74H504.631L516.634 2256.61L517.911 2263.76L513.57 2268.36Z" fill="#CB9582"/>
<path d="M513.221 2261.87V2275.54L-1.53809 2028.56V1995.29L513.221 2261.87Z" fill="#948686"/>
<path d="M527.752 2187.06L519.885 2193.61L247.168 2027.1L150.973 2066.66L139.177 2057.38L247.168 2010.71L261.591 2022.51L276.013 2035.62H287.813L302.236 2047.42H316.003L327.148 2062.5H340.914L350.748 2076.27H365.826L373.693 2089.38L390.082 2093.31L399.916 2109.7H416.305L429.416 2127.4H443.183L453.672 2141.82H470.062L483.173 2157.56H498.251L506.773 2173.29L519.885 2178.53L527.752 2187.06Z" fill="#CB9582"/>
<path d="M235.25 2047.93V2031.67L116.655 2080.71V2094.57L235.25 2047.93Z" fill="#B19589"/>
<path d="M406.618 2238.05L401.291 2236.49L502.669 2203.51V2207.78L406.618 2238.05Z" fill="#8A7268"/>
<path d="M401.622 2228.54L503.098 2195.7L243.122 2050.78L128.095 2096.19L401.622 2228.54Z" fill="#69544D"/>
<path d="M401.468 2236.65L502.642 2203.51L502.891 2195.67L401.468 2228.58L401.468 2236.65Z" fill="#B19589"/>
<path d="M50.4653 2427.47L51.0927 2400.81L172.336 2366.09L172.336 2394.26L50.4653 2427.47Z" fill="#B19589"/>
<path d="M588.128 2489.27L588.864 2472.18L172.368 2366.34V2394.35L588.128 2489.27Z" fill="#9A8680"/>
<path d="M500.068 2511.83L587.868 2489.17L172.237 2394.29L50.4512 2427.57L500.068 2511.83Z" fill="#8A7268"/>
<path d="M162.955 2368.92C163.129 2324.77 162.8 2234.72 162.8 2230.41L172.444 2225.11V2366.21L162.955 2368.92Z" fill="#B19589"/>
<path d="M513.75 2454.57L517.88 2188.2L247.856 2025.58L245.659 2385.73L258.657 2388.14V2048.98L508.879 2191.8L502.278 2452.22L513.75 2454.57Z" fill="#9A8680"/>
<path d="M181.889 2369.58L172.434 2366.38V2225.08L588.753 2387.11V2472.16L580.313 2470.08V2395.94L181.612 2251.3L181.889 2369.58Z" fill="#9A8680"/>
<path d="M502.886 2195.64L508.961 2191.86L258.553 2048.83L258.77 2061.29L502.886 2195.64Z" fill="#8A7268"/>
<path d="M502.328 2450.17L508.864 2191.86L502.828 2195.67L496.266 2448.63L502.328 2450.17Z" fill="#B19589"/>
<path d="M235.368 2382.42V2031.93L247.939 2025.73L245.789 2384.9L235.368 2382.42Z" fill="#B19589"/>
<path d="M162.923 2230.44L49.0107 2282.67V2294.74L162.923 2249.94V2230.44Z" fill="#B19589"/>
<path d="M128.097 2096.36L117.159 2094.65L235.33 2047.87V2054.15L128.097 2096.36Z" fill="#8A7268"/>
<path d="M576.849 2469.07V2396.9L580.338 2398.09V2470.03L576.849 2469.07Z" fill="#B19589"/>
<path d="M1280.06 2828.95L1262.26 2829.31V2446.46L1216.93 2449.25L1223.04 2270.69L1280.06 2233.45V2828.95Z" fill="#AEA29E"/>
<path d="M1262.19 2829.48L1148.26 2624.65V2607.26L1262.19 2446.36V2829.48Z" fill="#CAC2C0"/>
<path d="M1169.43 2478.67L1178.5 2473.09L1201.09 2532.64L1172.05 2573.74H1160.48L1158.76 2512.58L1166.87 2504.73L1169.43 2478.67Z" fill="#BAAFAA"/>
<path d="M1216.97 2448.97L1223.06 2270.69L1177.83 2407.23V2533.33L1216.97 2448.97Z" fill="#C4B9B5"/>
<path d="M1160.36 2573.77L1158.63 2512.33L1146.57 2557.7V2596.46L1160.36 2573.77Z" fill="#C4B9B5"/>
<path d="M1216.87 2449.17L1262.23 2446.45L1200.65 2533.32H1177.82L1216.87 2449.17Z" fill="#B4A7A4"/>
<path d="M1171.96 2573.65H1160.37L1146.56 2596.46L1155.41 2597.24L1171.96 2573.65Z" fill="#B4A7A4"/>
<path d="M1178.2 2470.01V2473.45L1169.83 2478.5L1166.88 2504.22L1159 2512.58L1146.33 2557.75L1144.73 2556.39L1155.56 2511.11L1164.79 2502.49L1167.99 2476.65L1178.2 2470.01Z" fill="#CB9582"/>
</svg>
