<svg width="1280" height="825" viewBox="0 0 1280 825" fill="none" xmlns="http://www.w3.org/2000/svg">
<path d="M207.727 121.5L84.0165 159.055L0 199.686V824.13H1280.07L1278.11 249.159L1061.95 230.542L954.576 197.055L789.539 122.338L738.258 92.8895L707.794 83.2425L679.868 92.8895L665.144 102.029L648.443 98.3048L611.992 69.5867L558.974 41.9729L521.419 24.3H503.746L491.596 9.94092H479.446L469.505 0H445.205L428.637 9.94092H423.114L406.546 24.3L372.305 53.0182L328.123 77.3184L280.627 98.3048L207.727 121.5Z" fill="#C8AA8E"/>
<path d="M649.534 111.23L634.982 101.177L649.534 98.0015L664.615 101.177L673.875 98.0015L683.929 101.177L692.131 109.378C698.392 111.76 711.233 116.839 712.503 118.109C713.773 119.379 719.559 128.163 722.293 132.397L715.943 125.782L706.153 118.109L688.427 114.405L678.373 105.145H666.731V109.378L678.373 114.405L696.629 122.343C699.803 127.37 706.471 137.635 707.741 138.482C709.328 139.54 725.203 146.155 726.526 146.155C727.584 146.155 733.14 152.505 735.786 155.679L729.172 150.653L707.741 146.155L701.126 136.101L695.306 127.105L688.427 130.809C688.25 133.631 688.003 139.699 688.427 141.392C688.85 143.086 691.072 151.623 692.131 155.679L683.929 153.034L670.964 132.397L654.825 122.343L649.534 111.23Z" fill="#B69E87"/>
<path d="M485.23 33.7091L499.253 40.0589L502.957 36.3548H511.424L514.07 42.9692L520.684 58.3148L523.594 67.3104L533.119 73.9249L539.469 82.3914L536.294 73.9249L529.68 67.3104L527.299 58.3148L523.594 51.9649H529.68L542.115 59.9022L547.671 63.6063L559.577 67.3104L567.514 73.9249L581.537 78.9518L567.514 71.0145L560.9 63.6063L547.671 59.9022L539.469 49.5837L523.594 42.9692L518.567 30.7987L509.307 24.4488H502.957V26.5654H496.343C495.073 26.5654 492.992 23.0377 492.11 21.2739H487.612L494.491 30.7987L492.11 33.7091L485.23 30.7987L481.791 28.1529L485.23 33.7091Z" fill="#B69E87"/>
<path d="M450.306 17.3051V12.278L454.011 3.28256L455.598 0.107666H462.741V3.28256L458.508 5.92827L455.598 12.278L459.831 17.3051L466.181 23.3904L468.298 32.3861L480.468 42.9692L483.643 51.7003L501.899 63.0771L508.778 86.6246L498.46 68.6333L480.468 56.9918L475.441 46.6733L462.741 37.6776L466.181 48.5253L459.831 56.9918C459.39 60.1668 458.508 66.94 458.508 68.6333C458.508 70.3266 463.623 82.2149 466.181 87.9475L455.598 69.9562L454.011 56.9918L458.508 50.1128L455.598 40.8526L450.306 37.6776L445.279 29.2111L448.19 21.5384V29.2111L454.011 35.561L458.508 32.3861L455.598 21.5384L450.306 17.3051Z" fill="#B69E87"/>
<path d="M434.696 18.8925V10.4259L439.988 4.07617V13.0718V20.7446L431.257 27.0945L432.844 33.1798L442.104 47.9961L438.4 53.5523L439.988 63.0771L434.696 66.7812L425.701 71.8082L412.472 81.0684L394.745 98.266L399.772 91.1224L416.176 74.1894L432.844 63.0771L431.257 53.5523L434.696 45.8795L429.669 39.7942L422.261 43.7629L411.149 53.5523L402.153 71.8082L394.745 78.4226L383.633 89.5349L367.229 109.643L383.633 85.8308L399.772 66.7812L408.503 47.9961L422.261 35.8255L423.584 24.7133L434.696 18.8925Z" fill="#B69E87"/>
</svg>
