<svg width="942" height="202" viewBox="0 0 942 202" fill="none" xmlns="http://www.w3.org/2000/svg">
<path d="M391.992 201.95H236.646L174.508 142.919L131.011 127.384L44.0169 158.453C27.4466 148.097 -4.45113 127.384 0.519954 127.384C5.49103 127.384 19.1615 85.9583 25.3753 65.2454L131.011 43.497L174.508 15.5346H236.646L301.892 43.497L351.602 15.5346C377.493 10.3564 433.625 0 451.024 0H559.766C576.337 14.499 611.963 47.8467 621.905 65.2454C631.847 82.6442 650.903 84.9226 659.188 83.887H749.289C764.202 83.887 803.142 56.9603 820.748 43.497H885.993H941.918V83.887L845.603 127.384L795.893 158.453H715.113L680.936 201.95H519.376L482.093 158.453H391.992V201.95Z" fill="#F3EBEB"/>
</svg>
