<svg width="603" height="194" viewBox="0 0 603 194" fill="none" xmlns="http://www.w3.org/2000/svg">
<path d="M521.851 144.772L547.102 171.706L579.087 193.59H602.654L579.087 161.605L570.67 132.988L547.102 111.104H506.701V74.0691L471.35 31.9844L388.864 23.5675L348.462 31.9844L306.377 50.5017L296.277 23.5675L260.926 0L218.841 10.1002L203.69 31.9844L170.023 0H136.355L107.737 31.9844L80.8029 23.5675L48.8185 10.1002H0V50.5017H20.2007H60.6022L107.737 87.5363C126.816 94.831 165.983 112.114 170.023 122.888C174.063 133.661 194.151 127.377 203.69 122.888L237.358 132.988L260.926 144.772H306.377L348.462 161.605L388.864 144.772L415.797 161.605C432.631 155.994 467.309 148.138 471.35 161.605C475.39 175.073 506.701 155.994 521.851 144.772Z" fill="#F3EBEB"/>
</svg>
