<svg width="800" height="391" viewBox="0 0 800 391" fill="none" xmlns="http://www.w3.org/2000/svg">
<path d="M793.832 257.343L707.894 260.032L679.37 276.861C671.185 267.668 652.403 248.795 642.752 246.841C633.102 244.887 607.419 284.894 595.784 305.143L617.497 309.54L605.772 367.443L562.344 358.649L512.686 331.012L474.602 308.23L407.048 294.55L341.297 333.978L314.848 290.949L236.636 292.691C234.183 308.938 228.209 344.23 223.933 355.42C218.589 369.408 199.746 375.638 166.427 378.937C139.772 381.576 111.853 387.978 101.225 390.849L70.042 309.187C49.6312 298.356 7.75276 274.471 3.52585 265.578C-1.75781 254.462 -0.171216 197.016 2.27166 184.953C4.22596 175.302 54.6964 132.78 79.6873 112.724L120.365 60.6839L180.374 -1.44007e-05L240.691 12.2145L325.133 29.3146C336.714 31.6597 376.889 54.8648 395.528 66.1741L412.417 69.5941L467.786 131.039C486.935 131.567 527.254 135.044 535.341 144.719C543.428 154.394 544.453 170.005 543.954 176.602L612.884 220.7L691.096 218.957L799.695 228.391L793.832 257.343Z" fill="#F3EBEB"/>
</svg>
