<svg width="1280" height="267" viewBox="0 0 1280 267" fill="none" xmlns="http://www.w3.org/2000/svg">
<path d="M485.668 50.1138L477.585 53.5306V55.5238V124.43H788.4V73.747L767.826 62.927L740.884 46.1275L722.514 37.3006L709.778 28.7585L697.531 26.7653H687.489L686.02 32.7448H681.121L676.957 37.3006L670.834 35.8769H663.486C659.894 35.0227 652.464 33.2004 651.485 32.7448C650.505 32.2892 644.708 31.0364 641.933 30.4669L626.992 24.7722L619.154 20.2164L610.092 14.5216L596.621 3.98634L586.579 0H577.761L565.27 6.83368L559.147 8.54212L548.615 6.83368L520.448 26.7653L507.467 39.009L485.668 50.1138Z" fill="#D9B19B"/>
<path d="M507.381 39.199L477.5 53.9773L367 94.0655L0 153V259.5L1280 266.5V196L977.5 119L834 98L788.314 73.3157L778.723 68.095L768.767 62.7529L754.198 54.4969L742.056 46.2409L735.864 56.9251H720.324L706.847 52.3114L702.719 48.1834L692.035 45.2696C688.442 44.7578 684.03 40.9288 683.05 40.6559C682.07 40.383 680.363 37.719 677.587 37.3778L671.759 35.3138H664.96L641.847 29.6074L622.83 39.199L604.011 40.6559L593.691 35.3138L580.093 36.7707L566.616 35.3138L557.632 39.199L545.976 35.3138H530.557L507.381 39.199Z" fill="#6B8B6B"/>
<path d="M739.75 76.1084C733.153 70.2401 719.911 58.188 719.717 56.9253H735.864L742.178 46.1196L765.974 61.9032L788.436 72.5874C788.355 78.0914 917.306 108.737 917.5 110C917.694 111.263 811.619 97.9021 810 96C805.872 95.0287 770.758 83.6359 768.038 83.6359C765.319 83.6359 755.169 77.3225 750.434 74.1658L739.75 76.1084Z" fill="#5A775A"/>
<path d="M618.338 58.7463L602.554 42.9628L604.375 41.0202L622.709 38.7134C624.53 42.9628 628.561 52.9186 630.115 58.7463C634.728 61.903 641.649 63.7242 643.956 64.6955L648.691 55.2254L652.454 51.4616V64.6955V79.1435L684.143 94.9271L707.818 107.433L713.646 124.309L815 154L881.5 254.5L684.143 168.5L678.194 124.309V115.324C667.874 108.97 646.578 95.9955 643.956 94.9271C641.333 93.8587 625.784 83.9595 618.338 79.1435V58.7463Z" fill="#5A775A"/>
<path d="M478 144.162L498 126.411H503.5L512 122.947L503.5 113.422L512 100V108.659L525 122.947L512 144.162L531 148.492V160.615C536.833 161.913 549.3 165.031 552.5 167.109C555.7 169.187 578.833 175.48 590 178.366C597 183.85 611.4 195.858 613 200.014C614.6 204.17 620.667 220.219 623.5 227.723L604 204.344L575.5 189.19H568L572 200.014L562 209.106V200.014L521.5 172.304L498 164.511L445.5 172.304L410.5 189.19L387 222.528L373.5 227.723L377 211.704H353.5L316 232.486L286 245.908C278 245.619 261.4 245.215 259 245.908C256.6 246.601 243 252.258 236.5 255L262 232.486L316 211.704L370 178.366L445.5 160.615L478 144.162Z" fill="#5A775A"/>
</svg>
