<svg width="1280" height="200" viewBox="0 0 1280 200" fill="none" xmlns="http://www.w3.org/2000/svg">
<path d="M-0.352539 0C0.293926 0 114.136 4.73747 114.136 4.73747V16.1042C114.136 16.1042 103.179 11.3667 103.179 16.1042C103.179 20.8416 104.86 47.7789 104.86 47.7789L502.5 35.8787L528.148 23.8814H548.092V35.8787H551.809L556.835 23.8814H566.112L577.07 35.8787L582.742 23.8814L588.771 19.8877L592.165 27.7781L595.623 35.8787V23.8814H626.815L637.32 35.8787H646.209L655.486 23.8814C655.486 23.8814 655.486 23.1376 660.544 23.8814C665.603 24.6252 668.14 30.3004 668.14 30.3004L679.938 35.8625H684.997L680.779 23.8652L695.114 19.8715V31.2382L711.971 35.8625V23.8652H719.567L723.155 35.8625H738.12L744.86 31.2382C744.86 31.2382 753.296 22.1837 755.817 23.8652C758.338 25.5468 780.011 23.8652 780.011 23.8652H797.983L820.755 28.3925L830.872 23.8652C830.872 23.8652 843.526 20.2919 846.468 23.8652C849.409 27.4385 862.064 30.2842 862.064 30.2842H872.181V23.8652H880.617V31.2382C880.617 31.2382 888.213 32.1922 894.112 31.2382C900.011 30.2842 924.464 19.8715 924.464 19.8715L919.405 31.2382H928.682L934.516 23.8652H947.235L951.874 37.3985L959.89 23.8652H1008.79L1072.15 35.8625L1280.65 199.926H-0.352539V0Z" fill="#DEC8BF"/>
</svg>
