<svg width="1280" height="274" viewBox="0 0 1280 274" fill="none" xmlns="http://www.w3.org/2000/svg">
<path d="M-0.352539 55.249L132.9 59.469L177.587 41.748H189.385V5.48124H193.603V25.951C193.603 25.951 219.526 27.2122 219.526 23.7197V8.21378H224.262V24.3503H248.924V9.16774L253.983 8.84436V24.6575L314.056 23.7035V16.4276H318.791V23.3802L342.823 24.0107V15.7808H348.835V23.3802L356.738 23.0568V17.9959L362.75 18.3193V28.441H375.486V23.3802H382.985V27.487H395.138V49.315L406.71 49.6384L434.217 40.4706L440.536 40.1472V0H445.595V23.7197L465.199 24.0431V19.3056L484.48 18.675V23.7359L511.987 24.6898L513.328 29.7507L517.11 32.2892V43.6721L533.821 57.9006H526.144V62.0075H653.983L676.334 80.5047L734.613 80.0358L777.296 79.7124L797.854 53.147L888.924 55.249L904.423 74.4575H916.124V64.8533L938.896 63.8993L951.858 56.6233L973.999 55.249V18.6589L969.264 17.7049L968.633 12.644L983.502 2.19896L998.047 12.3207V17.0581C998.047 17.0581 992.924 20.2272 992.488 21.4884C992.051 22.7496 992.488 52.1769 992.488 52.1769L1008.41 50.7378L1279.68 40.794V247.852L1233.85 273.334L-0.352539 247.868V55.249Z" fill="#C4ADA4"/>
</svg>
