<svg width="1280" height="393" viewBox="0 0 1280 393" fill="none" xmlns="http://www.w3.org/2000/svg">
<path d="M975.664 393L721.926 164.566L639.647 194.204V393H975.664Z" fill="#E7D1C2"/>
<path d="M721.926 164.566L810.282 194.737L1139.98 393H975.664L721.926 164.566Z" fill="#CEC2B9"/>
<path d="M-0.352539 164.567C-0.352539 164.567 140.108 145.698 139.575 147.864C139.041 150.031 -0.352539 93.9573 -0.352539 93.9573V164.567Z" fill="#CDAAAA"/>
<path d="M128.795 215.223L126.646 316.004L404.076 195.821L330.282 164.566L128.795 215.223Z" fill="#CDAAAA"/>
<path d="M114.783 393C118.548 392.531 393.845 231.926 393.845 231.926L438.565 242.711L244.625 393H114.799H114.783Z" fill="#CDAAAA"/>
<path d="M639.647 240.285L610.411 246.478L582.403 393H639.647V240.285Z" fill="#EBC3C2"/>
<path d="M392.843 200.688L393.845 231.926L114.783 393H-0.352539V164.567L128.746 148.398L126.645 316.004L392.843 200.688Z" fill="#FCD4D2"/>
<path d="M1279.65 1.26123L1105.49 23.8976L979.979 90.1899L1279.65 95.0406V1.26123Z" fill="#FCD4D2"/>
<path d="M1279.65 95.0404L997.401 90.4646V97.9993L1006.19 104.289L1006.37 121.897L1279.65 143.45V95.0404Z" fill="#D9D4D0"/>
<path d="M1279.65 165.197L1007.63 132.488L1011.4 126.57L1011.07 122.269L1279.65 143.45V165.197Z" fill="#B4AFAA"/>
<path d="M1253.64 169.854L1250.94 175.254L1252.3 182.077L1262.61 185.667L1270.16 179.022L1268.72 168.609L1259.2 165.197L1254 163.58L1234.61 166.442L1207.13 157.469L1199.41 161.414V171.568L1207.13 177.405L1215.39 174.527L1215.57 167.703L1211.27 165.197L1212.16 163.758L1231.02 171.568L1251.67 168.431L1253.64 169.854Z" fill="#F0E8E0"/>
<path d="M1111.57 152.876L1109.9 156.45L1110.73 160.993L1117.11 163.37L1121.78 158.956L1120.89 152.036L1115.01 149.772L1111.79 148.689L1099.78 150.613L1082.8 144.646L1078.02 147.266V154.008L1082.8 157.889L1087.91 155.981L1088.02 151.437L1085.35 149.772L1085.9 148.818L1097.57 154.008L1110.34 151.922L1111.57 152.876Z" fill="#F0E8E0"/>
<path d="M1024.08 141.882L1022.9 144.42L1023.5 147.605L1027.99 149.287L1031.29 146.183L1030.66 141.3L1026.51 139.699L1024.25 138.939L1015.79 140.297L1003.82 136.093L1000.44 137.937V142.69L1003.82 145.423L1007.41 144.081L1007.49 140.879L1005.61 139.699L1006 139.036L1014.23 142.69L1023.23 141.219L1024.08 141.882Z" fill="#F0E8E0"/>
<path d="M639.648 199.685L397.401 198.715L392.844 200.688L392.924 202.919L639.648 206.864V199.685Z" fill="#D1CBC6"/>
<path d="M496.197 270.472L606.096 269.033L610.411 246.478L639.648 240.285V206.864L392.924 202.919L393.846 231.926L438.565 242.71L432.116 247.707L432.278 269.745L496.197 270.472Z" fill="#D7D8D5"/>
<path d="M432.116 247.707L432.213 262.291L262.581 391.917L244.625 393L432.116 247.707Z" fill="#B3B1AF"/>
<path d="M432.213 262.291V307.289L425.813 310.264V267.19L432.213 262.291Z" fill="#959493"/>
<path d="M487.486 328.858L467.559 336.134L469.708 328.858L493.142 320.354L487.486 328.858Z" fill="#BABBB1"/>
<path d="M282.767 172.829L162.783 159.554L116.932 170.727L119.89 222.192L154.46 226.59L292.932 186.006L282.767 172.829Z" fill="#AFA389"/>
<path d="M258.185 176.418L155.51 171.568L128.165 176.418L98.3949 132.342L100.124 129.173L157.757 122.705L176.456 122.237L264.068 127.281V172.409L258.185 176.418Z" fill="#C2C0BF"/>
<path d="M452.528 89.3652L432.019 126.133H620.318L613.95 89.6724L452.528 89.3652Z" fill="#CB9582"/>
<path d="M912.924 171.438L940.754 111.452C940.754 111.452 825.231 104.758 822.71 107.264C820.189 109.77 770.427 132.86 770.427 132.86L912.924 171.438Z" fill="#CB9582"/>
<path d="M912.924 171.438L1162.07 170.161L1127.52 109.98L940.738 111.452L912.924 171.438Z" fill="#B78677"/>
<path d="M912.924 171.438V255.225L809.345 193.962L780.011 184.05V135.447L912.924 171.438Z" fill="#F2F0EF"/>
<path d="M1154.93 169.627L1155.77 295.906L987.058 299.075L912.924 255.225V171.438L1154.93 169.627Z" fill="#D6D4D0"/>
<path d="M1244.93 334.162L1052.5 337.783L1145.86 393H1251.25L1244.93 334.162Z" fill="#AEADAE"/>
<path d="M560.439 126.133H442.459V185.893H560.439V126.133Z" fill="#D6D4D0"/>
<path d="M616.375 126.133H560.439V192.959H616.375V126.133Z" fill="#F2F0EF"/>
<path d="M560.439 185.893H442.459L435.93 195.821H620.367L616.375 192.959H560.439V185.893Z" fill="#CB9582"/>
<path d="M295.793 84.1104C296.035 84.2721 258.589 116.868 258.589 116.868L258.185 120.183L297.231 86.1638L334.807 107.765L375.518 102.478L347.462 80.9736L295.809 84.1427L295.793 84.1104Z" fill="#BC816F"/>
<path d="M325.934 132.342H258.185L242.912 148.834L330.977 147.896L325.934 132.342Z" fill="#CB9582"/>
<path d="M54.7101 110.757L64.2778 100.781H134.258L157.757 122.705L100.124 129.173L54.7101 110.757Z" fill="#BC816F"/>
<path d="M134.258 100.781H264.068L276.625 101.088L258.605 116.869L258.185 120.183L157.757 122.705L134.258 100.781Z" fill="#D29180"/>
<path d="M169.684 129.173L197.401 100.781H237.142L258.185 120.183L232.94 129.173L197.967 103.303L170.815 129.804L169.684 129.173Z" fill="#BC816F"/>
<path d="M370.896 103.06V180.315L334.807 165.488V107.749L370.896 103.06Z" fill="#D6D4D0"/>
<path d="M334.807 107.749L297.231 86.1477L258.185 120.183V132.342H325.934L330.977 147.897L326.952 147.945V164.841L334.807 165.488V150.742V107.749Z" fill="#F2F0EF"/>
<path d="M326.952 147.945C323.138 147.783 245.288 148.883 245.288 148.883V185.311L326.952 164.841V147.929V147.945Z" fill="#F2F0EF"/>
<path d="M197.967 103.303L170.815 129.803H176.876L177.296 184.955H187.413L188.674 132.342H221.353L223.243 186.006H234.007V138.341L258.185 130.321V120.183L232.94 129.173L197.967 103.303Z" fill="#F2F0EF"/>
<path d="M149.886 174.899L148.415 167.348L149.142 163.855L148.415 160.589L149.886 154.898L151.502 147.735L148.415 144.647V141.623C148.415 141.623 150.451 135.932 151.502 134.881C152.552 133.83 155.3 129.189 155.3 129.189L157.74 131.097L159.082 133.846C159.082 133.846 160.763 132.585 160.763 131.307C160.763 130.03 161.183 128.559 161.183 128.559L163.284 131.517L166.661 130.887L169.651 132.358V136.789L171.09 139.747V143.547L173.837 151.745V159.781L174.888 158.73V161.042L177.134 166.103L175.098 170.953L174.888 174.688V178.116L168.569 182.546L153.813 178.747L149.87 174.915L149.886 174.899Z" fill="#A1A383"/>
<path d="M239.244 186.718C238.775 186.249 237.692 182.579 237.692 182.579L229.466 180.363C229.466 180.363 225.361 182.74 224.569 182.579C223.777 182.417 219.349 181.123 219.349 181.123L216.035 177.211L209.086 175.157L200.068 179.636C200.068 179.636 197.854 179.587 196.593 178.472C195.332 177.356 193.587 174.51 192.957 175.157C192.326 175.804 189.159 178.633 189.159 178.633L184.423 178.165L178.104 176.58V175.06H171.462L170.831 178.941L157.773 177.049C157.773 177.049 152.973 174.963 152.019 175.06C151.066 175.157 145.215 174.171 144.585 175.06C143.955 175.949 140.157 179.636 140.157 179.636L135.567 176.257H130.508C129.409 176.257 128.132 177.518 128.132 177.518L127.373 198.246L129.248 199.507H133.353L135.89 197.923C135.89 197.923 136.682 198.392 137.474 198.553C138.266 198.715 140.318 199.507 140.318 199.507H142.371C143.47 199.507 146.169 198.408 146.169 198.408L148.448 196.516C148.448 196.516 151.066 197.147 151.551 197.147C152.035 197.147 153.603 197.308 153.603 197.308L157.078 197.632L158.823 198.262H162.783L164.205 196.84C164.205 196.84 164.674 196.209 165.159 196.209H169.264L170.848 198.101L171.947 199.524L174.322 198.101C174.322 198.101 174.791 197.147 176.068 197.147C177.345 197.147 181.126 196.823 181.126 196.823L184.601 196.662L186.347 198.085L190.145 197.923L193.312 196.5L196.965 197.325L239.292 186.718H239.244Z" fill="#BBBD95"/>
<path d="M599.648 299.075L429.999 296.86L426.896 260.254L393.49 240.932L385.409 226.558L389.724 198.004L641.312 199.346L639.648 240.932L608.941 247.497L603.058 280.125L599.648 299.075Z" fill="#C1C1BF"/>
<path d="M425.732 261.968L428.787 280.125L428.157 297.846L427.251 312.398L336.035 393H258.185L425.732 261.968Z" fill="#9D9FA1"/>
<path d="M599.648 299.075H987.058L1155.77 295.906V261.968L1233.81 295.906L1234.09 334.162L1052.5 337.784L589.692 354.357L582.726 393H336.035L395.155 331.122L416.86 308.405L428.787 295.906L599.648 299.075Z" fill="#AFA389"/>
<path d="M625.684 195.821L637.32 196.548L637.352 199.329L396.916 198.036L403.736 195.821H625.684Z" fill="#E1E0DA"/>
<path d="M1052.5 337.783L1045 140.572L1018.06 136.53L1017.07 316.829L1052.5 337.783Z" fill="#FFFCF4"/>
<path d="M1101.01 152.699L1103.49 367.938L1145.86 393H1149.5L1139.27 154.865L1115.56 147.848L1101.01 152.699Z" fill="#FFFCF4"/>
<path d="M1234.9 163.208L1233.81 393H1279.65V167.25L1234.9 163.208Z" fill="#FFFCF4"/>
<path d="M479.777 132.342H460.803V159.554H479.777V132.342Z" fill="#ABACAD"/>
<path d="M513.36 132.342H494.387V159.554H513.36V132.342Z" fill="#ABACAD"/>
<path d="M606.662 138.761H570.831V159.004H606.662V138.761Z" fill="#D6D4D0"/>
<path d="M-0.352539 163.871L148.431 148.769L-0.352539 88.4111V163.871Z" fill="#CB9582"/>
<path d="M129.118 150.742L122.928 318.009L395.155 198.812V231.78L122.928 393H-0.352539V163.871L129.118 150.742Z" fill="#E1E0DA"/>
<path d="M126.742 214.852L330.864 163.871L405.207 194.414L122.928 318.009L126.742 214.852Z" fill="#CB9582"/>
<path d="M122.928 393L395.155 231.781L437.627 246.769L244.771 393H122.928Z" fill="#CB9582"/>
<path d="M432.019 251.038V261.143L259.494 393H244.771L432.019 251.038Z" fill="#E1E0DA"/>
<path d="M637.32 195.756L639.648 393H995.736L723.155 164.858L637.32 195.756Z" fill="#E6AB87"/>
<path d="M995.736 393H1145.86L809.344 193.962L723.155 164.858L995.736 393Z" fill="#C69476"/>
<path d="M637.32 240.932L608.94 247.496L582.726 393H639.648L637.32 240.932Z" fill="#CB9582"/>
<path d="M430.936 261.968L432.779 314.953H426.185L424.795 266.673L430.936 261.968Z" fill="#CDCACD"/>
<path d="M407.195 280.125L407.858 323.975L399.922 326.805L398.354 286.868L407.195 280.125Z" fill="#CDCACD"/>
<path d="M328.827 340.015L330.427 384.204V391.933H316.011L317.207 348.891L328.827 340.015Z" fill="#CDCACD"/>
<path d="M-0.352539 198.004L100.124 181.107L97.9586 240.932L-0.352539 271.863V198.004Z" fill="#A6A4A9"/>
<path d="M1279.65 0L1115.83 21.0195L976.31 88.9287L1279.65 97.0131V0Z" fill="#E6AB87"/>
<path d="M992.472 89.3652V102.397L1004.32 105.098V121.266L1279.65 144.436V97.0131L992.472 89.3652Z" fill="#F8F1ED"/>
<path d="M1279.65 144.436L1004.32 121.266V132.859L1279.65 163.208V144.436Z" fill="#CFC9C5"/>
<path d="M1279.65 184.05H1264.97L1255.99 181.544L1252.58 174.72L1254.02 169.676L1231.21 172.376L1228.51 173.993L1209.12 175.61L1201.39 171.665L1198.53 165.375L1201.57 159.619L1207.32 157.824L1206.92 155.188L1279.65 163.208V184.05Z" fill="#D7D3CD"/>
<path d="M1159.71 149.982L1162.07 154.218L1159.71 161.397L1154.72 163.192L1115.03 164.275L1108.74 157.129L1106.94 153.507L1100.12 155.189L1091.14 157.129H1084.14L1078.58 152.602C1078.58 152.602 1078.05 149.368 1078.05 148.834C1078.05 148.301 1081.1 143.272 1081.1 143.272L1080.91 141.3L1159.73 149.998L1159.71 149.982Z" fill="#D7D3CD"/>
<path d="M1062.26 139.246L1063.13 143.272L1062.26 147.589L1049.65 148.85H1025.41L1022.37 145.794L1021.11 142.237L1015.91 143.094L1013.03 144.436L1007.45 145.794L1002.78 145.617L1000.81 140.216L1002.25 136.093L1004.32 132.859L1062.26 139.246Z" fill="#D7D3CD"/>
<path d="M534.015 343.038L527.017 344.154L513.377 344.688L507.623 339.562C507.623 339.562 502.5 329.052 502.5 327.969C502.5 326.886 507.074 319.61 506.54 317.993C506.007 316.376 507.074 306.044 507.074 306.044C507.074 306.044 507.348 298.994 508.69 299.059C510.031 299.124 511.373 297.911 511.373 297.911C511.922 296.165 513.361 288.452 513.361 288.452L512.197 284.588C512.197 284.588 510.856 282.971 510.856 281.629C510.856 280.287 513.555 275.695 513.555 275.695L515.445 277.587L519.211 272.203L519.486 268.694L519.211 261.968H522.751L525.126 266.527L527.017 261.968H531.591L530.249 267.886L534.015 267.352L536.181 269.777V274.353L537.781 278.929L541.821 280.109L542.355 286.48V290.797L546.395 296.181V302.374L548.076 308.841V314.953L546.395 337.137L533.999 343.038H534.015Z" fill="#AEAE8A"/>
<path d="M573.514 356.054L583.486 354.162C583.486 354.162 588.06 349.991 588.205 348.778C588.351 347.566 589.288 339.885 588.884 338.802C588.48 337.719 584.714 335.568 584.439 336.506C584.165 337.444 582.726 336.28 582.726 336.28L581.87 328.826L580.383 321.016C580.383 321.016 578.767 324.525 577.829 321.016C576.892 317.508 576.617 312.123 576.617 312.123L576.213 307.532C576.213 307.532 575.938 305.106 574.597 305.381C573.256 305.656 572.173 307.273 571.365 306.319C570.557 305.365 569.345 300.126 569.345 300.126L569.07 295.001L567.05 289.342C567.05 289.342 561.522 286.512 561.522 289.342V292.171L558.565 290.425L556.011 290.958L553.991 294.596L551.793 294.322L549.805 298.897L547.785 306.173L548.318 311.024L544.278 310.49L540.916 312.107C540.916 312.107 540.108 318.834 539.979 319.238C539.85 319.642 537.28 320.855 537.28 320.855C537.28 320.855 535.47 323.959 536.165 324.768C536.86 325.576 538.088 328.939 538.088 328.939L540.512 334.065L549.805 340.128L573.514 356.022V356.054Z" fill="#BBBD95"/>
<path d="M576.342 386.775L581.87 383.266C581.87 383.266 582.548 381.924 582.548 378.691C582.548 375.457 580.803 368.714 581.87 366.693C582.936 364.672 584.698 359.692 584.698 359.692C584.698 359.692 583.211 356.458 582.403 356.054C581.595 355.65 578.896 355.375 578.896 355.375C578.896 355.375 577.555 351.203 577.15 349.716C576.746 348.228 576.342 344.332 576.342 344.332C576.342 344.332 573.789 343.394 573.789 342.44C573.789 341.486 574.322 337.994 574.322 335.972C574.322 333.951 574.047 330.847 574.047 330.847L573.773 324.509C573.773 324.509 570.411 321.809 569.862 322.083C569.312 322.358 568.779 322.488 568.375 323.296C567.971 324.105 569.587 327.338 567.971 324.105C566.355 320.871 565.821 317.993 565.821 317.993L563.93 312.382C563.93 312.382 560.973 311.703 560.698 312.511C560.423 313.32 557.87 316.958 557.87 316.958C557.87 316.958 555.849 316.149 554.637 316.149C553.425 316.149 550.468 319.917 550.468 320.467C550.468 321.016 549.256 324.784 549.256 324.784C549.256 324.784 547.639 325.463 546.961 325.317C546.282 325.172 542.387 326.53 541.983 326.934C541.579 327.338 540.496 329.764 540.496 330.572V334.081C540.496 334.081 537.538 331.655 536.989 334.614C536.439 337.573 535.647 337.719 536.585 339.74C537.522 341.761 536.714 346.482 536.714 346.482L537.926 349.457L539.268 353.758L540.609 358.075L576.294 386.775H576.342Z" fill="#A1A383"/>
<path d="M403.639 322.762C403.639 322.762 405.53 317.799 405.53 316.78C405.53 315.761 408.488 312.398 408.488 312.398C408.488 312.398 409.021 309.698 408.488 307.822C407.955 305.947 407.809 303.376 407.551 302.438C407.292 301.5 408.488 296.909 408.488 296.909C408.488 296.909 412.254 292.058 413.466 292.058C414.678 292.058 421.821 292.737 421.821 292.737L423.437 296.779C423.437 296.779 426.945 299.075 427.349 298.93C427.753 298.784 428.157 297.846 428.157 297.846C428.157 297.846 430.856 299.059 431.26 299.593C431.664 300.126 431.664 299.867 431.793 300.805C431.922 301.743 432.197 304.039 432.197 304.039L433.942 306.739C433.942 306.739 434.347 304.589 434.751 304.718C435.155 304.847 436.496 306.739 436.496 307.418C436.496 308.097 436.367 313.611 436.367 314.29C436.367 314.969 437.708 318.025 437.708 318.025L438.791 319.949C438.791 319.949 439.874 319.674 440.132 321.291C440.391 322.908 441.07 331.801 441.07 332.884V335.439C441.07 335.439 442.411 341.098 442.815 341.098C443.219 341.098 444.561 342.036 444.561 342.44C444.561 342.844 446.048 344.995 445.902 346.886C445.757 348.778 445.773 353.758 445.773 353.758C445.773 353.758 445.902 355.1 444.431 357.526C442.961 359.951 441.603 362.247 441.603 362.247L438.775 367.777C438.775 367.777 436.076 371.544 434.734 372.627C433.393 373.711 428.399 374.923 428.399 374.923L424.229 378.028L418.573 379.919L412.383 378.707L403.623 322.795L403.639 322.762Z" fill="#BBBD95"/>
<path d="M409.248 391.933C409.248 391.933 413.74 386.371 413.918 385.821C414.096 385.271 417.328 378.448 417.328 377.737C417.328 377.025 419.85 367.13 419.85 367.13L417.7 368.035L417.878 364.446L419.85 357.8V353.855L417.7 348.293H416.084C416.084 348.293 415.373 348.827 414.565 345.415C413.757 342.004 411.963 335.536 411.963 335.536C411.963 335.536 411.252 332.658 410.169 332.302C409.086 331.946 407.47 331.219 407.47 331.219C407.47 331.219 404.771 333.369 405.223 329.602C405.676 325.835 406.565 324.509 405.223 322.019C403.882 319.529 403.155 318.009 403.155 318.009C403.155 318.009 400.456 316.198 399.567 316.974C398.678 317.75 395.979 322.019 395.979 322.019C395.979 322.019 392.924 323.959 391.842 322.019C390.759 320.079 387.171 318.009 387.171 318.009L384.472 322.763L382.145 325.818C382.145 325.818 379.268 329.958 380.173 330.669C381.078 331.381 382.145 332.82 382.145 333.725C382.145 334.63 381.433 336.425 379.446 336.959C377.458 337.492 375.502 338.22 375.502 338.22L374.419 340.92V343.976C374.419 343.976 373.886 346.854 373.336 346.676C372.787 346.498 370.46 345.237 370.46 345.237L368.844 347.032V350.977C368.844 350.977 370.282 353.968 370.282 354.357C370.282 354.745 368.844 357.8 368.844 357.8C368.844 357.8 367.938 356.717 367.405 357.623C366.872 358.528 365.256 361.212 365.256 362.118C365.256 363.023 365.967 367.502 365.967 367.502V373.064C365.967 374.325 363.446 376.653 363.446 378.626C363.446 380.599 365.239 384.916 365.239 384.916C365.239 384.916 366.322 385.627 367.389 386.71C368.456 387.794 373.143 391.917 373.143 391.917H409.231L409.248 391.933Z" fill="#A1A383"/>
<path d="M522.75 391.933H580.803C580.803 391.933 580.932 387.309 580.803 385.967C580.674 384.625 576.229 379.37 576.229 379.37L575.146 379.903C574.338 380.308 571.914 378.012 571.914 378.012L569.619 368.585C569.619 368.585 568.682 368.989 568.132 368.585C567.583 368.181 565.837 368.585 565.837 368.585C565.837 368.585 565.708 365.222 565.304 363.735C564.9 362.247 562.75 355.65 562.75 355.65L560.051 356.329L557.352 354.373L557.757 349.603L556.544 345.965L552.779 344.882L551.163 346.903C551.163 346.903 549.676 347.436 549.013 347.032C548.35 346.628 547.93 345.69 547.122 345.415C546.314 345.14 542.548 343.523 542.548 343.523H540.932C540.932 343.523 540.399 342.44 539.995 343.523C539.591 344.607 539.058 345.011 539.462 347.161C539.866 349.312 538.654 350.395 538.654 351.608C538.654 352.821 537.571 356.054 536.633 356.184C535.696 356.313 534.613 356.717 534.613 356.717C534.613 356.717 534.888 361.164 535.421 362.101C535.955 363.039 536.359 364.252 536.1 365.61C535.841 366.968 533.546 368.035 533.546 368.569C533.546 369.103 532.609 368.973 533.546 371.803C534.484 374.632 534.759 374.357 534.629 375.974C534.5 377.591 532.48 380.55 532.48 380.55C532.48 380.55 529.247 381.892 529.118 382.571C528.989 383.25 528.585 382.038 528.714 383.913C528.843 385.789 529.118 386.209 528.843 387.147C528.569 388.085 526.823 388.085 526.823 388.085L523.72 389.572L522.783 391.901L522.75 391.933Z" fill="#BBBD95"/>
<path d="M373.256 306.06L374.726 350.395L368.843 357.8L363.462 356.992V313.546L373.256 306.06Z" fill="#CDCACD"/>
<path d="M325.934 393H388.06L391.647 382.231V377.559H388.06C388.06 377.559 384.827 376.847 384.827 375.764C384.827 374.681 385.538 370.735 385.538 370.735L383.744 364.268L378.718 367.502L376.197 361.034V354.922C376.197 354.922 372.254 349.538 371.171 349.538H367.938L364.706 354.211L360.391 349.538H352.132L345.312 352.416V356.733L341.724 359.967L338.379 362.845L340.286 367.518L339.93 369.668L336.342 371.285C335.631 375.069 335.631 378.658 335.631 378.658L334.92 382.248L331.332 382.603L328.811 382.248L327.373 385.481C327.373 385.481 329.522 386.565 329.522 388.004C329.522 389.443 325.934 393.032 325.934 393.032V393Z" fill="#BBBD95"/>
<path d="M454.549 345.496L451.316 337.411C451.316 337.411 451.85 335.892 451.316 331.93C450.783 327.969 449.425 316.78 449.425 316.78L456.698 316.667C456.698 316.667 458.589 313.158 458.039 310.199C457.49 307.24 456.698 303.473 456.698 303.473C456.698 303.473 458.589 297.232 459.381 297.248C460.173 297.264 463.696 295.389 463.696 295.389L464.779 284.07L466.67 276.52L469.094 263.31C469.094 263.31 471.243 262.259 472.052 261.984C472.86 261.709 478.241 267.627 478.241 267.627C478.241 267.627 480.132 267.093 480.666 265.201C481.199 263.31 480.666 258.734 480.666 258.734L483.623 258.459L488.747 260.884L492.787 267.627C492.787 267.627 491.979 275.711 493.87 275.178C495.761 274.644 500.06 273.561 500.06 273.561L502.209 276.794L503.551 286.221L501.934 296.456L503.551 306.06C503.551 306.06 506.508 314.856 506.508 314.953V328.244L515.397 335.972L515.122 343.038L513.328 349.441L506.508 351.947C506.508 351.947 481.732 352.756 480.65 353.031C479.567 353.305 469.336 354.34 469.336 354.34C469.336 354.34 464.488 352.222 464.488 351.139C464.488 350.055 454.516 345.48 454.516 345.48L454.549 345.496Z" fill="#A1A383"/>
<path d="M1021.11 142.237L1022.14 146.668L1025.18 148.608L1028.4 148.85L1031.57 144.129L1030.24 140.847L1026.99 138.05L1021.29 135.77L1014.6 138.777L1006.47 134.703H1002.98L1001.09 138.745L1002.07 143.628L1004.32 146.328L1007.55 144.129V141.3L1006.74 138.745L1014.66 144.372L1021.11 142.237Z" fill="#F8F1ED"/>
<path d="M1099.38 155.286L1088.44 149.158L1089.15 152.796L1088.13 157.145L1084.16 157.517L1080.28 154.914L1078.66 150.322L1080.28 144.663L1085.13 141.3L1098.86 147.896L1111.52 144.663L1118.53 145.746L1122.02 153.297V160.573L1115.41 164.275L1110.66 161.106L1108.93 156.644L1111.16 153.265L1099.38 155.286Z" fill="#F8F1ED"/>
<path d="M1233.65 172.602L1253.4 169.546L1250.88 174.219C1250.88 174.219 1250.35 178.892 1250.88 179.426C1251.41 179.959 1256.44 184.632 1256.44 184.632L1263.62 185.893L1269.37 181.043L1268.66 171.875C1268.66 171.875 1263.45 162.707 1262.37 162.173C1261.29 161.64 1254.65 160.557 1254.11 160.557C1253.58 160.557 1242.44 162.351 1242.44 162.351L1234.36 164.275C1234.36 164.275 1220.17 159.473 1219.64 159.473C1219.11 159.473 1207.62 156.951 1207.62 156.951L1200.07 160.185L1198.27 165.941L1202.59 174.737L1208.88 176.709C1208.88 176.709 1214.81 174.009 1214.81 173.475C1214.81 172.942 1214.63 167.913 1214.63 167.913L1212.66 165.035L1233.67 172.586L1233.65 172.602Z" fill="#F8F1ED"/>
<path d="M370.896 219.767V238.086L379.785 232.427L380.14 215.094L370.896 219.767Z" fill="#ABACAD"/>
<path d="M347.462 230.81V251.83L334.807 258.459V238.086L347.462 230.81Z" fill="#ABACAD"/>
<path d="M302.92 251.83L287.389 258.459V284.442L304.213 274.191L302.92 251.83Z" fill="#ABACAD"/>
<path d="M244.561 278.7L221.126 290.827V319.397L244.771 305.653L244.561 278.7Z" fill="#ABACAD"/>
<path d="M156.399 322.019C156.124 325.786 157.757 355.003 157.757 355.003L124.173 373.727L123.462 336.538L156.415 322.019H156.399Z" fill="#ABACAD"/>
</svg>
