<svg width="1280" height="720" viewBox="0 0 1280 720" fill="none" xmlns="http://www.w3.org/2000/svg">
<rect width="1280" height="694.825" fill="url(#paint0_linear_129_94)"/>
<path d="M628.106 414.647L622.356 417.077V418.495V467.516H843.474V431.46L828.837 423.762L809.67 411.811L796.602 405.531L787.541 399.454L778.829 398.036H771.685L770.639 402.29H767.154L764.192 405.531L759.836 404.518H754.608C752.053 403.911 746.767 402.614 746.07 402.29C745.373 401.966 741.25 401.075 739.275 400.669L728.646 396.618L723.07 393.377L716.623 389.326L707.039 381.831L699.895 378.995H693.622L684.736 383.856L680.38 385.072L672.887 383.856L652.849 398.036L643.614 406.746L628.106 414.647Z" fill="#D9B19B"/>
<path d="M643.553 406.881L622.295 417.395L543.684 445.914L282.595 487.841V563.607L1193.21 568.587V518.432L978.002 463.653L875.914 448.713L843.413 431.153L836.589 427.438L829.507 423.638L819.142 417.765L810.504 411.891L806.099 419.492H795.043L785.456 416.21L782.519 413.273L774.918 411.2C772.362 410.836 769.223 408.112 768.526 407.918C767.829 407.724 766.614 405.829 764.64 405.586L760.494 404.117H755.657L739.214 400.058L725.685 406.881L712.297 407.918L704.955 404.117L695.281 405.154L685.694 404.117L679.302 406.881L671.01 404.117H660.04L643.553 406.881Z" fill="#6B8B6B"/>
<path d="M808.863 433.139C804.17 428.965 794.75 420.391 794.611 419.492H806.099L810.591 411.805L827.52 423.034L843.499 430.634C843.442 434.55 935.179 456.352 935.317 457.25C935.455 458.149 859.992 448.644 858.84 447.291C855.904 446.6 830.923 438.495 828.988 438.495C827.053 438.495 819.833 434.003 816.464 431.757L808.863 433.139Z" fill="#5A775A"/>
<path d="M722.489 420.788L711.26 409.559L712.556 408.177L725.599 406.536C726.894 409.559 729.762 416.642 730.867 420.788C734.15 423.034 739.073 424.329 740.714 425.02L744.083 418.283L746.76 415.605V425.02V435.299L769.304 446.527L786.147 455.424L790.293 467.43L862.397 488.553L909.707 560.05L769.304 498.868L765.072 467.43V461.038C757.73 456.518 742.58 447.287 740.714 446.527C738.848 445.767 727.787 438.725 722.489 435.299V420.788Z" fill="#5A775A"/>
<path d="M622.651 481.554L636.879 468.925H640.792L646.839 466.461L640.792 459.685L646.839 450.136V456.297L656.087 466.461L646.839 481.554L660.356 484.634V493.258C664.506 494.182 673.375 496.4 675.651 497.878C677.928 499.357 694.385 503.833 702.329 505.887C707.309 509.788 717.553 518.331 718.692 521.288C719.83 524.245 724.146 535.662 726.162 541.001L712.289 524.368L692.014 513.587H686.678L689.524 521.288L682.41 527.756V521.288L653.597 501.575L636.879 496.03L599.53 501.575L574.63 513.587L557.912 537.304L548.308 541.001L550.798 529.604H534.08L507.402 544.389L486.059 553.937C480.368 553.732 468.558 553.444 466.851 553.937C465.144 554.43 455.468 558.455 450.844 560.405L468.985 544.389L507.402 529.604L545.818 505.887L599.53 493.258L622.651 481.554Z" fill="#5A775A"/>
<path d="M283 426.173C283.46 426.173 364.353 429.529 364.353 429.529V437.582C364.353 437.582 356.567 434.225 356.567 437.582C356.567 440.938 357.761 460.021 357.761 460.021L640.313 451.591L658.538 443.091H672.709V451.591H675.35L678.922 443.091H685.514L693.3 451.591L697.331 443.091L701.614 440.262L704.026 445.852L706.484 451.591V443.091H728.648L736.112 451.591H742.428L749.02 443.091C749.02 443.091 749.02 442.564 752.615 443.091C756.209 443.618 758.012 447.639 758.012 447.639L766.395 451.579H769.99L766.993 443.08L777.179 440.25V448.303L789.157 451.579V443.08H794.554L797.104 451.579H807.738L812.527 448.303C812.527 448.303 818.521 441.889 820.313 443.08C822.104 444.271 837.504 443.08 837.504 443.08H850.274L866.455 446.287L873.644 443.08C873.644 443.08 882.636 440.548 884.726 443.08C886.816 445.611 895.808 447.627 895.808 447.627H902.997V443.08H908.992V448.303C908.992 448.303 914.39 448.979 918.581 448.303C922.773 447.627 940.148 440.25 940.148 440.25L936.554 448.303H943.145L947.291 443.08H956.329L959.625 452.667L965.321 443.08H1000.07L1026.42 446.906L1054 478.509L283 486.173V426.173Z" fill="#DEC8BF"/>
<path d="M283.925 427.284L295.603 435.195L286.562 482.284L-0.494507 488.688V445.743H8.16999L10.807 451.393H18.3413H25.1221V439.715H29.6428V451.393H40.9441V430.674H46.2181V451.393H59.7799L75.6018 439.715H117.417L178.822 457.798H224.027V439.715H216.117V432.558L263.206 427.284H283.925Z" fill="#DEC8BF"/>
<path d="M283 455.588L377.732 458.599L409.501 445.956H417.888V420.083H420.887V434.686C420.887 434.686 439.316 435.586 439.316 433.095V422.032H442.683V433.544H460.216V422.713L463.812 422.482V433.764L506.519 433.083V427.892H509.886V432.852L526.971 433.302V427.431H531.245V432.852L536.863 432.622V429.011L541.137 429.242V436.463H550.191V432.852H555.522V435.782H564.162V451.355L572.389 451.585L591.944 445.045L596.437 444.814V416.173H600.033V433.095L613.97 433.325V429.945L627.677 429.496V433.106L647.232 433.787L648.186 437.397L650.875 439.208V447.329L662.755 457.48H657.297V460.41H748.18L764.07 473.606L805.502 473.271L835.846 473.04L850.461 454.088L915.204 455.588L926.223 469.292H934.541V462.44L950.73 461.759L959.945 456.568L975.686 455.588V429.484L972.319 428.803L971.871 425.193L982.442 417.741L992.782 424.962V428.342C992.782 428.342 989.14 430.603 988.83 431.503C988.52 432.402 988.83 453.396 988.83 453.396L1000.15 452.37L1193 445.276V592.993L1160.42 611.173L283 593.005V455.588Z" fill="#C4ADA4"/>
<path d="M251.475 455.912H282.292L295.509 464.753L274.909 494.182L-0.543213 505.365V450.039H14.7597L21.8226 442.976H54.7827L78.3256 455.912H196.04V425.319H207.812V455.912H216.052L222.325 446.334H244.396L251.475 455.912Z" fill="#C4ADA4"/>
<g clip-path="url(#clip0_129_94)">
<path d="M976.887 680.173L796.495 517.421L738 538.537V680.173H976.887Z" fill="#E7D1C2"/>
<path d="M796.495 517.421L859.311 538.917L1093.7 680.172H976.887L796.495 517.421Z" fill="#CEC2B9"/>
<path d="M283 517.421C283 517.421 382.859 503.977 382.48 505.521C382.101 507.065 283 467.114 283 467.114V517.421Z" fill="#CDAAAA"/>
<path d="M374.816 553.513L373.288 625.315L570.523 539.689L518.061 517.421L374.816 553.513Z" fill="#CDAAAA"/>
<path d="M364.854 680.173C367.531 679.839 563.25 565.413 563.25 565.413L595.043 573.096L457.164 680.173H364.866H364.854Z" fill="#CDAAAA"/>
<path d="M738 571.368L717.215 575.78L697.303 680.173H738V571.368Z" fill="#EBC3C2"/>
<path d="M562.538 543.156L563.25 565.412L364.854 680.172H283V517.421L374.782 505.901L373.288 625.315L562.538 543.156Z" fill="#FCD4D2"/>
<path d="M1193 401.071L1069.19 417.199L979.955 464.43L1193 467.886V401.071Z" fill="#FCD4D2"/>
<path d="M1193 467.886L992.341 464.626V469.994L998.591 474.475L998.717 487.02L1193 502.376V467.886Z" fill="#D9D4D0"/>
<path d="M1193 517.87L999.614 494.566L1002.29 490.349L1002.06 487.285L1193 502.376V517.87Z" fill="#B4AFAA"/>
<path d="M1174.51 521.188L1172.59 525.036L1173.56 529.897L1180.89 532.454L1186.26 527.72L1185.23 520.301L1178.47 517.87L1174.77 516.718L1160.98 518.757L1141.45 512.364L1135.95 515.175V522.409L1141.45 526.568L1147.32 524.517L1147.44 519.656L1144.39 517.87L1145.02 516.845L1158.43 522.409L1173.11 520.174L1174.51 521.188Z" fill="#F0E8E0"/>
<path d="M1073.51 509.092L1072.32 511.638L1072.91 514.875L1077.45 516.568L1080.77 513.424L1080.14 508.493L1075.95 506.88L1073.67 506.108L1065.13 507.479L1053.05 503.229L1049.65 505.095V509.898L1053.05 512.663L1056.68 511.304L1056.76 508.067L1054.87 506.88L1055.26 506.201L1063.56 509.898L1072.63 508.412L1073.51 509.092Z" fill="#F0E8E0"/>
<path d="M1011.31 501.259L1010.47 503.067L1010.9 505.337L1014.09 506.535L1016.43 504.323L1015.99 500.844L1013.03 499.704L1011.43 499.162L1005.42 500.13L996.902 497.135L994.501 498.448V501.835L996.902 503.782L999.453 502.826L999.51 500.545L998.178 499.704L998.453 499.231L1004.3 501.835L1010.7 500.787L1011.31 501.259Z" fill="#F0E8E0"/>
<path d="M738 542.442L565.778 541.751L562.538 543.156L562.596 544.746L738 547.557V542.442Z" fill="#D1CBC6"/>
<path d="M636.016 592.876L714.147 591.851L717.215 575.78L738 571.368V547.557L562.595 544.746L563.25 565.413L595.043 573.096L590.458 576.656L590.573 592.357L636.016 592.876Z" fill="#D7D8D5"/>
<path d="M590.458 576.656L590.527 587.047L469.929 679.401L457.164 680.173L590.458 576.656Z" fill="#B3B1AF"/>
<path d="M590.527 587.047V619.106L585.977 621.226V590.537L590.527 587.047Z" fill="#959493"/>
<path d="M629.823 634.474L615.656 639.658L617.184 634.474L633.844 628.414L629.823 634.474Z" fill="#BABBB1"/>
<path d="M484.28 523.308L398.979 513.85L366.382 521.81L368.485 558.478L393.062 561.611L491.507 532.696L484.28 523.308Z" fill="#AFA389"/>
<path d="M466.804 525.865L393.809 522.409L374.368 525.865L353.204 494.462L354.433 492.204L395.406 487.596L408.7 487.262L470.987 490.856V523.008L466.804 525.865Z" fill="#C2C0BF"/>
<path d="M604.97 463.843L590.39 490.039H724.258L719.731 464.061L604.97 463.843Z" fill="#CB9582"/>
<path d="M932.283 522.317L952.069 479.579C952.069 479.579 869.939 474.809 868.146 476.595C866.354 478.381 830.977 494.831 830.977 494.831L932.283 522.317Z" fill="#CB9582"/>
<path d="M932.283 522.317L1109.41 521.407L1084.85 478.53L952.057 479.579L932.283 522.317Z" fill="#B78677"/>
<path d="M932.283 522.317V582.012L858.644 538.364L837.79 531.302V496.674L932.283 522.317Z" fill="#F2F0EF"/>
<path d="M1104.33 521.027L1104.93 610.996L984.987 613.254L932.283 582.012V522.317L1104.33 521.027Z" fill="#D6D4D0"/>
<path d="M1168.32 638.252L1031.51 640.833L1097.89 680.173H1172.81L1168.32 638.252Z" fill="#AEADAE"/>
<path d="M681.688 490.039H597.812V532.616H681.688V490.039Z" fill="#D6D4D0"/>
<path d="M721.455 490.039H681.688V537.65H721.455V490.039Z" fill="#F2F0EF"/>
<path d="M681.688 532.616H597.812L593.17 539.689H724.293L721.455 537.65H681.688V532.616Z" fill="#CB9582"/>
<path d="M493.541 460.099C493.714 460.214 467.091 483.438 467.091 483.438L466.804 485.799L494.564 461.562L521.278 476.952L550.221 473.185L530.274 457.864L493.553 460.122L493.541 460.099Z" fill="#BC816F"/>
<path d="M514.97 494.462H466.804L455.946 506.212L518.555 505.544L514.97 494.462Z" fill="#CB9582"/>
<path d="M322.146 479.083L328.948 471.976H378.7L395.406 487.596L354.433 492.204L322.146 479.083Z" fill="#BC816F"/>
<path d="M378.7 471.976H470.987L479.914 472.194L467.103 483.438L466.804 485.799L395.406 487.596L378.7 471.976Z" fill="#D29180"/>
<path d="M403.885 492.204L423.591 471.976H451.844L466.804 485.799L448.857 492.204L423.993 473.773L404.69 492.654L403.885 492.204Z" fill="#BC816F"/>
<path d="M546.935 473.6V528.641L521.278 518.078V476.941L546.935 473.6Z" fill="#D6D4D0"/>
<path d="M521.278 476.94L494.564 461.55L466.804 485.799V494.462H514.97L518.555 505.544L515.694 505.579V517.617L521.278 518.078V507.572V476.94Z" fill="#F2F0EF"/>
<path d="M515.694 505.579C512.982 505.464 457.635 506.247 457.635 506.247V532.201L515.694 517.617V505.567V505.579Z" fill="#F2F0EF"/>
<path d="M423.993 473.772L404.69 492.653H408.998L409.297 531.947H416.49L417.386 494.462H440.619L441.963 532.696H449.615V498.736L466.804 493.022V485.799L448.857 492.204L423.993 473.772Z" fill="#F2F0EF"/>
<path d="M389.81 524.782L388.765 519.402L389.282 516.914L388.765 514.587L389.81 510.532L390.959 505.429L388.765 503.229V501.074C388.765 501.074 390.212 497.019 390.959 496.271C391.706 495.522 393.659 492.216 393.659 492.216L395.394 493.575L396.348 495.533C396.348 495.533 397.543 494.635 397.543 493.725C397.543 492.815 397.842 491.766 397.842 491.766L399.335 493.874L401.737 493.425L403.862 494.474V497.63L404.885 499.738V502.445L406.838 508.286V514.011L407.585 513.262V514.91L409.182 518.515L407.734 521.971L407.585 524.632V527.075L403.093 530.231L392.602 527.524L389.799 524.794L389.81 524.782Z" fill="#A1A383"/>
<path d="M453.338 533.203C453.005 532.869 452.235 530.254 452.235 530.254L446.387 528.676C446.387 528.676 443.468 530.369 442.905 530.254C442.342 530.139 439.194 529.217 439.194 529.217L436.839 526.43L431.898 524.967L425.487 528.158C425.487 528.158 423.912 528.123 423.016 527.328C422.12 526.533 420.879 524.506 420.431 524.967C419.983 525.427 417.731 527.443 417.731 527.443L414.364 527.109L409.872 525.98V524.897H405.149L404.701 527.662L395.417 526.314C395.417 526.314 392.005 524.828 391.327 524.897C390.649 524.967 386.49 524.264 386.042 524.897C385.594 525.531 382.893 528.158 382.893 528.158L379.63 525.75H376.034C375.253 525.75 374.345 526.648 374.345 526.648L373.805 541.417L375.138 542.315H378.056L379.86 541.186C379.86 541.186 380.423 541.521 380.986 541.636C381.549 541.751 383.008 542.315 383.008 542.315H384.468C385.249 542.315 387.168 541.532 387.168 541.532L388.788 540.184C388.788 540.184 390.649 540.634 390.994 540.634C391.339 540.634 392.453 540.749 392.453 540.749L394.923 540.979L396.164 541.428H398.979L399.99 540.415C399.99 540.415 400.324 539.965 400.668 539.965H403.587L404.713 541.313L405.494 542.327L407.183 541.313C407.183 541.313 407.516 540.634 408.424 540.634C409.332 540.634 412.02 540.403 412.02 540.403L414.491 540.288L415.732 541.302L418.432 541.186L420.684 540.173L423.28 540.76L453.372 533.203H453.338Z" fill="#BBBD95"/>
<path d="M709.563 613.254L588.953 611.676L586.747 585.595L562.998 571.829L557.253 561.588L560.32 541.244L739.184 542.2L738 571.829L716.169 576.506L711.987 599.753L709.563 613.254Z" fill="#C1C1BF"/>
<path d="M585.92 586.816L588.092 599.753L587.643 612.379L587 622.746L522.151 680.173H466.804L585.92 586.816Z" fill="#9D9FA1"/>
<path d="M709.563 613.254H984.987L1104.93 610.996V586.816L1160.41 610.996L1160.61 638.252L1031.51 640.832L702.485 652.64L697.533 680.173H522.151L564.181 636.086L579.612 619.901L588.091 610.996L709.563 613.254Z" fill="#AFA389"/>
<path d="M728.073 539.689L736.346 540.207L736.369 542.189L565.433 541.267L570.282 539.689H728.073Z" fill="#E1E0DA"/>
<path d="M1031.51 640.833L1026.18 500.326L1007.02 497.446L1006.32 625.903L1031.51 640.833Z" fill="#FFFCF4"/>
<path d="M1066 508.965L1067.76 662.317L1097.89 680.173H1100.47L1093.2 510.509L1076.34 505.51L1066 508.965Z" fill="#FFFCF4"/>
<path d="M1161.18 516.453L1160.42 680.173H1193V519.333L1161.18 516.453Z" fill="#FFFCF4"/>
<path d="M624.342 494.462H610.853V513.85H624.342V494.462Z" fill="#ABACAD"/>
<path d="M648.218 494.462H634.729V513.85H648.218V494.462Z" fill="#ABACAD"/>
<path d="M714.549 499.035H689.076V513.458H714.549V499.035Z" fill="#D6D4D0"/>
<path d="M283 516.926L388.776 506.166L283 463.163V516.926Z" fill="#CB9582"/>
<path d="M375.046 507.572L370.645 626.744L564.181 541.82V565.309L370.645 680.173H283V516.926L375.046 507.572Z" fill="#E1E0DA"/>
<path d="M373.357 553.248L518.474 516.926L571.328 538.687L370.645 626.744L373.357 553.248Z" fill="#CB9582"/>
<path d="M370.645 680.173L564.181 565.309L594.377 575.988L457.268 680.173H370.645Z" fill="#CB9582"/>
<path d="M590.39 579.029V586.229L467.735 680.173H457.268L590.39 579.029Z" fill="#E1E0DA"/>
<path d="M736.346 539.643L738 680.173H991.157L797.369 517.628L736.346 539.643Z" fill="#E6AB87"/>
<path d="M991.157 680.173H1097.89L858.644 538.364L797.369 517.628L991.157 680.173Z" fill="#C69476"/>
<path d="M736.346 571.829L716.169 576.506L697.533 680.173H738L736.346 571.829Z" fill="#CB9582"/>
<path d="M589.62 586.816L590.929 624.566H586.242L585.253 590.168L589.62 586.816Z" fill="#CDCACD"/>
<path d="M572.741 599.753L573.212 630.995L567.571 633.011L566.456 604.557L572.741 599.753Z" fill="#CDCACD"/>
<path d="M517.027 642.422L518.164 673.906V679.412H507.915L508.765 648.747L517.027 642.422Z" fill="#CDCACD"/>
<path d="M283 541.244L354.433 529.206L352.893 571.829L283 593.866V541.244Z" fill="#A6A4A9"/>
<path d="M1193 400.173L1076.54 415.148L977.346 463.531L1193 469.291V400.173Z" fill="#E6AB87"/>
<path d="M988.836 463.843V473.127L997.258 475.051V486.571L1193 503.079V469.291L988.836 463.843Z" fill="#F8F1ED"/>
<path d="M1193 503.079L997.258 486.571V494.831L1193 516.453V503.079Z" fill="#CFC9C5"/>
<path d="M1193 531.302H1182.57L1176.18 529.517L1173.75 524.655L1174.78 521.061L1158.57 522.985L1156.65 524.137L1142.86 525.289L1137.37 522.478L1135.33 517.997L1137.49 513.896L1141.58 512.617L1141.3 510.74L1193 516.453V531.302Z" fill="#D7D3CD"/>
<path d="M1107.73 507.03L1109.41 510.048L1107.73 515.163L1104.18 516.442L1075.96 517.214L1071.49 512.122L1070.22 509.541L1065.37 510.739L1058.98 512.122H1054.01L1050.05 508.896C1050.05 508.896 1049.68 506.592 1049.68 506.212C1049.68 505.832 1051.85 502.249 1051.85 502.249L1051.71 500.844L1107.75 507.042L1107.73 507.03Z" fill="#D7D3CD"/>
<path d="M1038.45 499.381L1039.07 502.25L1038.45 505.325L1029.49 506.224H1012.25L1010.09 504.047L1009.2 501.512L1005.5 502.123L1003.45 503.079L999.487 504.047L996.167 503.92L994.765 500.072L995.788 497.135L997.258 494.831L1038.45 499.381Z" fill="#D7D3CD"/>
<path d="M662.902 644.576L657.927 645.371L648.23 645.751L644.139 642.1C644.139 642.1 640.497 634.612 640.497 633.84C640.497 633.068 643.749 627.884 643.37 626.732C642.99 625.58 643.749 618.219 643.749 618.219C643.749 618.219 643.944 613.196 644.898 613.243C645.851 613.289 646.805 612.425 646.805 612.425C647.196 611.181 648.218 605.686 648.218 605.686L647.391 602.932C647.391 602.932 646.437 601.78 646.437 600.824C646.437 599.868 648.356 596.596 648.356 596.596L649.7 597.944L652.378 594.108L652.573 591.608L652.378 586.816H654.894L656.583 590.065L657.927 586.816H661.179L660.225 591.032L662.902 590.652L664.442 592.38V595.64L665.58 598.9L668.452 599.741L668.831 604.28V607.356L671.704 611.192V615.604L672.899 620.212V624.567L671.704 640.372L662.891 644.576H662.902Z" fill="#AEAE8A"/>
<path d="M690.983 653.85L698.073 652.502C698.073 652.502 701.324 649.53 701.428 648.666C701.531 647.802 702.198 642.33 701.91 641.558C701.623 640.787 698.946 639.254 698.751 639.923C698.555 640.591 697.533 639.761 697.533 639.761L696.924 634.451L695.867 628.887C695.867 628.887 694.718 631.386 694.051 628.887C693.385 626.387 693.19 622.551 693.19 622.551L692.902 619.279C692.902 619.279 692.707 617.551 691.753 617.747C690.8 617.943 690.03 619.095 689.455 618.415C688.881 617.735 688.019 614.003 688.019 614.003L687.824 610.351L686.388 606.319C686.388 606.319 682.458 604.303 682.458 606.319V608.335L680.355 607.091L678.54 607.471L677.104 610.063L675.541 609.867L674.128 613.128L672.692 618.311L673.071 621.767L670.198 621.387L667.808 622.539C667.808 622.539 667.234 627.331 667.142 627.619C667.05 627.907 665.223 628.771 665.223 628.771C665.223 628.771 663.936 630.983 664.43 631.559C664.924 632.135 665.798 634.531 665.798 634.531L667.521 638.183L674.128 642.503L690.983 653.827V653.85Z" fill="#BBBD95"/>
<path d="M692.994 675.738L696.924 673.238C696.924 673.238 697.406 672.282 697.406 669.978C697.406 667.674 696.166 662.87 696.924 661.43C697.682 659.99 698.935 656.442 698.935 656.442C698.935 656.442 697.878 654.138 697.303 653.85C696.729 653.562 694.81 653.366 694.81 653.366C694.81 653.366 693.856 650.394 693.569 649.334C693.282 648.274 692.994 645.498 692.994 645.498C692.994 645.498 691.179 644.83 691.179 644.15C691.179 643.471 691.558 640.982 691.558 639.542C691.558 638.102 691.363 635.891 691.363 635.891L691.167 631.375C691.167 631.375 688.778 629.451 688.387 629.647C687.996 629.843 687.617 629.935 687.33 630.511C687.043 631.087 688.192 633.391 687.043 631.087C685.894 628.783 685.514 626.732 685.514 626.732L684.17 622.735C684.17 622.735 682.067 622.251 681.872 622.827C681.677 623.403 679.861 625.995 679.861 625.995C679.861 625.995 678.425 625.419 677.563 625.419C676.702 625.419 674.599 628.103 674.599 628.495C674.599 628.887 673.737 631.571 673.737 631.571C673.737 631.571 672.588 632.055 672.106 631.951C671.623 631.847 668.854 632.815 668.567 633.103C668.28 633.391 667.51 635.119 667.51 635.695V638.195C667.51 638.195 665.407 636.467 665.016 638.575C664.626 640.683 664.063 640.787 664.729 642.227C665.396 643.667 664.821 647.03 664.821 647.03L665.683 649.15L666.637 652.214L667.59 655.29L692.96 675.738H692.994Z" fill="#A1A383"/>
<path d="M570.213 630.131C570.213 630.131 571.557 626.594 571.557 625.868C571.557 625.143 573.66 622.747 573.66 622.747C573.66 622.747 574.039 620.823 573.66 619.486C573.281 618.15 573.178 616.318 572.994 615.65C572.81 614.982 573.66 611.711 573.66 611.711C573.66 611.711 576.337 608.255 577.199 608.255C578.061 608.255 583.139 608.738 583.139 608.738L584.288 611.618C584.288 611.618 586.782 613.254 587.069 613.151C587.356 613.047 587.643 612.379 587.643 612.379C587.643 612.379 589.562 613.243 589.849 613.623C590.137 614.003 590.137 613.819 590.229 614.487C590.32 615.155 590.516 616.791 590.516 616.791L591.757 618.715C591.757 618.715 592.044 617.182 592.331 617.275C592.618 617.367 593.572 618.715 593.572 619.198C593.572 619.682 593.48 623.611 593.48 624.094C593.48 624.578 594.434 626.755 594.434 626.755L595.204 628.126C595.204 628.126 595.973 627.93 596.157 629.082C596.341 630.234 596.824 636.57 596.824 637.342V639.162C596.824 639.162 597.777 643.194 598.065 643.194C598.352 643.194 599.306 643.862 599.306 644.15C599.306 644.438 600.363 645.97 600.259 647.318C600.156 648.666 600.167 652.214 600.167 652.214C600.167 652.214 600.259 653.17 599.214 654.898C598.168 656.626 597.203 658.262 597.203 658.262L595.192 662.202C595.192 662.202 593.273 664.886 592.32 665.658C591.366 666.43 587.816 667.294 587.816 667.294L584.851 669.505L580.83 670.853L576.429 669.989L570.202 630.154L570.213 630.131Z" fill="#BBBD95"/>
<path d="M574.2 679.412C574.2 679.412 577.394 675.45 577.521 675.058C577.647 674.666 579.945 669.805 579.945 669.298C579.945 668.791 581.738 661.741 581.738 661.741L580.21 662.386L580.336 659.829L581.738 655.094V652.283L580.21 648.321H579.061C579.061 648.321 578.555 648.701 577.98 646.27C577.406 643.839 576.131 639.231 576.131 639.231C576.131 639.231 575.625 637.181 574.855 636.927C574.085 636.674 572.936 636.156 572.936 636.156C572.936 636.156 571.018 637.688 571.339 635.004C571.661 632.32 572.293 631.375 571.339 629.601C570.386 627.827 569.869 626.744 569.869 626.744C569.869 626.744 567.95 625.454 567.318 626.007C566.686 626.56 564.767 629.601 564.767 629.601C564.767 629.601 562.596 630.983 561.826 629.601C561.056 628.218 558.505 626.744 558.505 626.744L556.586 630.131L554.932 632.308C554.932 632.308 552.887 635.257 553.53 635.764C554.173 636.271 554.932 637.296 554.932 637.941C554.932 638.586 554.426 639.865 553.013 640.245C551.6 640.625 550.209 641.144 550.209 641.144L549.44 643.067V645.245C549.44 645.245 549.06 647.295 548.67 647.169C548.279 647.042 546.625 646.143 546.625 646.143L545.476 647.422V650.233C545.476 650.233 546.498 652.364 546.498 652.64C546.498 652.917 545.476 655.094 545.476 655.094C545.476 655.094 544.832 654.322 544.453 654.967C544.074 655.613 542.925 657.525 542.925 658.17C542.925 658.815 543.43 662.006 543.43 662.006V665.969C543.43 666.867 541.638 668.526 541.638 669.932C541.638 671.337 542.913 674.413 542.913 674.413C542.913 674.413 543.683 674.92 544.441 675.692C545.2 676.463 548.532 679.401 548.532 679.401H574.189L574.2 679.412Z" fill="#A1A383"/>
<path d="M654.894 679.412H696.165C696.165 679.412 696.257 676.118 696.165 675.162C696.074 674.205 692.914 670.462 692.914 670.462L692.144 670.842C691.57 671.13 689.846 669.494 689.846 669.494L688.215 662.778C688.215 662.778 687.548 663.066 687.157 662.778C686.767 662.49 685.526 662.778 685.526 662.778C685.526 662.778 685.434 660.382 685.147 659.322C684.859 658.262 683.331 653.562 683.331 653.562L681.412 654.046L679.494 652.652L679.781 649.254L678.919 646.662L676.242 645.89L675.093 647.33C675.093 647.33 674.036 647.71 673.565 647.422C673.094 647.134 672.795 646.466 672.221 646.27C671.646 646.074 668.969 644.922 668.969 644.922H667.82C667.82 644.922 667.441 644.15 667.154 644.922C666.866 645.694 666.487 645.982 666.774 647.514C667.062 649.046 666.2 649.818 666.2 650.682C666.2 651.546 665.43 653.85 664.764 653.942C664.097 654.034 663.327 654.322 663.327 654.322C663.327 654.322 663.523 657.49 663.902 658.158C664.281 658.827 664.568 659.69 664.384 660.658C664.201 661.626 662.569 662.386 662.569 662.766C662.569 663.146 661.903 663.054 662.569 665.07C663.235 667.086 663.431 666.89 663.339 668.042C663.247 669.194 661.811 671.302 661.811 671.302C661.811 671.302 659.513 672.259 659.421 672.742C659.329 673.226 659.042 672.362 659.134 673.699C659.225 675.035 659.421 675.334 659.225 676.003C659.03 676.671 657.789 676.671 657.789 676.671L655.583 677.73L654.917 679.389L654.894 679.412Z" fill="#BBBD95"/>
<path d="M548.612 618.231L549.658 649.818L545.476 655.094L541.649 654.518V623.564L548.612 618.231Z" fill="#CDCACD"/>
<path d="M514.97 680.173H559.137L561.688 672.501V669.171H559.137C559.137 669.171 556.839 668.664 556.839 667.893C556.839 667.121 557.344 664.31 557.344 664.31L556.069 659.702L552.496 662.006L550.703 657.398V653.044C550.703 653.044 547.9 649.208 547.13 649.208H544.832L542.534 652.537L539.466 649.208H533.595L528.746 651.258V654.334L526.195 656.638L523.817 658.688L525.173 662.018L524.92 663.55L522.369 664.702C521.864 667.397 521.864 669.955 521.864 669.955L521.358 672.512L518.807 672.766L517.015 672.512L515.992 674.816C515.992 674.816 517.52 675.588 517.52 676.613C517.52 677.638 514.97 680.196 514.97 680.196V680.173Z" fill="#BBBD95"/>
<path d="M606.406 646.327L604.108 640.568C604.108 640.568 604.488 639.485 604.108 636.662C603.729 633.84 602.764 625.868 602.764 625.868L607.935 625.788C607.935 625.788 609.279 623.288 608.888 621.18C608.498 619.072 607.935 616.387 607.935 616.387C607.935 616.387 609.279 611.941 609.842 611.952C610.405 611.964 612.91 610.628 612.91 610.628L613.68 602.564L615.024 597.184L616.747 587.772C616.747 587.772 618.276 587.024 618.85 586.828C619.425 586.632 623.251 590.848 623.251 590.848C623.251 590.848 624.595 590.468 624.974 589.12C625.353 587.772 624.974 584.512 624.974 584.512L627.077 584.316L630.719 586.044L633.592 590.848C633.592 590.848 633.017 596.608 634.361 596.228C635.706 595.848 638.762 595.076 638.762 595.076L640.29 597.38L641.244 604.096L640.095 611.388L641.244 618.231C641.244 618.231 643.346 624.497 643.346 624.567V634.036L649.666 639.542L649.471 644.576L648.195 649.138L643.346 650.924C643.346 650.924 625.732 651.5 624.963 651.696C624.193 651.891 616.92 652.629 616.92 652.629C616.92 652.629 613.473 651.12 613.473 650.348C613.473 649.576 606.384 646.316 606.384 646.316L606.406 646.327Z" fill="#A1A383"/>
<path d="M1009.2 501.512L1009.93 504.669L1012.09 506.051L1014.38 506.224L1016.63 502.86L1015.69 500.522L1013.38 498.529L1009.32 496.904L1004.57 499.047L998.787 496.144H996.305L994.96 499.024L995.661 502.503L997.258 504.427L999.556 502.86V500.844L998.982 499.024L1004.61 503.033L1009.2 501.512Z" fill="#F8F1ED"/>
<path d="M1064.84 510.809L1057.06 506.443L1057.57 509.035L1056.84 512.133L1054.02 512.398L1051.26 510.544L1050.11 507.272L1051.26 503.24L1054.71 500.844L1064.47 505.544L1073.47 503.24L1078.46 504.012L1080.94 509.392V514.576L1076.24 517.214L1072.86 514.956L1071.63 511.776L1073.22 509.369L1064.84 510.809Z" fill="#F8F1ED"/>
<path d="M1160.3 523.146L1174.34 520.969L1172.55 524.298C1172.55 524.298 1172.17 527.627 1172.55 528.008C1172.93 528.388 1176.5 531.717 1176.5 531.717L1181.6 532.616L1185.69 529.16L1185.19 522.628C1185.19 522.628 1181.49 516.096 1180.72 515.716C1179.95 515.336 1175.23 514.564 1174.85 514.564C1174.47 514.564 1166.55 515.843 1166.55 515.843L1160.81 517.214C1160.81 517.214 1150.72 513.792 1150.34 513.792C1149.96 513.792 1141.79 511.995 1141.79 511.995L1136.42 514.299L1135.15 518.4L1138.22 524.667L1142.69 526.072C1142.69 526.072 1146.9 524.148 1146.9 523.768C1146.9 523.388 1146.78 519.806 1146.78 519.806L1145.37 517.755L1160.31 523.135L1160.3 523.146Z" fill="#F8F1ED"/>
<path d="M546.935 556.75V569.802L553.254 565.77L553.507 553.42L546.935 556.75Z" fill="#ABACAD"/>
<path d="M530.274 564.618V579.593L521.278 584.317V569.802L530.274 564.618Z" fill="#ABACAD"/>
<path d="M498.608 579.593L487.566 584.316V602.829L499.527 595.525L498.608 579.593Z" fill="#ABACAD"/>
<path d="M457.118 598.738L440.458 607.377V627.733L457.267 617.941L457.118 598.738Z" fill="#ABACAD"/>
<path d="M394.441 629.601C394.245 632.285 395.406 653.101 395.406 653.101L371.53 666.441L371.024 639.946L394.452 629.601H394.441Z" fill="#ABACAD"/>
</g>
<path d="M-2 539.326L283.202 517.043V463.13H-2V539.326Z" fill="#CB9582"/>
<path d="M-1.51514 539.982L284.671 517.146V628.568H-1.51514V539.982Z" fill="#E1E0DA"/>
<path d="M215.254 552.307L254.748 547.753L255.621 601.105L216.49 611.434L215.254 552.307Z" fill="#A6A4A9"/>
<path d="M1219.35 470.227L1188.63 469.19L1191.81 400.328L1220.2 396.812L1219.35 470.227Z" fill="#E6AB87"/>
<path d="M1192 469.333L1233.58 470.452L1239.82 628.165H1192V469.333Z" fill="#F8F1ED"/>
<rect y="640.345" width="1280" height="79.6548" fill="#A0655A"/>
<rect x="-11.3799" y="622.861" width="1291.38" height="17.4839" fill="#D6806C"/>
<rect x="1233.34" width="46.6568" height="642.923" fill="#A0655A"/>
<rect x="1214.07" width="19.2715" height="630.594" fill="#D6806C"/>
<rect x="89.8015" width="100.301" height="624.276" fill="#F3E7E0"/>
<rect x="64.4578" width="25.3438" height="624.276" fill="#FFFCF4"/>
<rect x="116.474" y="-16.5225" width="10.6927" height="582.891" rx="5.34637" fill="#DFD0C6"/>
<rect x="89.8015" y="-16.5225" width="10.6927" height="582.891" rx="5.34637" fill="#DFD0C6"/>
<rect x="69.6323" y="-16.5225" width="10.6927" height="582.891" rx="5.34637" fill="#F8F1ED"/>
<rect x="143.147" y="-16.5225" width="10.6927" height="582.891" rx="5.34637" fill="#DFD0C6"/>
<rect x="169.82" y="-16.5225" width="10.6927" height="582.891" rx="5.34637" fill="#DFD0C6"/>
<rect x="94.7971" y="594.053" width="108.615" height="48.8696" fill="#A0655A"/>
<rect x="49.9342" y="594.053" width="44.8629" height="46.4211" fill="#D6806C"/>
<rect x="848.165" width="100.301" height="624.276" fill="#F3E7E0"/>
<rect x="822.821" width="25.3438" height="624.276" fill="#FFFCF4"/>
<rect x="874.838" y="-16.5225" width="10.6927" height="582.891" rx="5.34637" fill="#DFD0C6"/>
<rect x="848.165" y="-16.5225" width="10.6927" height="582.891" rx="5.34637" fill="#DFD0C6"/>
<rect x="827.996" y="-16.5225" width="10.6927" height="582.891" rx="5.34637" fill="#F8F1ED"/>
<rect x="901.511" y="-16.5225" width="10.6927" height="582.891" rx="5.34637" fill="#DFD0C6"/>
<rect x="928.184" y="-16.5225" width="10.6927" height="582.891" rx="5.34637" fill="#DFD0C6"/>
<rect x="853.161" y="594.053" width="108.615" height="48.8696" fill="#A0655A"/>
<rect x="808.298" y="594.053" width="44.8629" height="46.4211" fill="#D6806C"/>
<defs>
<linearGradient id="paint0_linear_129_94" x1="675.5" y1="-1.45372e-06" x2="710.05" y2="719.728" gradientUnits="userSpaceOnUse">
<stop stop-color="#D5F6FA"/>
<stop offset="0.586538" stop-color="#3D6064" stop-opacity="0"/>
</linearGradient>
<clipPath id="clip0_129_94">
<rect width="910" height="280" fill="white" transform="translate(283 400.173)"/>
</clipPath>
</defs>
</svg>
