<svg width="1280" height="720" viewBox="0 0 1280 720" fill="none" xmlns="http://www.w3.org/2000/svg">
<path d="M851.095 720.024H837.669L830.301 698.241L851.095 689.21L885.78 695.221L896.042 689.21V663.017L920.465 649.77L911.514 621.087L940.605 598.678L920.465 621.087L928.298 649.77L902.563 665.008V689.21L885.78 699.967L851.095 693.692L837.669 699.967L851.095 720.024Z" fill="#855951"/>
<path d="M911.754 60.0225L916.967 91.1738L906.622 89.9121L926.227 137.373L916.794 145.292L928.519 146.194L936.056 132.429L932.447 121.175L933.367 111.519L926.093 88.8018L935.038 111.084L934.374 120.674L939.98 133.8L945.824 129.891L948.194 100.983L948.264 133.47L928.51 151.969L892.981 151.479L898.303 159.817L917 168.934L927.354 164.421L939.152 192.926L933.355 215.504L937.962 226.758L930.878 216.147L935.881 193.775L926.811 172.186L916.679 174.818L898.825 166.048L915.901 195.135L914.251 213.763L921.245 240.681L930.832 259.262L921.726 287.489L926.374 260.42L918.408 241.418L911.414 214.5L898.65 236.973L864.803 188.297L895.619 225.309L909.822 196.715L884.891 145.723L888.477 144.79V137.78C883.781 135.034 874.292 129.54 873.892 129.538C873.495 129.538 859.637 134.629 852.758 137.174L846.805 125.418L835.593 118.146L847.599 123.115L853.552 134.629L871.61 128.205L867.343 119.964L870.022 102.633L856.727 86.6348L872.602 101.663L870.022 118.994L873.296 127.235L889.271 132.811L895.819 137.78L897.673 142.401L920.961 136.351L901.36 85.8887L907.439 84.3096L910.321 81.9639L909.721 63.2852L892.055 0L911.754 60.0225Z" fill="#B2AAA6"/>
<path d="M475.464 616.686L472.62 619.91L470.53 620.954L471.657 619.577L476.164 613.463L472.62 609.67L476.792 605.878L480.395 599.051L478.309 605.878L473.947 609.67L478.309 613.463L475.464 616.686Z" fill="#BFB8B8"/>
<path d="M539.865 525.483L541.66 526.354L542.356 523.268L544.156 521.298L542.866 519.635L538.927 517.325L540.285 515.831L543.239 516.443V512.13L541.66 509.482L542.662 507.206L540.93 509.278L542.356 512.13L542.096 514.982H539.865L537.568 517.088H534.852L533.154 513.351L530.132 512.606L530.398 511.553L533.935 510.602L534.852 512.606L536.991 510.602L535.803 511.553L534.261 509.991L530.725 510.602L530.132 507.92L527.008 504.931H525.31L524.468 504.286L527.189 503.069L529.69 504.286L532.373 499.152L530.398 496.758L530.725 494.69L529.419 496.758L531.215 499.152L529.093 502.742L527.189 501.763L524.468 503.069L524.849 500.294L523.924 499.152L521.313 498.39L519.191 498.118L517.777 492.133L513.261 490.229L511.52 483.265L512.336 490.719L516.852 492.732L518.266 499.152L521.313 499.75L523.544 500.294V505.734H526.536L529.419 508.455L529.093 513.351L532.901 514.004L534.261 518.03H538.07L542.096 520.75L539.865 525.483Z" fill="#C3BDBD"/>
<path d="M707.003 499.003H707.988L708.481 497.854L709.547 498.264L711.599 496.541L715.128 497.362L715.579 494.202L713.979 492.52L714.923 494.202L714.512 496.295L711.394 495.72L709.301 497.362L708.193 496.541L706.142 495.392L704.254 495.72L703.762 493.053L701.423 492.315L702.244 489.976H701.423L700.644 492.766L703.147 493.874L703.762 496.541L706.142 496.295L707.988 497.362L707.003 499.003Z" fill="#C1BEBE"/>
<path d="M707.003 513.487L706.373 513.387H705.034V514.759L703.516 515.169L703.844 517.426L703.68 518.124L703.844 519.683H706.142L705.69 520.791H703.516L701.833 521.57V523.212L702.244 522.022L704.418 521.242H706.142L706.798 519.314L704.418 519.109V517.713L704.213 515.662L705.69 515.169V514.062H707.003L707.619 515.662L706.47 517.18L706.798 518.124L709.465 519.314V522.022L710.081 522.801L711.886 523.212L712.666 527.11H715.579L716.974 528.053L718.246 530.105L717.302 527.684L715.579 526.617H713.035L712.338 522.801L710.081 522.022V519.314L707.003 517.713L708.193 515.662L707.003 513.487Z" fill="#C1BEBE"/>
<path d="M745.96 594.66L737.102 605.968V601.149L744.075 592.587H751.049L755.76 587.499H765.561L767.068 590.703L770.838 600.691L777.246 602.953C777.811 606.031 778.98 612.452 779.13 613.507C779.281 614.563 782.334 617.465 783.842 618.784L777.246 613.507L776.115 605.968L768.765 601.634L765.561 590.703H755.76L751.049 594.66H745.96Z" fill="#B98869"/>
<path d="M423.549 631.024L413.052 623.151L412.723 622.857H415.007L415.261 623.533L420.928 626.071L424.861 625.056L426.058 623.151L426.664 625.574L422.073 626.874L426.664 631.024L437.719 633.545L440.093 635.485L441.918 640.209L451.103 651.755L463.437 654.117V663.827H480.232L482.594 671.437C486.705 671.962 495.242 673.012 496.502 673.012C497.762 673.012 486.18 673.886 480.232 674.324V666.189H461.337V657.004L449.004 654.117L439.556 660.94L441.918 667.763L446.379 673.012L457.139 677.998L467.111 680.622L473.409 694.005L493.353 692.693L502.538 713.687L493.353 696.63H473.409L465.799 684.558L453.202 680.622L451.103 691.119L441.918 699.254V707.651L429.584 716.311V719.985H424.861V714.999L437.719 707.651V696.63L449.004 689.019V677.998L437.719 669.863V659.103L446.379 651.755L437.719 640.209V635.485L424.861 632.599L417.25 635.485L400.193 632.599L396.519 636.797L400.193 631.024L417.25 632.599L423.549 631.024Z" fill="#855951"/>
<path d="M80.8075 124.281L67.4165 89.5474L72.7201 111.745V124.281L79.8482 129.377L93.5416 130.69L99.7318 144.384L107.589 153.575L131.996 163.33L135.56 175.897H125.243L113.613 185.839L94.6671 178.899L81.9116 188.278L93.5416 182.65L114.738 190.341L125.243 178.899L137.623 177.961L149.441 212.663L150.379 219.416L142.5 226.357L147.19 240.8L134.247 246.803L113.613 244.927L105.172 262.372L116.426 247.928L137.623 250.93L150.379 240.8L145.689 230.108L152.817 223.168L161.633 230.108L176.265 240.8L182.08 254.869L190.146 274.94V264.811L178.311 236.43L157.806 220.528L136.464 161.106L107.589 148.552L96.2908 127.628L80.8075 124.281Z" fill="#B2AAA6"/>
<path d="M1128.21 413.211L1134.57 407.641L1139.41 407.048L1130.48 413.211L1132.64 420.372L1113.65 427.761H1094.67L1078.64 436.628L1063.52 438.333L1059.89 442.084L1063.52 436.628L1078.64 435.036L1094.67 425.488H1112.18L1129.34 418.099L1128.21 413.211Z" fill="#B98869"/>
<path d="M0 687.132V676.212L14.3846 673.754L22.0912 681.242L35.5272 659.644L81.175 666.857L37.9667 663.505L23.4644 687.132L14.3846 681.242L0 687.132Z" fill="#855951"/>
<path d="M1279.92 275.755L1279.92 282.784L1264.45 288.103L1259.93 276.153L1262.94 256.219L1259.93 250.322L1246.79 250.322L1240.15 236.286L1233.29 237.084L1225.77 241.43L1222.15 226.162L1225.77 238.905L1233.29 233.94L1240.15 231.785L1247.79 246.574L1259.93 246.574L1265.32 256.219L1262.17 276.153L1265.32 283.869L1279.92 275.755Z" fill="#7F574F"/>
</svg>
