<svg width="1237" height="675" viewBox="0 0 1237 675" fill="none" xmlns="http://www.w3.org/2000/svg">
<path d="M783.679 680.055H770.252L762.884 652.334L783.679 643.304L818.364 649.315L828.625 643.304V617.111L853.049 603.864L844.098 575.181L873.189 552.772L853.049 575.181L860.881 603.864L835.147 619.102V643.304L818.364 654.06L783.679 647.786L770.252 654.06L783.679 680.055Z" fill="#855951"/>
<path d="M1213.61 290.735L1210.19 297.651L1190.28 292.525L1189.7 278.907L1202.45 262.975L1201.16 255.754L1184.12 247.324L1181.72 230.479L1160.78 225.858L1153.62 203.661L1163.06 221.247L1183.72 226.445L1187.07 244.605L1202.82 252.395L1205.54 264.502L1192.62 280.349L1193.28 289.285L1213.61 290.735Z" fill="#7F574F"/>
<path d="M844.338 14.1162L849.551 45.2676L839.206 44.0059L858.81 91.4668L849.378 99.3857L861.102 100.288L868.639 86.5225L865.03 75.2686L865.951 65.6123L858.677 42.8955L867.622 65.1777L866.958 74.7676L872.563 87.8936L878.408 83.9844L880.777 55.0771L880.847 87.5635L861.094 106.062L825.564 105.573L830.886 113.911L849.584 123.027L859.937 118.515L871.735 147.02L865.938 169.598L870.546 180.852L863.462 170.241L868.465 147.869L859.394 126.279L849.262 128.912L831.409 120.142L848.484 149.229L846.835 167.856L853.829 194.774L863.416 213.355L854.309 241.583L858.958 214.514L850.992 195.512L843.998 168.594L831.233 191.066L797.386 142.391L828.203 179.402L842.405 150.809L817.474 99.8164L821.06 98.8838V91.874C816.365 89.1273 806.875 83.6336 806.475 83.6318C806.078 83.6318 792.221 88.7225 785.342 91.2676L779.388 79.5117L768.177 72.2393L780.182 77.209L786.135 88.7227L804.193 82.2988L799.927 74.0576L802.605 56.7266L789.31 40.7285L805.185 55.7568L802.605 73.0879L805.88 81.3291L821.854 86.9043L828.402 91.874L830.257 96.4951L853.545 90.4443L833.943 39.9824L840.022 38.4033L842.904 36.0576L842.304 17.3789L832.025 0L844.338 14.1162Z" fill="#B2AAA6"/>
<path d="M408.048 570.78L405.203 574.004L403.114 575.048L404.24 573.671L408.748 567.556L405.203 563.764L409.375 559.971L412.978 553.145L410.892 559.971L406.531 563.764L410.892 567.556L408.048 570.78Z" fill="#BFB8B8"/>
<path d="M472.449 479.577L474.244 480.448L474.94 477.362L476.739 475.392L475.449 473.728L471.51 471.419L472.868 469.925L475.823 470.536V466.224L474.244 463.575L475.245 461.3L473.514 463.372L474.94 466.224L474.679 469.076H472.449L470.152 471.182H467.435L465.737 467.445L462.715 466.699L462.982 465.647L466.518 464.696L467.435 466.699L469.575 464.696L468.386 465.647L466.845 464.085L463.308 464.696L462.715 462.013L459.591 459.025H457.894L457.052 458.38L459.772 457.162L462.274 458.38L464.956 453.245L462.982 450.851L463.308 448.784L462.003 450.851L463.798 453.245L461.676 456.836L459.772 455.857L457.052 457.162L457.433 454.388L456.508 453.245L453.896 452.483L451.775 452.211L450.36 446.227L445.844 444.323L444.104 437.359L444.919 444.812L449.435 446.826L450.85 453.245L453.896 453.844L456.127 454.388V459.828H459.119L462.003 462.548L461.676 467.445L465.485 468.098L466.845 472.124H470.653L474.679 474.844L472.449 479.577Z" fill="#C3BDBD"/>
<path d="M639.587 453.097H640.572L641.064 451.948L642.131 452.358L644.182 450.635L647.711 451.455L648.163 448.296L646.562 446.614L647.506 448.296L647.096 450.389L643.977 449.814L641.885 451.455L640.777 450.635L638.725 449.486L636.838 449.814L636.345 447.147L634.007 446.409L634.827 444.07H634.007L633.227 446.86L635.73 447.968L636.345 450.635L638.725 450.389L640.572 451.455L639.587 453.097Z" fill="#C1BEBE"/>
<path d="M639.587 467.581L638.956 467.481H637.617V468.853L636.099 469.263L636.427 471.52L636.263 472.218L636.427 473.777H638.725L638.274 474.885H636.099L634.417 475.664V477.305L634.827 476.116L637.002 475.336H638.725L639.382 473.407L637.002 473.202V471.807L636.797 469.756L638.274 469.263V468.155H639.587L640.202 469.756L639.054 471.274L639.382 472.218L642.049 473.407V476.116L642.664 476.895L644.47 477.305L645.249 481.203H648.163L649.558 482.147L650.83 484.199L649.886 481.778L648.163 480.711H645.619L644.921 476.895L642.664 476.116V473.407L639.587 471.807L640.777 469.756L639.587 467.581Z" fill="#C1BEBE"/>
<path d="M678.543 548.754L669.686 560.062V555.243L676.659 546.681H683.632L688.344 541.592H698.144L699.652 544.796L703.421 554.785L709.829 557.047C710.395 560.125 711.563 566.546 711.714 567.601C711.865 568.656 714.918 571.559 716.426 572.878L709.829 567.601L708.698 560.062L701.348 555.727L698.144 544.796H688.344L683.632 548.754H678.543Z" fill="#B98869"/>
<path d="M356.132 585.118L345.635 577.245L345.307 576.95H347.59L347.844 577.627L353.511 580.165L357.444 579.15L358.641 577.245L359.248 579.668L354.656 580.967L359.248 585.118L370.303 587.638L372.676 589.579L374.502 594.303L383.686 605.849L396.02 608.211V617.921H412.815L415.177 625.531C419.288 626.056 427.826 627.105 429.085 627.105C430.345 627.105 418.763 627.98 412.815 628.417V620.282H393.921V611.098L381.587 608.211L372.14 615.034L374.502 621.857L378.963 627.105L389.722 632.091L399.694 634.716L405.992 648.099L425.936 646.787L435.121 667.781L425.936 650.723H405.992L398.382 638.652L385.786 634.716L383.686 645.212L374.502 653.348V661.745L362.168 670.405V674.079H357.444V669.093L370.303 661.745V650.723L381.587 643.113V632.091L370.303 623.956V613.197L378.963 605.849L370.303 594.303V589.579L357.444 586.692L349.834 589.579L332.777 586.692L329.103 590.891L332.777 585.118L349.834 586.692L356.132 585.118Z" fill="#855951"/>
<path d="M13.391 78.3743L0 43.6411L5.30363 65.8385V78.3743L12.4317 83.4711L26.1251 84.7842L32.3153 98.4776L40.173 107.669L64.5792 117.423L68.1432 129.991H57.8263L46.1963 139.933L27.2506 132.992L14.4951 142.372L26.1251 136.744L47.3217 144.435L57.8263 132.992L70.2066 132.055L82.0242 166.757L82.9621 173.51L75.0837 180.45L79.7732 194.894L66.8301 200.897L46.1963 199.021L37.7551 216.466L49.01 202.022L70.2066 205.024L82.9621 194.894L78.2726 184.202L85.4007 177.262L94.2169 184.202L108.848 194.894L114.663 208.963L122.729 229.034V218.905L110.894 190.524L90.3893 174.622L69.0473 115.199L40.173 102.645L28.8743 81.7219L13.391 78.3743Z" fill="#B2AAA6"/>
<path d="M1060.79 367.304L1067.15 361.734L1071.99 361.142L1063.06 367.304L1065.22 374.466L1046.24 381.855H1027.25L1011.23 390.721L996.108 392.427L992.47 396.178L996.108 390.721L1011.23 389.13L1027.25 379.581H1044.76L1061.93 372.192L1060.79 367.304Z" fill="#B98869"/>
</svg>
