<svg width="258" height="211" viewBox="0 0 258 211" fill="none" xmlns="http://www.w3.org/2000/svg">
<path d="M99.0711 2.85296C70.2711 20.053 48.7377 35.6863 41.5711 41.353L23.5711 47.353C20.2377 63.0196 11.6711 100.053 4.07108 122.853C-9.92892 153.853 16.0711 157.353 23.5711 162.853C28.3711 172.853 50.5711 195.02 61.0711 204.853L88.5711 210.353C92.0711 208.686 99.9711 204.553 103.571 201.353C107.171 205.753 117.071 199.52 121.571 195.853C123.738 185.853 137.271 166.653 174.071 169.853C210.871 173.053 231.404 145.186 237.071 130.853C240.571 128.186 247.871 120.153 249.071 109.353C269.871 94.553 245.738 57.853 231.071 41.353V35.853H226.571H223.071L210.571 23.353H187.071L166.571 9.85296C162.738 10.353 154.171 11.053 150.571 9.85296C146.071 0.852962 128.571 -3.14704 99.0711 2.85296Z" fill="#434343"/>
<ellipse cx="51" cy="70.5" rx="10" ry="8.5" fill="#2A2A2A"/>
<ellipse cx="10" cy="8.5" rx="10" ry="8.5" transform="matrix(-0.171224 -0.985232 -0.985232 0.171224 132.79 141.705)" fill="#2A2A2A"/>
<ellipse cx="103" cy="27.5" rx="10" ry="8.5" fill="#2A2A2A"/>
<ellipse cx="123" cy="101.5" rx="10" ry="8.5" fill="#2A2A2A"/>
<ellipse cx="152" cy="31.5" rx="10" ry="8.5" fill="#2A2A2A"/>
<ellipse cx="142" cy="79.5" rx="10" ry="8.5" fill="#2A2A2A"/>
<ellipse cx="10" cy="8.5" rx="10" ry="8.5" transform="matrix(-0.171224 -0.985232 -0.985232 0.171224 211.346 88.5952)" fill="#2A2A2A"/>
<ellipse cx="83" cy="158.5" rx="10" ry="8.5" fill="#2A2A2A"/>
<ellipse cx="10" cy="8.5" rx="10" ry="8.5" transform="matrix(-0.171224 -0.985232 -0.985232 0.171224 162.037 137.764)" fill="#2A2A2A"/>
<ellipse cx="31" cy="132.5" rx="10" ry="8.5" fill="#2A2A2A"/>
<ellipse cx="10" cy="8.5" rx="10" ry="8.5" transform="matrix(-0.171224 -0.985232 -0.985232 0.171224 183.173 109.705)" fill="#2A2A2A"/>
<ellipse cx="51" cy="96.5" rx="10" ry="8.5" fill="#2A2A2A"/>
<ellipse cx="10" cy="8.5" rx="10" ry="8.5" transform="matrix(-0.171224 -0.985232 -0.985232 0.171224 107.173 146.156)" fill="#2A2A2A"/>
<ellipse cx="193" cy="44.5" rx="10" ry="8.5" fill="#2A2A2A"/>
<ellipse cx="66" cy="128" rx="15" ry="13" fill="#2A2A2A"/>
<ellipse cx="15" cy="13" rx="15" ry="13" transform="matrix(-0.171224 -0.985232 -0.985232 0.171224 200.287 153.446)" fill="#2A2A2A"/>
<ellipse cx="76" cy="46" rx="15" ry="13" fill="#2A2A2A"/>
<ellipse cx="133" cy="10.5" rx="12" ry="5.5" fill="#2A2A2A"/>
<ellipse cx="121" cy="59.5" rx="12" ry="5.5" fill="#2A2A2A"/>
<ellipse cx="109" cy="159.5" rx="9" ry="9.5" fill="#2A2A2A"/>
<ellipse cx="12" cy="5.5" rx="12" ry="5.5" transform="matrix(-0.171224 -0.985232 -0.985232 0.171224 250.456 85.8584)" fill="#2A2A2A"/>
<ellipse cx="23.3531" cy="96.0002" rx="12" ry="5.5" transform="rotate(104.633 23.3531 96.0002)" fill="#2A2A2A"/>
<ellipse cx="12" cy="5.5" rx="12" ry="5.5" transform="matrix(-0.910022 0.41456 0.41456 0.910022 107.841 179)" fill="#2A2A2A"/>
<ellipse cx="166" cy="62.5" rx="10" ry="16.5" fill="#2A2A2A"/>
<ellipse cx="94.5" cy="93.5" rx="13.5" ry="16.5" fill="#2A2A2A"/>
<ellipse cx="13.5" cy="16.5" rx="13.5" ry="16.5" transform="matrix(-0.171224 -0.985232 -0.985232 0.171224 232.589 117.383)" fill="#2A2A2A"/>
<ellipse cx="61" cy="175.5" rx="10" ry="16.5" fill="#2A2A2A"/>
<ellipse cx="10" cy="16.5" rx="10" ry="16.5" transform="matrix(-0.171224 -0.985232 -0.985232 0.171224 156.937 160.98)" fill="#2A2A2A"/>
</svg>
